<?xml version="1.0" standalone="no"?>
<!DOCTYPE svg PUBLIC "-//W3C//DTD SVG 1.1//EN" "http://www.w3.org/Graphics/SVG/1.1/DTD/svg11.dtd" >
<svg>
<metadata>
Created by FontForge 20090914 at Wed Jun 13 22:06:38 2012
 By www-data
Copyright (URW)++,Copyright 2006 by (URW)++ Design &#38; Development
</metadata>
<defs>
<font id="NeuzeitGro-Reg" horiz-adv-x="500" >
  <font-face 
    font-family="Neuzeit Grotesk"
    font-weight="400"
    font-stretch="normal"
    units-per-em="1000"
    panose-1="0 0 5 0 0 0 0 0 0 0"
    ascent="667"
    descent="-333"
    x-height="461"
    cap-height="667"
    bbox="-183 -250 948 868"
    underline-thickness="54"
    underline-position="-43"
    stemh="68"
    stemv="78"
    unicode-range="U+0020-U+FB04"
  />
<missing-glyph horiz-adv-x="300" 
 />
    <glyph glyph-name="fi" unicode="fi" horiz-adv-x="509" 
d="M160 394v-394h-76v394h-63v67h63v62c0 92 47 145 127 145c4 0 13 0 21 -1v-68c-57 -8 -72 -23 -72 -76v-62h72v-67h-72zM432 461v-461h-76v461h76zM394 640c28 0 49 -22 49 -50c0 -27 -22 -48 -49 -48c-28 0 -49 21 -49 49s21 49 49 49z" />
    <glyph glyph-name="fl" unicode="fl" horiz-adv-x="509" 
d="M160 394v-394h-76v394h-63v67h63v62c0 92 47 145 127 145c4 0 13 0 21 -1v-68c-57 -8 -72 -23 -72 -76v-62h72v-67h-72zM432 0h-76v667h76v-667z" />
    <glyph glyph-name="ff" unicode="ff" horiz-adv-x="536" 
d="M160 394v-394h-76v394h-63v67h63v62c0 92 47 145 127 145c4 0 13 0 21 -1v-68c-57 -8 -72 -23 -72 -76v-62h72v-67h-72zM437 394v-394h-76v394h-63v67h63v62c0 92 47 145 127 145c4 0 13 0 21 -1v-68c-57 -8 -72 -23 -72 -76v-62h72v-67h-72z" />
    <glyph glyph-name="ffi" unicode="ffi" horiz-adv-x="784" 
d="M159 394v-394h-76v394h-63v67h63v62c0 92 47 145 127 145c4 0 13 0 21 -1v-68c-57 -8 -72 -23 -72 -76v-62h72v-67h-72zM436 394v-394h-76v394h-63v67h63v62c0 92 47 145 127 145c4 0 13 0 21 -1v-68c-57 -8 -72 -23 -72 -76v-62h72v-67h-72zM708 461v-461h-76v461h76z
M670 640c28 0 49 -22 49 -50c0 -27 -22 -48 -49 -48c-28 0 -49 21 -49 49s21 49 49 49z" />
    <glyph glyph-name="ffl" unicode="ffl" horiz-adv-x="785" 
d="M160 394v-394h-76v394h-63v67h63v62c0 92 47 145 127 145c4 0 13 0 21 -1v-68c-57 -8 -72 -23 -72 -76v-62h72v-67h-72zM437 394v-394h-76v394h-63v67h63v62c0 92 47 145 127 145c4 0 13 0 21 -1v-68c-57 -8 -72 -23 -72 -76v-62h72v-67h-72zM709 0h-76v667h76v-667z" />
    <glyph glyph-name=".notdef" horiz-adv-x="300" 
 />
    <glyph glyph-name="space" unicode=" " horiz-adv-x="300" 
 />
    <glyph glyph-name="exclam" unicode="!" horiz-adv-x="257" 
d="M168 667v-506h-77v506h77zM129 96c30 0 52 -22 52 -53c0 -29 -23 -51 -52 -51c-30 0 -52 22 -52 52s22 52 52 52z" />
    <glyph glyph-name="quotedbl" unicode="&#x22;" horiz-adv-x="337" 
d="M123 400h-62l-13 267h89zM276 400h-62l-13 267h88z" />
    <glyph glyph-name="numbersign" unicode="#" 
d="M440 289v-50h-103l-30 -212h-50l29 212h-88l-30 -212h-52l30 212h-107v50h114l14 94h-104v51h111l28 196h51l-27 -196h88l28 196h50l-27 -196h96v-51h-103l-13 -94h95zM309 385h-92l-14 -98h92z" />
    <glyph glyph-name="dollar" unicode="$" 
d="M263 583v-216c60 -23 77 -31 104 -48c47 -29 77 -84 77 -142c0 -59 -30 -113 -80 -145c-30 -19 -54 -26 -101 -32v-93h-41v93c-43 3 -67 11 -98 32c-49 32 -74 76 -74 131c0 2 0 9 1 15h69c-1 -2 -1 -4 -1 -6c-4 -51 40 -96 103 -104v237c-51 19 -71 28 -98 45
c-44 29 -71 78 -71 133c0 57 29 110 76 141c26 16 50 24 93 29v72h41v-72c103 -12 167 -76 168 -166h-71c-5 54 -38 87 -97 96zM222 383v200c-63 -8 -97 -43 -97 -96c0 -50 29 -81 97 -104zM263 288v-220c64 5 106 46 106 105c0 53 -33 88 -106 115z" />
    <glyph glyph-name="percent" unicode="%" horiz-adv-x="611" 
d="M255 548v-108c0 -73 -36 -111 -104 -111c-34 0 -63 11 -81 32c-18 19 -22 35 -22 84v102c0 49 7 74 25 93s47 30 79 30c30 0 56 -10 76 -27c22 -22 27 -37 27 -95zM97 546v-92c0 -40 1 -46 9 -58c9 -13 26 -21 46 -21c21 0 39 9 47 24c6 11 8 22 8 52v103
c0 47 -17 69 -54 69c-20 0 -37 -7 -45 -18c-10 -12 -11 -20 -11 -59zM563 215v-108c0 -72 -36 -110 -104 -110c-34 0 -63 11 -82 32c-17 19 -21 34 -21 83v102c0 50 6 73 25 93c18 19 47 30 79 30c30 0 57 -10 76 -27c23 -22 27 -37 27 -95zM405 213v-92c0 -40 1 -45 9 -57
c9 -13 27 -21 46 -21c21 0 39 9 47 24c6 11 8 21 8 51v103c0 48 -17 69 -54 69c-20 0 -37 -7 -45 -18c-10 -12 -11 -20 -11 -59zM551 653l-458 -661l-32 23l457 660z" />
    <glyph glyph-name="ampersand" unicode="&#x26;" horiz-adv-x="597" 
d="M468 138l105 -138h-84l-67 91c-79 -78 -127 -104 -191 -104c-105 0 -188 83 -188 190c0 82 37 130 159 205c-49 68 -60 91 -60 130c0 71 60 125 137 125c76 0 133 -52 133 -122c0 -34 -16 -72 -43 -98c-16 -16 -28 -25 -67 -51l125 -172l95 98l51 -48zM263 419
c60 38 76 58 76 95c0 35 -24 58 -59 58c-37 0 -63 -24 -63 -60c0 -29 4 -38 46 -93zM377 147l-136 180c-46 -31 -57 -39 -76 -56c-29 -25 -46 -60 -46 -95c0 -64 52 -118 115 -118c48 0 76 18 143 89z" />
    <glyph glyph-name="quoteright" unicode="&#x2019;" horiz-adv-x="221" 
d="M183 656l-92 -204l-55 19l81 209z" />
    <glyph glyph-name="parenleft" unicode="(" horiz-adv-x="301" 
d="M265 -186l-50 -48c-118 145 -172 286 -172 454c0 172 63 342 174 467l48 -50c-101 -125 -151 -264 -151 -414c0 -146 54 -292 151 -409z" />
    <glyph glyph-name="parenright" unicode=")" horiz-adv-x="301" 
d="M35 639l50 48c119 -146 172 -286 172 -454c0 -173 -63 -341 -174 -467l-48 50c101 125 151 264 151 414c0 147 -53 291 -151 409z" />
    <glyph glyph-name="asterisk" unicode="*" horiz-adv-x="423" 
d="M209 472l-70 -95l-40 30l71 94l-112 36l15 46l112 -33v115h48v-115l114 36l16 -47l-117 -38l72 -94l-37 -30z" />
    <glyph glyph-name="plus" unicode="+" 
d="M22 364h205v193h46v-193h205v-44h-205v-193h-46v193h-205v44z" />
    <glyph glyph-name="comma" unicode="," horiz-adv-x="231" 
d="M169 78l-101 -237l-55 17l84 243z" />
    <glyph glyph-name="hyphen" unicode="-" horiz-adv-x="207" 
d="M207 277v-69h-207v69h207z" />
    <glyph glyph-name="period" unicode="." horiz-adv-x="231" 
d="M115 96c30 0 52 -22 52 -53c0 -29 -23 -51 -52 -51c-30 0 -52 22 -52 52s22 52 52 52z" />
    <glyph glyph-name="slash" unicode="/" horiz-adv-x="395" 
d="M357 667l-335 -883h-65l335 883h65z" />
    <glyph glyph-name="zero" unicode="0" 
d="M448 466v-265c0 -75 -14 -121 -47 -156c-35 -37 -88 -56 -151 -56c-65 0 -119 20 -154 58c-35 37 -44 75 -44 176v220c0 87 10 128 40 164c33 40 88 62 156 62c61 0 111 -17 148 -50c38 -35 52 -75 52 -153zM131 441v-223c0 -77 3 -91 25 -116c21 -24 57 -39 95 -39
c41 0 79 17 98 44c15 22 21 50 21 99v255c0 52 -9 78 -34 102c-22 20 -52 31 -85 31c-43 0 -80 -17 -99 -48c-17 -24 -21 -47 -21 -105z" />
    <glyph glyph-name="one" unicode="1" 
d="M258 546l-147 -98v76l226 148v-672h-79v546z" />
    <glyph glyph-name="two" unicode="2" 
d="M182 73h235v-73h-374l232 332c67 97 82 127 82 167c0 58 -46 99 -111 99c-45 0 -82 -21 -97 -56c-8 -19 -11 -34 -12 -69h-75c4 127 71 197 190 197c109 0 185 -68 185 -165c0 -56 -20 -105 -76 -183z" />
    <glyph glyph-name="three" unicode="3" 
d="M305 585h-233v72h378l-196 -249c116 0 198 -83 198 -201c0 -125 -94 -218 -221 -218c-105 0 -180 59 -203 160l72 13c18 -64 65 -100 127 -100c81 0 145 61 145 139c0 80 -60 136 -147 136c-31 0 -51 -6 -80 -23l-33 29z" />
    <glyph glyph-name="four" unicode="4" 
d="M306 150h-267v62l344 464v-454h78v-72h-78v-150h-77v150zM306 222v255l-187 -255h187z" />
    <glyph glyph-name="five" unicode="5" 
d="M370 667v-76h-215v-179c34 13 65 19 98 19c118 0 205 -92 205 -217c0 -128 -94 -221 -225 -221c-94 0 -165 49 -199 137l73 27c15 -29 22 -41 33 -51c21 -21 58 -34 95 -34c80 0 141 62 141 144c0 85 -60 142 -148 142c-52 0 -104 -24 -148 -68v377h290z" />
    <glyph glyph-name="six" unicode="6" 
d="M372 657l-171 -267c28 10 41 13 65 13c111 0 197 -87 197 -200c0 -118 -97 -215 -215 -215c-119 0 -211 94 -211 215c0 49 13 86 51 147l191 307h93zM252 335c-76 0 -136 -58 -136 -132c0 -78 59 -140 134 -140s135 61 135 137c0 75 -59 135 -133 135z" />
    <glyph glyph-name="seven" unicode="7" 
d="M340 583h-256v74h370l-264 -657h-86z" />
    <glyph glyph-name="eight" unicode="8" 
d="M330 362c38 -12 56 -21 77 -43c33 -33 50 -77 50 -129c0 -118 -87 -202 -209 -202c-121 0 -206 81 -206 195c0 53 18 101 50 134c21 22 38 32 78 45c-35 12 -50 22 -68 44c-22 27 -34 61 -34 98c0 95 78 165 184 165c105 0 181 -69 181 -164c0 -38 -13 -74 -37 -102
c-18 -20 -32 -29 -66 -41zM252 599c-64 0 -108 -40 -108 -96c0 -57 47 -102 106 -102c57 0 108 47 108 101c0 52 -49 97 -106 97zM251 320c-72 0 -130 -57 -130 -129c0 -71 57 -129 128 -129s128 58 128 129c0 70 -57 129 -126 129z" />
    <glyph glyph-name="nine" unicode="9" 
d="M132 0l168 267c-28 -10 -41 -13 -64 -13c-112 0 -199 88 -199 202c0 119 95 213 216 213c120 0 210 -91 210 -210c0 -51 -13 -90 -46 -145l-192 -314h-93zM253 595c-76 0 -137 -60 -137 -136c0 -75 58 -135 133 -135c77 0 135 58 135 134c0 77 -58 137 -131 137z" />
    <glyph glyph-name="colon" unicode=":" horiz-adv-x="231" 
d="M115 96c30 0 52 -22 52 -53c0 -29 -23 -51 -52 -51c-30 0 -52 22 -52 52s22 52 52 52zM115 384c30 0 52 -22 52 -53c0 -29 -23 -51 -52 -51c-30 0 -52 22 -52 52s22 52 52 52z" />
    <glyph glyph-name="semicolon" unicode=";" horiz-adv-x="231" 
d="M169 78l-101 -237l-55 17l84 243zM121 379c30 0 52 -22 52 -53c0 -29 -23 -51 -52 -51c-30 0 -52 22 -52 52s22 52 52 52z" />
    <glyph glyph-name="less" unicode="&#x3c;" 
d="M466 577v-83l-344 -159l344 -159v-83l-433 207v71z" />
    <glyph glyph-name="equal" unicode="=" 
d="M22 434h456v-43h-456v43zM22 293h456v-43h-456v43z" />
    <glyph glyph-name="greater" unicode="&#x3e;" 
d="M34 93v83l344 159l-344 160v82l433 -206v-72z" />
    <glyph glyph-name="question" unicode="?" horiz-adv-x="426" 
d="M220 165h-75c-1 140 5 156 85 219c56 43 72 69 72 115c0 61 -42 105 -99 105c-55 0 -96 -39 -96 -91v-13h-73c1 107 65 174 168 174s178 -73 178 -173c0 -66 -28 -113 -100 -167c-54 -41 -61 -55 -61 -122c0 -3 0 -28 1 -47zM185 96c30 0 52 -22 52 -53
c0 -29 -23 -51 -52 -51c-30 0 -52 22 -52 52s22 52 52 52z" />
    <glyph glyph-name="at" unicode="@" horiz-adv-x="777" 
d="M662 182h43c-23 -51 -47 -82 -83 -111c-61 -49 -145 -79 -224 -79c-178 0 -329 154 -329 336c0 188 152 341 339 341c166 0 303 -125 303 -278c0 -75 -28 -142 -81 -194c-43 -41 -98 -67 -145 -67c-40 0 -67 19 -72 52c-42 -37 -74 -52 -113 -52c-64 0 -109 53 -109 127
c0 62 21 128 59 182c41 59 98 92 157 92c43 0 66 -13 90 -50l13 36h80l-95 -269c-9 -26 -17 -55 -17 -65c0 -12 9 -20 23 -20c18 0 43 8 64 22c64 41 105 121 105 204c0 132 -119 240 -265 240c-165 0 -297 -134 -297 -300c0 -165 131 -297 294 -297c76 0 154 31 206 81
c15 16 26 30 54 69zM421 270l53 148c2 6 3 13 3 21c0 36 -20 61 -51 61c-30 0 -62 -25 -92 -73c-39 -61 -69 -155 -69 -213c0 -31 19 -52 49 -52c19 0 39 9 52 23c19 20 47 63 55 85z" />
    <glyph glyph-name="A" unicode="A" horiz-adv-x="606" 
d="M452 154h-299l-61 -154h-87l251 667h100l245 -667h-94zM426 226l-122 335l-126 -335h248z" />
    <glyph glyph-name="B" unicode="B" horiz-adv-x="551" 
d="M83 667h188c136 0 213 -64 213 -177c0 -42 -13 -81 -38 -108c-17 -19 -32 -29 -68 -43c38 -8 55 -15 76 -32c36 -28 55 -73 55 -127c0 -63 -27 -117 -72 -146c-39 -25 -82 -34 -166 -34h-188v667zM167 598v-230h85c52 0 85 8 109 27c26 20 41 54 41 91
c0 43 -20 81 -53 96c-24 12 -52 16 -113 16h-69zM167 300v-232h84c70 0 97 5 126 22c32 18 48 50 48 95c0 80 -47 115 -153 115h-105z" />
    <glyph glyph-name="C" unicode="C" horiz-adv-x="630" 
d="M550 157l56 -56c-67 -79 -141 -113 -244 -113c-93 0 -172 34 -229 98c-56 63 -89 154 -89 247c0 200 135 346 319 346c60 0 119 -16 167 -45c27 -17 45 -33 78 -69l-58 -54c-65 67 -114 91 -185 91c-136 0 -235 -113 -235 -269c0 -155 101 -268 239 -268
c73 0 129 29 181 92z" />
    <glyph glyph-name="D" unicode="D" horiz-adv-x="626" 
d="M83 0v667h177c201 0 322 -122 322 -323c0 -113 -37 -207 -105 -267c-58 -52 -135 -77 -232 -77h-162zM167 596v-524h30c113 0 161 12 209 50c60 48 90 122 90 221c0 161 -86 253 -239 253h-90z" />
    <glyph glyph-name="E" unicode="E" horiz-adv-x="473" 
d="M159 595v-223h263v-72h-263v-228h263v-72h-347v667h347v-72h-263z" />
    <glyph glyph-name="F" unicode="F" horiz-adv-x="456" 
d="M167 595v-223h260v-72h-260v-300h-84v667h344v-72h-260z" />
    <glyph glyph-name="G" unicode="G" horiz-adv-x="732" 
d="M374 361h318c1 -14 1 -32 1 -38c0 -89 -20 -151 -69 -213c-64 -80 -150 -122 -251 -122c-190 0 -329 145 -329 344c0 202 138 347 329 347c101 0 188 -42 251 -121l-63 -51c-26 29 -38 41 -56 53c-37 27 -84 42 -132 42c-138 0 -243 -116 -243 -269
c0 -151 105 -268 241 -268c74 0 151 39 192 98c26 35 36 68 43 126h-232v72z" />
    <glyph glyph-name="H" unicode="H" horiz-adv-x="659" 
d="M167 295v-295h-84v667h84v-300h325v300h84v-667h-84v295h-325z" />
    <glyph glyph-name="I" unicode="I" horiz-adv-x="250" 
d="M167 667v-667h-84v667h84z" />
    <glyph glyph-name="J" unicode="J" horiz-adv-x="374" 
d="M303 667v-461c0 -94 -35 -156 -106 -188c-32 -15 -79 -22 -138 -22c-7 0 -19 0 -33 1v73c20 -2 30 -2 41 -2c49 0 85 11 110 32c32 28 42 66 42 153v342h-193v72h277z" />
    <glyph glyph-name="K" unicode="K" horiz-adv-x="539" 
d="M167 308v-308h-84v667h84v-307l259 307h101l-278 -330l278 -337h-107z" />
    <glyph glyph-name="L" unicode="L" horiz-adv-x="427" 
d="M167 76h235v-76h-319v667h84v-591z" />
    <glyph glyph-name="M" unicode="M" horiz-adv-x="828" 
d="M167 489v-489h-84v667h83l247 -500l250 500h82v-667h-84v488l-248 -495z" />
    <glyph glyph-name="N" unicode="N" horiz-adv-x="683" 
d="M167 510v-510h-84v667h77l356 -502v502h84v-667h-74z" />
    <glyph glyph-name="O" unicode="O" horiz-adv-x="742" 
d="M374 679c93 0 182 -42 246 -115c54 -63 78 -137 78 -237c0 -104 -40 -197 -113 -259c-60 -52 -136 -80 -213 -80c-99 0 -196 47 -258 125c-46 58 -70 133 -70 217c0 199 141 349 330 349zM372 601c-139 0 -242 -114 -242 -268c0 -155 102 -268 240 -268
c67 0 133 29 178 80c39 43 64 115 64 183c0 89 -24 154 -76 204c-44 43 -105 69 -164 69z" />
    <glyph glyph-name="P" unicode="P" horiz-adv-x="531" 
d="M167 255v-255h-84v667h178c158 0 245 -72 245 -204c0 -66 -26 -125 -71 -162c-39 -31 -91 -46 -165 -46h-103zM167 327h87c36 0 60 3 83 12c51 18 84 65 84 122s-32 103 -85 121c-26 9 -53 13 -93 13h-76v-268z" />
    <glyph glyph-name="Q" unicode="Q" horiz-adv-x="747" 
d="M703 33l-58 -53l-71 80c-65 -50 -126 -72 -202 -72c-91 0 -183 42 -246 112c-53 59 -80 137 -80 230c0 200 140 349 329 349c186 0 326 -147 326 -343c0 -89 -22 -156 -72 -223zM525 226l48 -52c29 53 41 97 41 158c0 155 -102 269 -240 269c-73 0 -144 -35 -189 -94
c-34 -44 -53 -105 -53 -173c0 -156 101 -268 239 -268c58 0 99 15 146 55l-49 55z" />
    <glyph glyph-name="R" unicode="R" horiz-adv-x="560" 
d="M167 280v-280h-84v667h182c142 0 228 -73 228 -194c0 -75 -34 -135 -96 -168c-32 -17 -62 -24 -123 -28l259 -277h-107zM167 337h84c101 0 156 46 156 130c0 83 -50 128 -142 128h-98v-258z" />
    <glyph glyph-name="S" unicode="S" horiz-adv-x="490" 
d="M38 179h80c4 -76 45 -116 118 -116c75 0 128 46 128 113c0 58 -30 85 -135 120c-79 27 -105 40 -135 67c-34 31 -52 75 -52 126c0 113 81 190 199 190s195 -75 198 -191h-84c-1 34 -5 50 -16 69c-19 29 -56 47 -99 47c-66 0 -113 -45 -113 -109c0 -32 14 -60 38 -77
c21 -15 39 -23 107 -47c71 -25 105 -43 132 -72c29 -31 45 -73 45 -118c0 -115 -85 -193 -210 -193c-85 0 -143 30 -178 90c-16 27 -23 55 -23 87v14z" />
    <glyph glyph-name="T" unicode="T" horiz-adv-x="443" 
d="M264 595v-595h-84v595h-170v72h423v-72h-169z" />
    <glyph glyph-name="U" unicode="U" horiz-adv-x="636" 
d="M155 667v-397c0 -85 12 -128 44 -160c28 -27 76 -45 118 -45s89 19 118 49c36 35 45 69 45 158v395h86v-395c0 -100 -16 -157 -59 -205c-45 -51 -112 -79 -188 -79c-78 0 -149 30 -194 84c-41 47 -54 96 -54 200v395h84z" />
    <glyph glyph-name="V" unicode="V" horiz-adv-x="549" 
d="M272 137l183 530h89l-232 -667h-82l-225 667h88z" />
    <glyph glyph-name="W" unicode="W" horiz-adv-x="861" 
d="M616 154l153 513h87l-204 -667h-74l-147 524l-148 -524h-74l-204 667h89l152 -511l148 511h79z" />
    <glyph glyph-name="X" unicode="X" horiz-adv-x="552" 
d="M278 266l-170 -266h-102l223 340l-215 327h101l163 -253l164 253h98l-214 -327l220 -340h-97z" />
    <glyph glyph-name="Y" unicode="Y" horiz-adv-x="529" 
d="M308 294v-294h-84v294l-230 373h99l172 -286l170 286h100z" />
    <glyph glyph-name="Z" unicode="Z" horiz-adv-x="539" 
d="M152 72h338v-72h-477l378 595h-336v72h474z" />
    <glyph glyph-name="bracketleft" unicode="[" horiz-adv-x="300" 
d="M77 667h161v-50h-94v-783h94v-50h-161v883z" />
    <glyph glyph-name="backslash" unicode="\" horiz-adv-x="395" 
d="M37 667h65l335 -883h-65z" />
    <glyph glyph-name="bracketright" unicode="]" horiz-adv-x="300" 
d="M223 667v-883h-161v50h94v783h-94v50h161z" />
    <glyph glyph-name="asciicircum" unicode="^" 
d="M108 373h-78l173 295h94l172 -295h-78l-142 239z" />
    <glyph glyph-name="underscore" unicode="_" 
d="M0 -70h500v-54h-500v54z" />
    <glyph glyph-name="quoteleft" unicode="&#x2018;" horiz-adv-x="221" 
d="M39 477l91 203l56 -19l-81 -209z" />
    <glyph glyph-name="a" unicode="a" horiz-adv-x="577" 
d="M424 385v76h76v-461h-76v89c-46 -69 -98 -100 -168 -100c-127 0 -217 100 -217 240c0 141 92 243 219 243c70 0 121 -27 166 -87zM269 404c-50 0 -85 -17 -112 -55c-24 -33 -38 -77 -38 -122c0 -98 64 -172 148 -172c87 0 158 81 158 180c0 100 -64 169 -156 169z" />
    <glyph glyph-name="b" unicode="b" horiz-adv-x="573" 
d="M152 79v-79h-76v667h76v-285c46 63 95 90 162 90c129 0 219 -100 219 -243c0 -141 -89 -240 -215 -240c-71 0 -121 27 -166 90zM304 404c-88 0 -153 -73 -153 -174c0 -105 60 -175 150 -175c91 0 152 69 152 172s-62 177 -149 177z" />
    <glyph glyph-name="c" unicode="c" horiz-adv-x="457" 
d="M388 109l47 -52c-52 -47 -103 -68 -170 -68c-132 0 -226 100 -226 240c0 143 95 243 230 243c66 0 120 -22 168 -69l-49 -49c-35 32 -74 48 -117 48c-91 0 -154 -70 -154 -170c0 -102 63 -173 153 -173c45 0 81 15 118 50z" />
    <glyph glyph-name="d" unicode="d" horiz-adv-x="574" 
d="M421 391v276h76v-667h-76v79c-46 -63 -95 -90 -165 -90c-127 0 -217 99 -217 239s92 244 217 244c68 0 120 -25 165 -81zM272 404c-91 0 -153 -72 -153 -177c0 -101 61 -172 148 -172c89 0 154 74 154 174c0 104 -61 175 -149 175z" />
    <glyph glyph-name="e" unicode="e" horiz-adv-x="539" 
d="M504 206h-384c4 -39 11 -59 30 -84c30 -41 74 -63 124 -63c57 0 111 31 138 79l67 -25c-38 -77 -117 -124 -205 -124c-137 0 -235 100 -235 240c0 142 97 243 232 243c134 0 234 -101 234 -236c0 -6 0 -19 -1 -30zM121 262h303c-3 36 -10 56 -26 79
c-29 39 -76 63 -127 63s-97 -24 -124 -64c-14 -22 -20 -41 -26 -78z" />
    <glyph glyph-name="f" unicode="f" horiz-adv-x="259" 
d="M160 394v-394h-76v394h-63v67h63v62c0 92 47 145 127 145c4 0 13 0 21 -1v-68c-57 -8 -72 -23 -72 -76v-62h72v-67h-72z" />
    <glyph glyph-name="g" unicode="g" horiz-adv-x="570" 
d="M417 382v79h76v-464c0 -77 -19 -129 -61 -169c-41 -40 -100 -61 -170 -61c-86 0 -154 28 -204 84l52 52c21 -22 31 -31 44 -40c26 -16 69 -27 108 -27c48 0 94 17 120 45c23 25 35 62 35 110v97c-45 -68 -98 -99 -170 -99c-122 0 -213 103 -213 240c0 74 27 145 73 189
c37 36 87 54 146 54c70 0 117 -26 164 -90zM267 402c-90 0 -153 -70 -153 -170c0 -99 64 -173 151 -173c44 0 87 21 117 56c20 23 33 68 33 114c0 60 -9 92 -36 122c-28 31 -71 51 -112 51z" />
    <glyph glyph-name="h" unicode="h" horiz-adv-x="508" 
d="M152 667v-270c42 52 84 75 139 75c40 0 82 -16 107 -42c25 -25 36 -61 36 -120v-310h-76v306c0 63 -31 98 -86 98c-35 0 -66 -14 -90 -41c-23 -26 -30 -49 -30 -93v-270h-76v667h76z" />
    <glyph glyph-name="i" unicode="i" horiz-adv-x="229" 
d="M152 461v-461h-76v461h76zM115 640c28 0 49 -22 49 -50c0 -27 -22 -48 -49 -48c-28 0 -49 21 -49 49s21 49 49 49z" />
    <glyph glyph-name="j" unicode="j" horiz-adv-x="229" 
d="M152 461v-509c0 -63 -11 -101 -39 -131c-28 -31 -69 -48 -116 -48h-20v72h11c53 1 88 43 88 107v509h76zM115 640c28 0 49 -22 49 -50c0 -27 -22 -48 -49 -48c-28 0 -49 21 -49 49s21 49 49 49z" />
    <glyph glyph-name="k" unicode="k" horiz-adv-x="444" 
d="M152 206v-206h-76v667h76v-408l184 202h96l-206 -225l205 -236h-95z" />
    <glyph glyph-name="l" unicode="l" horiz-adv-x="229" 
d="M152 0h-76v667h76v-667z" />
    <glyph glyph-name="m" unicode="m" horiz-adv-x="772" 
d="M76 461h76v-64c35 53 74 75 131 75c63 0 103 -27 124 -84c34 59 77 84 146 84c53 0 93 -17 117 -49c22 -29 28 -55 28 -128v-295h-76v277c0 56 -2 69 -13 88c-14 24 -44 39 -80 39c-67 0 -104 -45 -104 -127v-277h-76v276c0 45 -4 68 -15 88c-13 26 -41 40 -75 40
c-67 0 -107 -48 -107 -128v-276h-76v461z" />
    <glyph glyph-name="n" unicode="n" horiz-adv-x="509" 
d="M76 461h76v-65c40 54 80 76 137 76c42 0 80 -14 107 -38c29 -28 39 -60 39 -123v-311h-76v294c0 41 -5 63 -17 79c-13 19 -41 31 -72 31c-34 0 -65 -13 -88 -39c-22 -24 -30 -46 -30 -84v-281h-76v461z" />
    <glyph glyph-name="o" unicode="o" horiz-adv-x="548" 
d="M275 472c136 0 233 -101 233 -243c0 -135 -104 -240 -236 -240c-137 0 -233 100 -233 242c0 143 96 241 236 241zM275 402c-95 0 -158 -69 -158 -172c0 -102 63 -171 157 -171c91 0 156 71 156 171c0 103 -62 172 -155 172z" />
    <glyph glyph-name="p" unicode="p" horiz-adv-x="576" 
d="M76 461h76v-84c44 68 91 95 168 95c128 0 217 -98 217 -238c0 -145 -89 -245 -217 -245c-36 0 -69 8 -101 24c-28 14 -42 26 -67 59v-288h-76v677zM307 404c-92 0 -155 -73 -155 -181c0 -101 61 -168 152 -168s152 71 152 176c0 54 -13 95 -40 125s-68 48 -109 48z" />
    <glyph glyph-name="q" unicode="q" horiz-adv-x="573" 
d="M421 461h76v-677h-76v293c-44 -61 -95 -88 -167 -88c-65 0 -127 29 -167 78c-31 39 -48 98 -48 165c0 144 88 240 222 240c70 0 118 -27 160 -90v79zM270 404c-89 0 -151 -72 -151 -175c0 -102 61 -174 149 -174c89 0 151 70 151 172c0 57 -14 100 -43 131
c-27 28 -68 46 -106 46z" />
    <glyph glyph-name="r" unicode="r" horiz-adv-x="318" 
d="M76 461h76v-78c14 33 24 47 42 61c23 18 55 28 88 28h18v-77c-8 1 -16 1 -21 1c-41 0 -77 -19 -100 -53c-20 -29 -27 -56 -27 -109v-234h-76v461z" />
    <glyph glyph-name="s" unicode="s" horiz-adv-x="411" 
d="M365 335h-76v5c0 43 -35 70 -88 70c-51 0 -83 -26 -83 -66s20 -55 103 -78c59 -16 90 -31 112 -53c23 -23 37 -56 37 -90c0 -80 -66 -134 -164 -134c-105 0 -164 49 -172 142h75c5 -52 39 -80 97 -80c52 0 86 27 86 68c0 40 -26 60 -105 80c-100 27 -145 69 -145 139
c0 80 65 134 162 134c98 0 157 -50 161 -137z" />
    <glyph glyph-name="t" unicode="t" horiz-adv-x="259" 
d="M157 394v-300c0 -22 8 -28 35 -28h35v-66h-71c-53 0 -75 21 -75 72v322h-64v67h64v145h76v-145h70v-67h-70z" />
    <glyph glyph-name="u" unicode="u" horiz-adv-x="485" 
d="M344 461h77v-295c0 -63 -12 -98 -46 -129s-82 -48 -133 -48c-52 0 -100 18 -133 49c-31 30 -46 72 -46 128v295h76v-293c0 -65 42 -111 103 -111c32 0 63 13 81 35c15 18 21 38 21 74v295z" />
    <glyph glyph-name="v" unicode="v" horiz-adv-x="435" 
d="M350 461h79l-174 -461h-80l-169 461h80l130 -352z" />
    <glyph glyph-name="w" unicode="w" horiz-adv-x="692" 
d="M608 461h78l-164 -461h-69l-106 350l-111 -350h-72l-158 461h78l118 -339l106 339h75l104 -339z" />
    <glyph glyph-name="x" unicode="x" horiz-adv-x="446" 
d="M223 167l-123 -167h-93l170 229l-173 232h96l123 -169l126 169h93l-174 -232l166 -229h-93z" />
    <glyph glyph-name="y" unicode="y" horiz-adv-x="438" 
d="M211 119l138 342h83l-275 -683h-83l96 236l-164 447h81z" />
    <glyph glyph-name="z" unicode="z" horiz-adv-x="401" 
d="M150 67h212v-67h-340l240 394h-214v67h339z" />
    <glyph glyph-name="braceleft" unicode="{" 
d="M273 514v-155c0 -62 -14 -90 -55 -113c41 -22 55 -53 55 -116v-150c0 -75 20 -95 95 -96v-70c-94 1 -113 5 -137 25c-28 24 -40 60 -40 123v159c0 58 -15 83 -57 95v64c41 11 57 37 57 91v174c0 49 10 80 32 102c23 24 58 33 130 33h15v-74c-75 -2 -95 -22 -95 -92z" />
    <glyph glyph-name="bar" unicode="|" 
d="M208 667h83v-834h-83v834z" />
    <glyph glyph-name="braceright" unicode="}" 
d="M227 -21v155c0 63 14 91 55 114c-41 22 -55 52 -55 115v151c0 74 -20 95 -95 96v70h14c78 0 109 -8 133 -35c21 -24 30 -57 30 -114v-158c0 -58 15 -83 57 -95v-64c-41 -12 -57 -38 -57 -92v-173c0 -49 -10 -81 -32 -103c-24 -25 -57 -33 -130 -33c-2 0 -8 0 -15 1v73
c74 2 95 23 95 92z" />
    <glyph glyph-name="asciitilde" unicode="~" horiz-adv-x="667" 
d="M138 579l-44 35c35 75 81 113 137 113c27 0 58 -10 115 -39c55 -27 70 -32 92 -32c36 0 62 21 91 74l44 -35c-34 -76 -81 -113 -144 -113c-26 0 -44 6 -120 44c-37 18 -62 26 -82 26c-34 0 -60 -21 -89 -73z" />
    <glyph glyph-name="exclamdown" unicode="&#xa1;" horiz-adv-x="257" 
d="M91 -203v505h77v-505h-77zM129 471c30 0 52 -22 52 -52s-22 -52 -52 -52s-52 22 -52 53c0 29 23 51 52 51z" />
    <glyph glyph-name="cent" unicode="&#xa2;" 
d="M297 501v-345c36 1 70 17 100 48l46 -50c-43 -42 -81 -59 -146 -66v-84h-41v84c-133 22 -204 104 -204 236c0 87 35 163 94 206c31 22 58 32 110 39v79h41v-79c57 -3 112 -29 148 -71l-48 -47c-31 31 -64 47 -100 50zM256 156v345c-85 -17 -130 -77 -130 -172
c0 -94 46 -156 130 -173z" />
    <glyph glyph-name="sterling" unicode="&#xa3;" 
d="M221 362h148v-49h-114c29 -35 40 -60 40 -92c0 -36 -16 -68 -55 -110c18 -6 19 -6 71 -30c29 -13 41 -17 57 -17c29 0 45 13 58 48l39 -29c-6 -24 -12 -37 -23 -51c-20 -24 -55 -41 -85 -41c-24 0 -49 8 -100 34c-56 28 -66 32 -86 32c-31 0 -50 -21 -50 -57h-70
c2 73 48 124 112 124h6c41 41 51 59 51 89c0 36 -14 61 -54 100h-112v49h70c-39 49 -51 77 -51 125c0 103 83 181 193 181c61 0 117 -26 152 -70c20 -26 27 -52 29 -98h-74c1 5 1 9 1 11c0 48 -52 91 -110 91c-61 0 -111 -49 -111 -109c0 -40 17 -73 68 -131z" />
    <glyph glyph-name="fraction" unicode="&#x2044;" horiz-adv-x="124" 
d="M307 648l-457 -661l-33 23l457 660z" />
    <glyph glyph-name="yen" unicode="&#xa5;" 
d="M141 428l-117 229h88l140 -288l137 288h87l-116 -229h96v-51h-121l-44 -88v-7h145v-51h-145v-231h-79v231h-148v51h148v7l-45 88h-123v51h97z" />
    <glyph glyph-name="florin" unicode="&#x192;" 
d="M233 412h-63l8 49h63l22 121c16 91 72 144 154 144c5 0 11 0 19 -1l-12 -68c-56 -6 -74 -22 -85 -75l-21 -121h71l-8 -49h-72l-65 -369c-17 -111 -82 -173 -183 -176l13 71c48 4 81 40 93 104z" />
    <glyph glyph-name="section" unicode="&#xa7;" 
d="M420 534h-71c-5 51 -42 84 -93 84s-91 -37 -91 -84c0 -23 10 -45 28 -61c20 -20 20 -20 100 -47c101 -34 151 -95 151 -183c0 -73 -37 -127 -108 -158c57 -40 78 -74 78 -129c0 -94 -72 -161 -173 -161c-109 0 -183 72 -183 178h71c3 -71 47 -116 114 -116
c58 0 100 41 100 96c0 27 -10 48 -33 67c-23 20 -33 24 -101 42c-102 28 -154 87 -154 176c0 85 40 143 119 170c-51 26 -79 72 -79 128c0 83 67 145 156 145c61 0 116 -26 145 -68c15 -23 22 -44 24 -79zM250 363c-68 0 -125 -54 -125 -120c0 -71 51 -121 124 -121
s124 50 124 122c0 63 -57 119 -123 119z" />
    <glyph glyph-name="currency" unicode="&#xa4;" horiz-adv-x="689" 
d="M66 109l92 93c-31 43 -47 91 -47 140s12 84 48 139l-95 94l45 45l95 -95c58 38 90 49 141 49c50 0 81 -11 138 -49l96 94l44 -44l-94 -94c35 -49 49 -90 49 -141c0 -49 -11 -81 -47 -137l94 -94l-45 -45l-93 94c-45 -34 -89 -49 -139 -49c-47 0 -90 14 -145 49l-93 -94z
M347 504c-91 0 -162 -71 -162 -162c0 -89 72 -161 159 -161c89 0 160 72 160 161s-71 162 -157 162z" />
    <glyph glyph-name="quotesingle" unicode="'" horiz-adv-x="186" 
d="M126 400h-65l-13 267h91z" />
    <glyph glyph-name="quotedblleft" unicode="&#x201c;" horiz-adv-x="403" 
d="M214 446l100 234l56 -20l-87 -238zM39 446l100 234l56 -20l-87 -239z" />
    <glyph glyph-name="guillemotleft" unicode="&#xab;" horiz-adv-x="415" 
d="M103 235l101 -164h-60l-101 164l101 171h60zM264 235l101 -164h-60l-100 164l100 171h60z" />
    <glyph glyph-name="guilsinglleft" unicode="&#x2039;" horiz-adv-x="254" 
d="M102 235l102 -164h-60l-101 164l101 171h60z" />
    <glyph glyph-name="guilsinglright" unicode="&#x203a;" horiz-adv-x="254" 
d="M151 242l-101 164h60l101 -164l-101 -171h-60z" />
    <glyph glyph-name="endash" unicode="&#x2013;" 
d="M430 274v-67h-359v67h359z" />
    <glyph glyph-name="dagger" unicode="&#x2020;" 
d="M217 667h67v-177h147v-60h-147v-641h-67v641h-147v60h147v177z" />
    <glyph glyph-name="daggerdbl" unicode="&#x2021;" 
d="M217 667h67v-179h147v-60h-147v-398h147v-60h-147v-181h-67v181h-147v60h147v398h-147v60h147v179z" />
    <glyph glyph-name="periodcentered" unicode="&#xb7;" horiz-adv-x="231" 
d="M115 295c30 0 52 -22 52 -53c0 -29 -23 -51 -52 -51c-30 0 -52 22 -52 52s22 52 52 52z" />
    <glyph glyph-name="paragraph" unicode="&#xb6;" 
d="M233 -105v413h-16c-106 0 -180 73 -180 178c0 65 31 124 82 154c30 17 73 27 122 27h180v-772h-53v735h-81v-735h-54z" />
    <glyph glyph-name="bullet" unicode="&#x2022;" horiz-adv-x="667" 
d="M337 477c74 0 136 -63 136 -138c0 -77 -62 -139 -138 -139s-139 62 -139 138c0 78 62 139 141 139z" />
    <glyph glyph-name="quotesinglbase" unicode="&#x201a;" horiz-adv-x="223" 
d="M185 76l-93 -209l-56 20l82 214z" />
    <glyph glyph-name="quotedblbase" unicode="&#x201e;" horiz-adv-x="403" 
d="M189 77l-101 -235l-55 20l86 238zM364 77l-101 -235l-56 20l87 239z" />
    <glyph glyph-name="quotedblright" unicode="&#x201d;" horiz-adv-x="403" 
d="M189 656l-101 -235l-55 20l86 239zM364 656l-101 -235l-56 20l87 239z" />
    <glyph glyph-name="guillemotright" unicode="&#xbb;" horiz-adv-x="415" 
d="M313 247l-101 164h60l100 -164l-100 -171h-60zM151 247l-101 164h60l101 -164l-101 -171h-60z" />
    <glyph glyph-name="ellipsis" unicode="&#x2026;" horiz-adv-x="692" 
d="M115 96c30 0 52 -22 52 -53c0 -29 -23 -51 -52 -51c-30 0 -52 22 -52 52s22 52 52 52zM346 96c30 0 52 -22 52 -53c0 -29 -23 -51 -52 -51c-30 0 -52 22 -52 52s22 52 52 52zM576 96c30 0 52 -22 52 -53c0 -29 -23 -51 -52 -51c-30 0 -52 22 -52 52s22 52 52 52z" />
    <glyph glyph-name="perthousand" unicode="&#x2030;" horiz-adv-x="897" 
d="M255 548v-108c0 -73 -36 -111 -104 -111c-34 0 -63 11 -81 32c-18 19 -22 35 -22 84v102c0 49 7 74 25 93s47 30 79 30c30 0 56 -10 76 -27c22 -22 27 -37 27 -95zM97 546v-92c0 -40 1 -46 9 -58c9 -13 26 -21 46 -21c21 0 39 9 47 24c6 11 8 22 8 52v103
c0 47 -17 69 -54 69c-20 0 -37 -7 -45 -18c-10 -12 -11 -20 -11 -59zM570 215v-108c0 -72 -36 -110 -104 -110c-34 0 -63 11 -82 32c-17 19 -21 34 -21 83v102c0 50 6 73 25 93c18 19 47 30 79 30c30 0 57 -10 76 -27c23 -22 27 -37 27 -95zM412 213v-92c0 -40 1 -45 9 -57
c9 -13 27 -21 46 -21c21 0 39 9 47 24c6 11 8 21 8 51v103c0 48 -17 69 -54 69c-20 0 -37 -7 -45 -18c-10 -12 -11 -20 -11 -59zM554 653l-457 -661l-33 23l457 660zM849 215v-108c0 -72 -36 -110 -104 -110c-34 0 -63 11 -82 32c-17 19 -21 34 -21 83v102c0 50 6 73 25 93
c18 19 47 30 79 30c30 0 57 -10 76 -27c23 -22 27 -37 27 -95zM691 213v-92c0 -41 1 -45 9 -57c9 -13 27 -21 46 -21c21 0 39 9 47 24c6 11 8 21 8 51v103c0 48 -17 69 -54 69c-20 0 -37 -7 -45 -18c-10 -12 -11 -20 -11 -59z" />
    <glyph glyph-name="questiondown" unicode="&#xbf;" horiz-adv-x="426" 
d="M207 298h74c1 -140 -5 -156 -85 -219c-55 -42 -72 -69 -72 -115c0 -60 42 -105 99 -105c55 0 96 39 96 92v13h73c-1 -109 -65 -175 -168 -175s-178 73 -178 174c0 66 28 113 100 167c54 41 61 54 61 122v46zM242 471c30 0 52 -22 52 -52s-22 -52 -52 -52s-52 22 -52 53
c0 29 23 51 52 51z" />
    <glyph glyph-name="grave" unicode="`" 
d="M207 660l82 -132h-54l-118 132h90z" />
    <glyph glyph-name="acute" unicode="&#xb4;" 
d="M294 660h89l-117 -132h-55z" />
    <glyph glyph-name="circumflex" unicode="&#x2c6;" 
d="M250 612l-73 -84h-65l104 133h72l101 -133h-66z" />
    <glyph glyph-name="tilde" unicode="&#x2dc;" 
d="M362 640l50 -18c-30 -60 -57 -84 -94 -84c-21 0 -38 7 -86 36c-16 10 -24 13 -33 13c-20 0 -34 -12 -47 -41l-51 23c28 54 57 78 95 78c25 0 47 -9 93 -39c12 -8 17 -10 26 -10c20 0 35 14 47 42z" />
    <glyph glyph-name="macron" unicode="&#xaf;" 
d="M386 624v-62h-272v62h272z" />
    <glyph glyph-name="breve" unicode="&#x2d8;" 
d="M101 655h62c19 -37 43 -51 87 -51c43 0 67 14 86 51h62c-17 -65 -71 -103 -148 -103s-132 38 -149 103z" />
    <glyph glyph-name="dotaccent" unicode="&#x2d9;" 
d="M250 640c27 0 47 -20 47 -48c0 -26 -20 -46 -47 -46s-47 20 -47 47s20 47 47 47z" />
    <glyph glyph-name="dieresis" unicode="&#xa8;" 
d="M150 640c27 0 47 -20 47 -48c0 -26 -20 -46 -47 -46s-47 20 -47 47s20 47 47 47zM350 640c27 0 47 -20 47 -48c0 -26 -20 -46 -47 -46s-47 20 -47 47s20 47 47 47z" />
    <glyph glyph-name="ring" unicode="&#x2da;" 
d="M251 677c45 0 79 -35 79 -81c0 -43 -36 -78 -80 -78c-45 0 -80 35 -80 79c0 45 35 80 81 80zM250 645c-27 0 -48 -20 -48 -48c0 -27 21 -47 48 -47s48 21 48 47c0 27 -20 48 -48 48z" />
    <glyph glyph-name="cedilla" unicode="&#xb8;" 
d="M201 -213l-32 34c51 30 81 67 99 126l63 -24c-31 -64 -67 -102 -130 -136z" />
    <glyph glyph-name="hungarumlaut" unicode="&#x2dd;" 
d="M210 659h83l-98 -131h-50zM357 659h83l-98 -131h-50z" />
    <glyph glyph-name="ogonek" unicode="&#x2db;" 
d="M237 0h53c-51 -42 -62 -56 -62 -84c0 -26 22 -43 55 -43c10 0 19 1 36 6l9 -46c-22 -8 -34 -10 -54 -10c-60 0 -102 33 -102 79c0 37 22 71 65 98z" />
    <glyph glyph-name="caron" unicode="&#x2c7;" 
d="M251 577l73 84h65l-104 -133h-72l-101 133h66z" />
    <glyph glyph-name="emdash" unicode="&#x2014;" horiz-adv-x="622" 
d="M622 274v-64h-622v64h622z" />
    <glyph glyph-name="AE" unicode="&#xc6;" horiz-adv-x="813" 
d="M504 300v-228h260v-72h-344v167h-242l-93 -167h-89l373 667h395v-72h-260v-223h260v-72h-260zM420 237v369l-204 -369h204z" />
    <glyph glyph-name="ordfeminine" unicode="&#xaa;" horiz-adv-x="375" 
d="M268 508v37h55v-278h-55v44c-25 -33 -60 -50 -100 -50c-80 0 -138 60 -138 144c0 85 59 146 140 146c40 0 74 -15 98 -43zM177 504c-53 0 -89 -40 -89 -100c0 -55 38 -97 88 -97c51 0 93 46 93 102s-37 95 -92 95z" />
    <glyph glyph-name="Lslash" unicode="&#x141;" horiz-adv-x="427" 
d="M83 345v322h84v-277l111 82v-78l-111 -82v-236h235v-76h-319v268l-68 -52v78z" />
    <glyph glyph-name="Oslash" unicode="&#xd8;" horiz-adv-x="740" 
d="M152 74l-75 -79l-27 26l75 80c-59 73 -81 134 -81 228c0 104 33 191 97 254c62 61 145 96 229 96c81 0 154 -29 220 -86l70 76l28 -27l-71 -76c58 -80 79 -140 79 -230c0 -200 -141 -348 -331 -348c-81 0 -142 25 -213 86zM559 506l-351 -376c49 -44 99 -65 159 -65
c142 0 243 113 243 272c0 69 -14 114 -51 169zM182 160l351 376c-51 44 -104 66 -161 66c-140 0 -242 -113 -242 -269c0 -70 16 -121 52 -173z" />
    <glyph glyph-name="OE" unicode="&#x152;" horiz-adv-x="998" 
d="M689 300v-228h259v-72h-342v115c-30 -42 -47 -60 -82 -81c-49 -31 -103 -46 -159 -46c-86 0 -171 36 -230 99c-56 60 -89 152 -89 250c0 200 136 342 325 342c101 0 174 -37 235 -119v107h342v-72h-259v-223h259v-72h-259zM374 601c-144 0 -242 -108 -242 -266
c0 -155 101 -269 237 -269c68 0 134 30 178 82c37 43 61 114 61 181c0 163 -93 272 -234 272z" />
    <glyph glyph-name="ordmasculine" unicode="&#xba;" horiz-adv-x="357" 
d="M179 552c87 0 149 -61 149 -147c0 -81 -66 -145 -150 -145c-88 0 -149 61 -149 146c0 87 61 146 150 146zM179 504c-56 0 -94 -39 -94 -98s37 -98 94 -98c54 0 93 41 93 98c0 59 -37 98 -93 98z" />
    <glyph glyph-name="ae" unicode="&#xe6;" horiz-adv-x="927" 
d="M803 139l65 -27c-43 -81 -112 -123 -204 -123c-73 0 -122 27 -159 88v-77h-75v85c-43 -65 -97 -96 -170 -96c-131 0 -221 98 -221 241c0 141 91 242 218 242c72 0 128 -28 173 -86v75h75v-75c23 35 37 48 64 62c29 16 62 24 99 24c67 0 123 -25 164 -72
c39 -45 62 -106 62 -165c0 -8 0 -16 -1 -29h-388c7 -45 15 -67 37 -92c28 -34 73 -55 118 -55c58 0 105 27 143 80zM505 262h309c-13 89 -70 142 -153 142c-51 0 -99 -23 -127 -62c-16 -22 -23 -41 -29 -80zM275 404c-58 0 -98 -21 -126 -67c-20 -31 -30 -70 -30 -109
c0 -99 67 -173 155 -173s156 77 156 177c0 102 -63 172 -155 172z" />
    <glyph glyph-name="dotlessi" unicode="&#x131;" horiz-adv-x="229" 
d="M152 461v-461h-76v461h76z" />
    <glyph glyph-name="lslash" unicode="&#x142;" horiz-adv-x="233" 
d="M78 369v298h76v-256l68 51v-71l-68 -50v-341h-76v299l-67 -51v71z" />
    <glyph glyph-name="oslash" unicode="&#xf8;" horiz-adv-x="548" 
d="M119 43l-53 -56l-28 27l54 56c-38 52 -53 96 -53 160c0 142 96 242 232 242c58 0 108 -17 154 -52l60 63l27 -27l-60 -62c41 -54 56 -99 56 -162c0 -142 -99 -243 -238 -243c-57 0 -106 17 -151 54zM399 340l-227 -243c30 -25 64 -38 103 -38c91 0 156 72 156 173
c0 42 -8 70 -32 108zM146 125l226 242c-30 24 -61 35 -100 35c-93 0 -157 -70 -157 -172c0 -42 8 -70 31 -105z" />
    <glyph glyph-name="oe" unicode="&#x153;" horiz-adv-x="923" 
d="M810 139l61 -26c-21 -38 -35 -55 -62 -75c-41 -31 -93 -49 -143 -49c-49 0 -101 17 -141 47c-26 18 -38 34 -57 74c-19 -40 -31 -55 -61 -77c-40 -29 -86 -44 -136 -44c-135 0 -232 100 -232 240c0 143 96 243 233 243c51 0 97 -14 136 -42c28 -20 41 -36 60 -73
c23 41 37 57 68 77c38 25 83 38 128 38c113 0 202 -75 224 -188c4 -23 5 -38 5 -79h-385c4 -42 12 -64 33 -89c30 -35 77 -57 123 -57c33 0 73 12 100 30c17 11 27 23 46 50zM507 261h311c-5 39 -11 57 -27 80c-28 40 -76 63 -129 63c-48 0 -89 -18 -119 -55
c-22 -26 -30 -46 -36 -88zM275 402c-92 0 -158 -71 -158 -170c0 -102 65 -173 159 -173c91 0 157 72 157 169c0 102 -66 174 -158 174z" />
    <glyph glyph-name="germandbls" unicode="&#xdf;" horiz-adv-x="495" 
d="M82 394h-53v67h53v57c0 96 62 153 167 153c100 0 167 -59 167 -149c0 -30 -11 -66 -28 -89c-13 -19 -28 -29 -62 -45c38 -9 56 -18 78 -40c35 -35 53 -83 53 -142c0 -129 -72 -214 -180 -214c-33 0 -52 5 -78 19l20 62c26 -8 37 -10 53 -10c65 0 109 57 109 141
c0 91 -44 136 -135 139v73c30 4 43 8 57 19c22 16 36 47 36 78c0 52 -38 89 -89 89c-30 0 -59 -12 -75 -31c-12 -15 -17 -35 -17 -65v-506h-76v394z" />
    <glyph glyph-name="onesuperior" unicode="&#xb9;" horiz-adv-x="328" 
d="M166 581l-92 -57v53l149 92v-406h-57v318z" />
    <glyph glyph-name="logicalnot" unicode="&#xac;" 
d="M385 0v205h-352v73h433v-278h-81z" />
    <glyph glyph-name="mu" unicode="&#xb5;" 
d="M50 -166v646h72v-271c0 -66 7 -91 32 -119c24 -27 57 -42 91 -42c80 0 134 70 134 171v261h71v-480h-71v91c-28 -71 -71 -104 -135 -104c-54 0 -90 22 -122 74v-227h-72z" />
    <glyph glyph-name="trademark" unicode="&#x2122;" horiz-adv-x="828" 
d="M177 618v-351h-60v351h-105v49h270v-49h-105zM412 542v-275h-60v400h58l151 -290l151 290h58v-400h-60v275l-149 -284z" />
    <glyph glyph-name="Eth" unicode="&#xd0;" horiz-adv-x="626" 
d="M83 372v295h177c201 0 322 -122 322 -324c0 -112 -37 -206 -105 -266c-58 -52 -135 -77 -232 -77h-162v304h-75v68h75zM167 372h163v-68h-163v-232h30c113 0 162 12 209 50c60 47 90 122 90 220c0 162 -86 254 -238 254h-91v-224z" />
    <glyph glyph-name="onehalf" unicode="&#xbd;" horiz-adv-x="780" 
d="M165 581l-91 -57v53l148 92v-406h-57v318zM635 648l-457 -661l-33 23l457 660zM582 51h142v-51h-244l148 201c43 57 51 73 51 96c0 32 -27 54 -65 54c-45 0 -63 -21 -64 -73h-55c3 80 45 123 122 123c70 0 119 -42 119 -101c0 -33 -13 -64 -48 -109z" />
    <glyph glyph-name="plusminus" unicode="&#xb1;" 
d="M22 375h205v193h46v-193h205v-44h-205v-189h-46v189h-205v44zM22 97h456v-44h-456v44z" />
    <glyph glyph-name="Thorn" unicode="&#xde;" horiz-adv-x="531" 
d="M162 171v-171h-84v667h84v-84h94c158 0 245 -72 245 -204c0 -66 -26 -125 -71 -162c-39 -31 -91 -46 -165 -46h-103zM162 243h87c36 0 60 3 83 12c51 18 84 65 84 122s-32 103 -85 121c-26 9 -53 13 -93 13h-76v-268z" />
    <glyph glyph-name="onequarter" unicode="&#xbc;" horiz-adv-x="780" 
d="M165 581l-91 -57v53l148 92v-406h-57v318zM635 648l-457 -661l-33 23l457 660zM646 88h-165v41l221 282v-273h49v-50h-49v-88h-56v88zM647 137v138l-106 -138h106z" />
    <glyph glyph-name="divide" unicode="&#xf7;" 
d="M22 364h456v-44h-456v44zM251 565c21 0 39 -18 39 -40s-18 -40 -40 -40s-40 18 -40 40s18 40 41 40zM250 198c22 0 40 -18 40 -40s-18 -40 -40 -40s-40 18 -40 40s18 40 40 40z" />
    <glyph glyph-name="brokenbar" unicode="&#xa6;" 
d="M208 667h83v-336h-83v336zM208 153h83v-320h-83v320z" />
    <glyph glyph-name="degree" unicode="&#xb0;" 
d="M252 664c78 0 141 -64 141 -144c0 -77 -64 -141 -142 -141c-79 0 -143 64 -143 143s64 142 144 142zM249 626c-56 0 -102 -47 -102 -104c0 -58 47 -105 104 -105c56 0 103 47 103 102c0 60 -46 107 -105 107z" />
    <glyph glyph-name="thorn" unicode="&#xfe;" horiz-adv-x="574" 
d="M74 667h76v-290c44 68 91 95 168 95c128 0 217 -98 217 -238c0 -145 -89 -245 -217 -245c-36 0 -69 8 -101 24c-28 14 -42 26 -67 59v-288h-76v883zM305 404c-92 0 -155 -73 -155 -181c0 -101 61 -168 152 -168s152 71 152 176c0 54 -13 95 -40 125s-68 48 -109 48z" />
    <glyph glyph-name="threequarters" unicode="&#xbe;" horiz-adv-x="780" 
d="M189 607h-140v50h248l-123 -147c69 -2 120 -54 120 -122c0 -76 -60 -132 -141 -132c-70 0 -117 36 -132 101l52 9c11 -38 38 -59 77 -59c49 0 87 34 87 78c0 45 -36 76 -88 76c-20 0 -32 -3 -51 -14l-25 21zM635 648l-458 -661l-33 23l458 660zM646 88h-166v41l222 282
v-273h48v-50h-48v-88h-56v88zM647 137v138l-106 -138h106z" />
    <glyph glyph-name="twosuperior" unicode="&#xb2;" horiz-adv-x="328" 
d="M129 313h142v-51h-244l148 202c42 57 51 74 51 96c0 32 -27 55 -66 55c-44 0 -62 -22 -63 -74h-55c3 81 45 124 122 124c70 0 119 -42 119 -101c0 -34 -13 -65 -48 -110z" />
    <glyph glyph-name="registered" unicode="&#xae;" horiz-adv-x="782" 
d="M243 527h165c90 0 139 -38 139 -108c0 -45 -24 -78 -71 -95c51 -17 64 -42 66 -125c2 -41 4 -52 10 -64h-51c-6 10 -8 22 -11 73c-3 52 -9 70 -27 82c-16 11 -40 16 -75 16h-92v-171h-53v392zM296 491v-151h95c69 0 103 25 103 76s-30 75 -95 75h-103zM395 679
c186 0 340 -157 340 -346c0 -190 -154 -345 -344 -345s-345 155 -345 345c0 193 154 346 349 346zM395 639c-171 0 -305 -135 -305 -306c0 -168 135 -305 301 -305c165 0 300 137 300 305c0 167 -134 306 -296 306z" />
    <glyph glyph-name="minus" unicode="&#x2212;" 
d="M22 364h456v-44h-456v44z" />
    <glyph glyph-name="eth" unicode="&#xf0;" horiz-adv-x="549" 
d="M180 560l89 49c-24 22 -79 60 -101 69l24 31c33 -11 88 -44 124 -74l103 56l22 -38l-87 -47c98 -92 156 -224 156 -353c0 -84 -24 -152 -71 -197c-43 -43 -103 -67 -167 -67c-137 0 -233 100 -233 243c0 141 97 240 234 240c43 0 75 -9 120 -34c-16 46 -51 100 -91 140
l-101 -57zM273 402c-92 0 -156 -70 -156 -170c0 -104 63 -173 156 -173c94 0 158 71 158 174c0 100 -65 169 -158 169z" />
    <glyph glyph-name="multiply" unicode="&#xd7;" 
d="M92 531l157 -158l158 159l32 -32l-158 -158l158 -158l-31 -31l-158 158l-158 -159l-32 32l159 158l-158 158z" />
    <glyph glyph-name="threesuperior" unicode="&#xb3;" horiz-adv-x="328" 
d="M189 607h-140v50h248l-123 -147c69 -2 120 -54 120 -122c0 -76 -60 -132 -141 -132c-70 0 -117 36 -132 101l52 9c11 -38 38 -59 77 -59c49 0 87 34 87 78c0 45 -36 76 -88 76c-20 0 -32 -3 -51 -14l-25 21z" />
    <glyph glyph-name="copyright" unicode="&#xa9;" horiz-adv-x="782" 
d="M532 296h43c-8 -100 -80 -166 -182 -166c-114 0 -191 82 -191 204c0 121 79 205 194 205c92 0 165 -58 172 -138h-42c-13 57 -62 92 -130 92c-84 0 -140 -63 -140 -159s55 -158 139 -158c75 0 127 45 137 120zM395 679c186 0 340 -157 340 -346
c0 -190 -154 -345 -344 -345s-345 155 -345 345c0 193 154 346 349 346zM395 639c-171 0 -305 -135 -305 -306c0 -168 135 -305 301 -305c165 0 300 137 300 305c0 167 -134 306 -296 306z" />
    <glyph glyph-name="Aacute" unicode="&#xc1;" horiz-adv-x="606" 
d="M452 154h-299l-61 -154h-87l251 667h100l245 -667h-94zM426 226l-122 335l-126 -335h248zM348 850h92l-121 -131h-60z" />
    <glyph glyph-name="Acircumflex" unicode="&#xc2;" horiz-adv-x="606" 
d="M452 154h-299l-61 -154h-87l251 667h100l245 -667h-94zM426 226l-122 335l-126 -335h248zM303 802l-75 -83h-66l108 133h70l104 -133h-65z" />
    <glyph glyph-name="Adieresis" unicode="&#xc4;" horiz-adv-x="606" 
d="M452 154h-299l-61 -154h-87l251 667h100l245 -667h-94zM426 226l-122 335l-126 -335h248zM201 838c29 0 51 -23 51 -52c0 -28 -23 -50 -51 -50c-29 0 -51 22 -51 51s22 51 51 51zM405 838c29 0 51 -22 51 -52c0 -28 -23 -50 -51 -50c-29 0 -51 22 -51 51s22 51 51 51z
" />
    <glyph glyph-name="Agrave" unicode="&#xc0;" horiz-adv-x="606" 
d="M452 154h-299l-61 -154h-87l251 667h100l245 -667h-94zM426 226l-122 335l-126 -335h248zM258 850l88 -131h-59l-121 131h92z" />
    <glyph glyph-name="Aring" unicode="&#xc5;" horiz-adv-x="606" 
d="M452 154h-299l-61 -154h-87l251 667h100l245 -667h-94zM426 226l-122 335l-126 -335h248zM304 868c45 0 79 -35 79 -81c0 -43 -36 -78 -80 -78c-45 0 -80 35 -80 80c0 44 35 79 81 79zM304 836c-28 0 -49 -20 -49 -48c0 -26 21 -47 48 -47s48 21 48 47
c0 27 -21 48 -47 48z" />
    <glyph glyph-name="Atilde" unicode="&#xc3;" horiz-adv-x="606" 
d="M452 154h-299l-61 -154h-87l251 667h100l245 -667h-94zM426 226l-122 335l-126 -335h248zM415 834l54 -21c-32 -60 -60 -83 -98 -83c-20 0 -30 3 -71 24c-22 11 -39 17 -49 17c-20 0 -35 -13 -47 -42l-54 16c30 65 56 89 95 89c18 0 34 -5 76 -27c28 -13 37 -17 46 -17
c19 0 35 15 48 44z" />
    <glyph glyph-name="Ccedilla" unicode="&#xc7;" horiz-adv-x="630" 
d="M550 157l56 -56c-67 -79 -141 -113 -244 -113c-93 0 -172 34 -229 98c-56 63 -89 154 -89 247c0 200 135 346 319 346c100 0 172 -34 245 -114l-58 -54c-64 67 -114 91 -185 91c-136 0 -235 -113 -235 -269c0 -155 101 -268 239 -268c73 0 129 28 181 92zM285 -209
l-43 34c51 32 77 66 90 118l78 -27c-21 -51 -60 -89 -125 -125z" />
    <glyph glyph-name="Eacute" unicode="&#xc9;" horiz-adv-x="473" 
d="M159 595v-223h263v-72h-263v-228h263v-72h-347v667h347v-72h-263zM282 850h91l-120 -131h-60z" />
    <glyph glyph-name="Ecircumflex" unicode="&#xca;" horiz-adv-x="473" 
d="M159 595v-223h263v-72h-263v-228h263v-72h-347v667h347v-72h-263zM237 802l-75 -83h-67l109 133h70l104 -133h-66z" />
    <glyph glyph-name="Edieresis" unicode="&#xcb;" horiz-adv-x="473" 
d="M159 595v-223h263v-72h-263v-228h263v-72h-347v667h347v-72h-263zM134 838c29 0 51 -23 51 -52c0 -28 -23 -50 -51 -50c-29 0 -51 22 -51 51s22 51 51 51zM338 838c29 0 51 -23 51 -52c0 -28 -23 -50 -51 -50c-29 0 -51 22 -51 51s22 51 51 51z" />
    <glyph glyph-name="Egrave" unicode="&#xc8;" horiz-adv-x="473" 
d="M159 595v-223h263v-72h-263v-228h263v-72h-347v667h347v-72h-263zM191 850l89 -131h-60l-120 131h91z" />
    <glyph glyph-name="Iacute" unicode="&#xcd;" horiz-adv-x="250" 
d="M167 667v-667h-84v667h84zM171 850h91l-120 -131h-60z" />
    <glyph glyph-name="Icircumflex" unicode="&#xce;" horiz-adv-x="250" 
d="M167 667v-667h-84v667h84zM126 802l-76 -83h-66l109 133h69l104 -133h-65z" />
    <glyph glyph-name="Idieresis" unicode="&#xcf;" horiz-adv-x="250" 
d="M167 667v-667h-84v667h84zM51 838c29 0 51 -23 51 -52c0 -28 -23 -50 -51 -50c-29 0 -51 22 -51 51s22 51 51 51zM199 838c29 0 51 -23 51 -52c0 -28 -23 -50 -51 -50c-29 0 -51 22 -51 51s22 51 51 51z" />
    <glyph glyph-name="Igrave" unicode="&#xcc;" horiz-adv-x="250" 
d="M167 667v-667h-84v667h84zM80 850l88 -131h-60l-120 131h92z" />
    <glyph glyph-name="Ntilde" unicode="&#xd1;" horiz-adv-x="683" 
d="M167 510v-510h-84v667h77l356 -502v502h84v-667h-74zM453 834l55 -21c-33 -60 -61 -83 -99 -83c-19 0 -30 3 -70 24c-22 11 -39 17 -49 17c-21 0 -36 -13 -47 -42l-55 16c31 65 56 89 95 89c19 0 34 -5 77 -27c27 -13 37 -17 45 -17c19 0 36 15 48 44z" />
    <glyph glyph-name="Oacute" unicode="&#xd3;" horiz-adv-x="742" 
d="M374 679c93 0 182 -42 246 -115c54 -63 78 -137 78 -237c0 -104 -40 -197 -113 -259c-60 -52 -136 -80 -213 -80c-99 0 -196 47 -258 125c-46 58 -70 133 -70 217c0 199 141 349 330 349zM372 601c-139 0 -242 -114 -242 -268c0 -155 102 -268 240 -268
c67 0 133 29 178 80c39 43 64 115 64 183c0 89 -24 154 -76 204c-44 43 -105 69 -164 69zM416 850h92l-120 -131h-60z" />
    <glyph glyph-name="Ocircumflex" unicode="&#xd4;" horiz-adv-x="742" 
d="M374 679c93 0 182 -42 246 -115c54 -63 78 -137 78 -237c0 -104 -40 -197 -113 -259c-60 -52 -136 -80 -213 -80c-99 0 -196 47 -258 125c-46 58 -70 133 -70 217c0 199 141 349 330 349zM372 601c-139 0 -242 -114 -242 -268c0 -155 102 -268 240 -268
c67 0 133 29 178 80c39 43 64 115 64 183c0 89 -24 154 -76 204c-44 43 -105 69 -164 69zM372 802l-75 -83h-67l109 133h69l104 -133h-65z" />
    <glyph glyph-name="Odieresis" unicode="&#xd6;" horiz-adv-x="742" 
d="M374 679c93 0 182 -42 246 -115c54 -63 78 -137 78 -237c0 -104 -40 -197 -113 -259c-60 -52 -136 -80 -213 -80c-99 0 -196 47 -258 125c-46 58 -70 133 -70 217c0 199 141 349 330 349zM372 601c-139 0 -242 -114 -242 -268c0 -155 102 -268 240 -268
c67 0 133 29 178 80c39 43 64 115 64 183c0 89 -24 154 -76 204c-44 43 -105 69 -164 69zM269 838c29 0 51 -23 51 -52c0 -28 -23 -50 -51 -50c-29 0 -51 22 -51 51s22 51 51 51zM473 838c29 0 51 -23 51 -52c0 -28 -23 -50 -51 -50c-29 0 -51 22 -51 51s22 51 51 51z" />
    <glyph glyph-name="Ograve" unicode="&#xd2;" horiz-adv-x="742" 
d="M374 679c93 0 182 -42 246 -115c54 -63 78 -137 78 -237c0 -104 -40 -197 -113 -259c-60 -52 -136 -80 -213 -80c-99 0 -196 47 -258 125c-46 58 -70 133 -70 217c0 199 141 349 330 349zM372 601c-139 0 -242 -114 -242 -268c0 -155 102 -268 240 -268
c67 0 133 29 178 80c39 43 64 115 64 183c0 89 -24 154 -76 204c-44 43 -105 69 -164 69zM326 850l89 -131h-60l-121 131h92z" />
    <glyph glyph-name="Otilde" unicode="&#xd5;" horiz-adv-x="742" 
d="M374 679c93 0 182 -42 246 -115c54 -63 78 -137 78 -237c0 -104 -40 -197 -113 -259c-60 -52 -136 -80 -213 -80c-99 0 -196 47 -258 125c-46 58 -70 133 -70 217c0 199 141 349 330 349zM372 601c-139 0 -242 -114 -242 -268c0 -155 102 -268 240 -268
c67 0 133 29 178 80c39 43 64 115 64 183c0 89 -24 154 -76 204c-44 43 -105 69 -164 69zM483 834l55 -21c-33 -60 -61 -83 -99 -83c-19 0 -30 3 -70 24c-22 11 -40 17 -49 17c-21 0 -36 -13 -47 -42l-55 16c31 65 56 89 95 89c18 0 34 -5 77 -27c27 -13 37 -17 45 -17
c19 0 36 15 48 44z" />
    <glyph glyph-name="Scaron" unicode="&#x160;" horiz-adv-x="490" 
d="M38 179h80c4 -76 45 -116 118 -116c75 0 128 46 128 113c0 58 -30 85 -135 120c-79 27 -105 40 -135 67c-34 31 -52 75 -52 126c0 113 81 190 199 190s195 -75 198 -191h-84c-1 34 -5 50 -16 69c-19 29 -56 47 -99 47c-66 0 -113 -45 -113 -109c0 -32 14 -60 38 -77
c21 -15 39 -23 107 -47c71 -25 105 -43 132 -72c29 -31 45 -73 45 -118c0 -115 -85 -193 -210 -193c-85 0 -143 30 -178 90c-16 27 -23 55 -23 87v14zM245 769l75 83h67l-109 -133h-70l-103 133h65z" />
    <glyph glyph-name="Uacute" unicode="&#xda;" horiz-adv-x="636" 
d="M155 667v-397c0 -85 12 -128 44 -160c28 -27 76 -45 118 -45s89 19 118 49c36 35 45 69 45 158v395h86v-395c0 -100 -16 -157 -59 -205c-45 -51 -112 -79 -188 -79c-78 0 -149 30 -194 84c-41 47 -54 96 -54 200v395h84zM364 850h92l-121 -131h-60z" />
    <glyph glyph-name="Ucircumflex" unicode="&#xdb;" horiz-adv-x="636" 
d="M155 667v-397c0 -85 12 -128 44 -160c28 -27 76 -45 118 -45s89 19 118 49c36 35 45 69 45 158v395h86v-395c0 -100 -16 -157 -59 -205c-45 -51 -112 -79 -188 -79c-78 0 -149 30 -194 84c-41 47 -54 96 -54 200v395h84zM319 802l-75 -83h-66l108 133h70l104 -133h-66z
" />
    <glyph glyph-name="Udieresis" unicode="&#xdc;" horiz-adv-x="636" 
d="M155 667v-397c0 -85 12 -128 44 -160c28 -27 76 -45 118 -45s89 19 118 49c36 35 45 69 45 158v395h86v-395c0 -100 -16 -157 -59 -205c-45 -51 -112 -79 -188 -79c-78 0 -149 30 -194 84c-41 47 -54 96 -54 200v395h84zM216 838c29 0 51 -23 51 -52
c0 -28 -23 -50 -51 -50c-29 0 -51 22 -51 51s22 51 51 51zM421 838c29 0 51 -22 51 -52c0 -28 -23 -50 -51 -50c-29 0 -51 22 -51 51s22 51 51 51z" />
    <glyph glyph-name="Ugrave" unicode="&#xd9;" horiz-adv-x="636" 
d="M155 667v-397c0 -85 12 -128 44 -160c28 -27 76 -45 118 -45s89 19 118 49c36 35 45 69 45 158v395h86v-395c0 -100 -16 -157 -59 -205c-45 -51 -112 -79 -188 -79c-78 0 -149 30 -194 84c-41 47 -54 96 -54 200v395h84zM274 850l88 -131h-60l-120 131h92z" />
    <glyph glyph-name="Yacute" unicode="&#xdd;" horiz-adv-x="529" 
d="M308 294v-294h-84v294l-230 373h99l172 -286l170 286h100zM310 850h91l-120 -131h-60z" />
    <glyph glyph-name="Ydieresis" unicode="&#x178;" horiz-adv-x="529" 
d="M308 294v-294h-84v294l-230 373h99l172 -286l170 286h100zM162 838c29 0 51 -23 51 -52c0 -28 -23 -50 -51 -50c-29 0 -51 22 -51 51s22 51 51 51zM367 838c29 0 51 -23 51 -52c0 -28 -23 -50 -51 -50c-29 0 -51 22 -51 51s22 51 51 51z" />
    <glyph glyph-name="Zcaron" unicode="&#x17d;" horiz-adv-x="539" 
d="M152 72h338v-72h-477l378 595h-336v72h474zM268 769l76 83h66l-109 -133h-69l-104 133h65z" />
    <glyph glyph-name="aacute" unicode="&#xe1;" horiz-adv-x="577" 
d="M424 385v76h76v-461h-76v89c-46 -69 -98 -100 -168 -100c-127 0 -217 100 -217 240c0 141 92 243 219 243c70 0 121 -27 166 -87zM269 404c-50 0 -85 -17 -112 -55c-24 -33 -38 -77 -38 -122c0 -98 64 -172 148 -172c87 0 158 81 158 180c0 100 -64 169 -156 169z
M331 660h90l-118 -132h-54z" />
    <glyph glyph-name="acircumflex" unicode="&#xe2;" horiz-adv-x="577" 
d="M424 385v76h76v-461h-76v89c-46 -69 -98 -100 -168 -100c-127 0 -217 100 -217 240c0 141 92 243 219 243c70 0 121 -27 166 -87zM269 404c-50 0 -85 -17 -112 -55c-24 -33 -38 -77 -38 -122c0 -98 64 -172 148 -172c87 0 158 81 158 180c0 100 -64 169 -156 169z
M288 612l-73 -84h-65l103 133h72l102 -133h-66z" />
    <glyph glyph-name="adieresis" unicode="&#xe4;" horiz-adv-x="577" 
d="M424 385v76h76v-461h-76v89c-46 -69 -98 -100 -168 -100c-127 0 -217 100 -217 240c0 141 92 243 219 243c70 0 121 -27 166 -87zM269 404c-50 0 -85 -17 -112 -55c-24 -33 -38 -77 -38 -122c0 -98 64 -172 148 -172c88 0 158 81 158 180c0 100 -64 169 -156 169z
M193 640c27 0 47 -20 47 -48c0 -26 -20 -46 -47 -46s-47 20 -47 47s20 47 47 47zM393 640c27 0 47 -20 47 -48c0 -26 -20 -46 -47 -46s-47 20 -47 47s20 47 47 47z" />
    <glyph glyph-name="agrave" unicode="&#xe0;" horiz-adv-x="577" 
d="M424 385v76h76v-461h-76v89c-46 -69 -98 -100 -168 -100c-127 0 -217 100 -217 240c0 141 92 243 219 243c70 0 121 -27 166 -87zM269 404c-50 0 -85 -17 -112 -55c-24 -33 -38 -77 -38 -122c0 -98 64 -172 148 -172c87 0 158 81 158 180c0 100 -64 169 -156 169z
M245 660l83 -132h-55l-118 132h90z" />
    <glyph glyph-name="aring" unicode="&#xe5;" horiz-adv-x="577" 
d="M424 385v76h76v-461h-76v89c-46 -69 -98 -100 -168 -100c-127 0 -217 100 -217 240c0 141 92 243 219 243c70 0 121 -27 166 -87zM269 404c-50 0 -85 -17 -112 -55c-24 -33 -38 -77 -38 -122c0 -98 64 -172 148 -172c88 0 158 81 158 180c0 100 -64 169 -156 169z
M273 677c45 0 80 -35 80 -81c0 -43 -36 -78 -80 -78c-46 0 -81 35 -81 79c0 45 35 80 81 80zM273 645c-28 0 -49 -20 -49 -48c0 -27 21 -47 49 -47c27 0 48 21 48 47c0 27 -21 48 -48 48z" />
    <glyph glyph-name="atilde" unicode="&#xe3;" horiz-adv-x="577" 
d="M424 385v76h76v-461h-76v89c-46 -69 -98 -100 -168 -100c-127 0 -217 100 -217 240c0 141 92 243 219 243c70 0 121 -27 166 -87zM269 404c-50 0 -85 -17 -112 -55c-24 -33 -38 -77 -38 -122c0 -98 64 -172 148 -172c87 0 158 81 158 180c0 100 -64 169 -156 169z
M400 640l50 -18c-30 -60 -57 -84 -94 -84c-21 0 -37 7 -86 36c-15 10 -24 13 -33 13c-20 0 -34 -12 -47 -41l-51 23c28 54 58 78 95 78c25 0 47 -9 93 -39c12 -8 18 -10 27 -10c19 0 34 14 46 42z" />
    <glyph glyph-name="ccedilla" unicode="&#xe7;" horiz-adv-x="457" 
d="M388 109l47 -52c-52 -47 -103 -68 -170 -68c-132 0 -226 100 -226 240c0 143 95 243 230 243c66 0 120 -22 168 -69l-49 -49c-35 32 -74 48 -117 48c-91 0 -154 -70 -154 -170c0 -102 63 -173 153 -173c45 0 81 15 118 50zM189 -213l-32 34c51 30 81 68 99 126l63 -24
c-31 -64 -67 -102 -130 -136z" />
    <glyph glyph-name="eacute" unicode="&#xe9;" horiz-adv-x="539" 
d="M504 206h-384c4 -39 11 -59 30 -84c30 -41 74 -63 124 -63c57 0 111 31 138 79l67 -25c-38 -77 -117 -124 -205 -124c-137 0 -235 100 -235 240c0 142 97 243 232 243c134 0 234 -101 234 -236c0 -6 0 -19 -1 -30zM121 262h303c-3 36 -10 56 -26 79
c-29 39 -76 63 -127 63s-97 -24 -124 -64c-14 -22 -20 -41 -26 -78zM313 660h89l-117 -132h-55z" />
    <glyph glyph-name="ecircumflex" unicode="&#xea;" horiz-adv-x="539" 
d="M504 206h-384c4 -39 11 -59 30 -84c30 -41 74 -63 124 -63c57 0 111 31 138 79l67 -25c-38 -77 -117 -124 -205 -124c-137 0 -235 100 -235 240c0 142 97 243 232 243c134 0 234 -101 234 -236c0 -6 0 -19 -1 -30zM121 262h303c-3 36 -10 56 -26 79
c-29 39 -76 63 -127 63s-97 -24 -124 -64c-14 -22 -20 -41 -26 -78zM269 612l-73 -84h-65l104 133h72l101 -133h-66z" />
    <glyph glyph-name="edieresis" unicode="&#xeb;" horiz-adv-x="539" 
d="M504 206h-384c4 -39 11 -59 30 -84c30 -41 74 -63 124 -63c57 0 111 31 138 79l67 -25c-38 -77 -117 -124 -205 -124c-137 0 -235 100 -235 240c0 142 97 243 232 243c134 0 234 -101 234 -236c0 -6 0 -19 -1 -30zM121 262h303c-3 36 -10 56 -26 79
c-29 39 -76 63 -127 63s-97 -24 -124 -64c-14 -22 -20 -41 -26 -78zM169 640c27 0 47 -20 47 -48c0 -26 -20 -46 -47 -46s-47 20 -47 47s20 47 47 47zM369 640c27 0 47 -20 47 -48c0 -26 -20 -46 -47 -46s-47 20 -47 47s20 47 47 47z" />
    <glyph glyph-name="egrave" unicode="&#xe8;" horiz-adv-x="539" 
d="M504 206h-384c4 -39 11 -59 30 -84c30 -41 74 -63 124 -63c57 0 111 31 138 79l67 -25c-38 -77 -117 -124 -205 -124c-137 0 -235 100 -235 240c0 142 97 243 232 243c134 0 234 -101 234 -236c0 -6 0 -19 -1 -30zM121 262h303c-3 36 -10 56 -26 79
c-29 39 -76 63 -127 63s-97 -24 -124 -64c-14 -22 -20 -41 -26 -78zM226 660l83 -132h-55l-117 132h89z" />
    <glyph glyph-name="iacute" unicode="&#xed;" horiz-adv-x="229" 
d="M152 461v-461h-76v461h76zM158 660h89l-117 -132h-55z" />
    <glyph glyph-name="icircumflex" unicode="&#xee;" horiz-adv-x="229" 
d="M152 461v-461h-76v461h76zM114 612l-73 -84h-65l104 133h72l101 -133h-66z" />
    <glyph glyph-name="idieresis" unicode="&#xef;" horiz-adv-x="229" 
d="M152 461v-461h-76v461h76zM45 640c27 0 47 -20 47 -48c0 -26 -20 -46 -47 -46s-47 20 -47 47s20 47 47 47zM184 640c27 0 47 -20 47 -48c0 -26 -20 -46 -47 -46s-47 20 -47 47s20 47 47 47z" />
    <glyph glyph-name="igrave" unicode="&#xec;" horiz-adv-x="229" 
d="M153 461v-461h-76v461h76zM72 660l82 -132h-54l-118 132h90z" />
    <glyph glyph-name="ntilde" unicode="&#xf1;" horiz-adv-x="509" 
d="M76 461h76v-65c40 54 80 76 137 76c42 0 80 -14 107 -38c29 -28 39 -60 39 -123v-311h-76v294c0 41 -5 63 -17 79c-13 19 -41 31 -72 31c-34 0 -65 -13 -88 -39c-22 -24 -30 -46 -30 -84v-281h-76v461zM366 640l50 -18c-30 -60 -57 -84 -94 -84c-21 0 -38 7 -86 36
c-16 10 -24 13 -33 13c-20 0 -34 -12 -47 -41l-51 23c28 54 57 78 95 78c25 0 47 -9 93 -39c12 -8 17 -10 26 -10c20 0 35 14 47 42z" />
    <glyph glyph-name="oacute" unicode="&#xf3;" horiz-adv-x="548" 
d="M275 472c136 0 233 -101 233 -243c0 -135 -104 -240 -236 -240c-137 0 -233 100 -233 242c0 143 96 241 236 241zM275 402c-95 0 -158 -69 -158 -172c0 -102 63 -171 157 -171c91 0 156 71 156 171c0 103 -62 172 -155 172zM317 660h89l-117 -132h-55z" />
    <glyph glyph-name="ocircumflex" unicode="&#xf4;" horiz-adv-x="548" 
d="M275 472c136 0 233 -101 233 -243c0 -135 -104 -240 -236 -240c-137 0 -233 100 -233 242c0 143 96 241 236 241zM275 402c-95 0 -158 -69 -158 -172c0 -102 63 -171 157 -171c91 0 156 71 156 171c0 103 -62 172 -155 172zM273 612l-72 -84h-66l104 133h72l101 -133h-66
z" />
    <glyph glyph-name="odieresis" unicode="&#xf6;" horiz-adv-x="548" 
d="M275 472c136 0 233 -101 233 -243c0 -135 -103 -240 -236 -240c-137 0 -233 100 -233 242c0 143 96 241 236 241zM275 402c-95 0 -158 -69 -158 -172c0 -102 63 -171 157 -171c91 0 156 71 156 171c0 103 -62 172 -155 172zM174 640c27 0 47 -20 47 -48
c0 -26 -20 -46 -47 -46s-47 20 -47 47s20 47 47 47zM373 640c27 0 47 -20 47 -48c0 -26 -20 -46 -47 -46s-47 20 -47 47s20 47 47 47z" />
    <glyph glyph-name="ograve" unicode="&#xf2;" horiz-adv-x="548" 
d="M275 472c136 0 233 -101 233 -243c0 -135 -104 -240 -236 -240c-137 0 -233 100 -233 242c0 143 96 241 236 241zM275 402c-95 0 -158 -69 -158 -172c0 -102 63 -171 157 -171c91 0 156 71 156 171c0 103 -62 172 -155 172zM231 660l82 -132h-54l-118 132h90z" />
    <glyph glyph-name="otilde" unicode="&#xf5;" horiz-adv-x="548" 
d="M275 472c136 0 233 -101 233 -243c0 -135 -104 -240 -236 -240c-137 0 -233 100 -233 242c0 143 96 241 236 241zM275 402c-95 0 -158 -69 -158 -172c0 -102 63 -171 157 -171c91 0 156 71 156 171c0 103 -62 172 -155 172zM385 640l51 -18c-31 -60 -57 -84 -95 -84
c-20 0 -37 7 -85 36c-16 10 -24 13 -33 13c-20 0 -34 -12 -47 -41l-51 23c28 54 57 78 95 78c24 0 46 -9 92 -39c12 -8 18 -10 27 -10c19 0 35 14 46 42z" />
    <glyph glyph-name="scaron" unicode="&#x161;" horiz-adv-x="411" 
d="M365 335h-76v5c0 43 -35 70 -88 70c-51 0 -83 -26 -83 -66s20 -55 103 -78c59 -16 90 -31 112 -53c23 -23 37 -56 37 -90c0 -80 -66 -134 -164 -134c-105 0 -164 49 -172 142h75c5 -52 39 -80 97 -80c52 0 86 27 86 68c0 40 -26 60 -105 80c-100 27 -145 69 -145 139
c0 80 65 134 162 134c98 0 157 -50 161 -137zM206 577l73 84h65l-104 -133h-72l-101 133h66z" />
    <glyph glyph-name="uacute" unicode="&#xfa;" horiz-adv-x="485" 
d="M344 461h77v-295c0 -63 -12 -98 -46 -129s-82 -48 -133 -48c-52 0 -100 18 -133 49c-31 30 -46 72 -46 128v295h76v-293c0 -65 42 -111 103 -111c32 0 63 13 81 35c15 18 21 38 21 74v295zM285 660h90l-118 -132h-54z" />
    <glyph glyph-name="ucircumflex" unicode="&#xfb;" horiz-adv-x="485" 
d="M344 461h77v-295c0 -63 -12 -98 -46 -129s-82 -48 -133 -48c-52 0 -100 18 -133 49c-31 30 -46 72 -46 128v295h76v-293c0 -65 42 -111 103 -111c32 0 63 13 81 35c15 18 21 38 21 74v295zM242 612l-73 -84h-65l103 133h72l102 -133h-66z" />
    <glyph glyph-name="udieresis" unicode="&#xfc;" horiz-adv-x="485" 
d="M344 461h77v-295c0 -63 -12 -98 -46 -129s-82 -48 -133 -48c-52 0 -100 18 -133 49c-31 30 -46 72 -46 128v295h76v-293c0 -66 42 -111 103 -111c32 0 63 13 81 35c15 18 21 38 21 74v295zM142 640c27 0 47 -20 47 -48c0 -26 -20 -46 -47 -46s-47 20 -47 47s20 47 47 47z
M342 640c27 0 47 -20 47 -48c0 -26 -20 -46 -47 -46s-47 20 -47 47s20 47 47 47z" />
    <glyph glyph-name="ugrave" unicode="&#xf9;" horiz-adv-x="485" 
d="M344 461h77v-295c0 -63 -12 -98 -46 -129s-82 -48 -133 -48c-52 0 -100 18 -133 49c-31 30 -46 72 -46 128v295h76v-293c0 -65 42 -111 103 -111c32 0 63 13 81 35c15 18 21 38 21 74v295zM199 660l83 -132h-55l-118 132h90z" />
    <glyph glyph-name="yacute" unicode="&#xfd;" horiz-adv-x="438" 
d="M211 119l138 342h83l-275 -683h-83l96 236l-164 447h81zM262 660h90l-118 -132h-55z" />
    <glyph glyph-name="ydieresis" unicode="&#xff;" horiz-adv-x="438" 
d="M211 119l138 342h83l-275 -683h-83l96 236l-164 447h81zM119 640c27 0 47 -20 47 -48c0 -26 -20 -46 -47 -46s-47 20 -47 47s20 47 47 47zM319 640c27 0 47 -20 47 -48c0 -26 -20 -46 -47 -46s-47 20 -47 47s20 47 47 47z" />
    <glyph glyph-name="zcaron" unicode="&#x17e;" horiz-adv-x="401" 
d="M150 67h212v-67h-340l240 394h-214v67h339zM201 577l73 84h65l-103 -133h-72l-102 133h66z" />
    <glyph glyph-name="commasuperior" unicode="&#xf6e2;" horiz-adv-x="148" 
d="M121 319l-65 -151l-39 13l54 154z" />
    <glyph glyph-name="periodsuperior" unicode="&#xf6e8;" horiz-adv-x="148" 
d="M74 332c20 0 35 -15 35 -36c0 -19 -16 -34 -35 -34c-20 0 -35 15 -35 35s15 35 35 35z" />
    <glyph glyph-name="figuredash" unicode="&#x2012;" 
d="M430 274v-67h-359v67h359z" />
    <glyph glyph-name="oneeighth" unicode="&#x215b;" horiz-adv-x="780" 
d="M165 581l-91 -57v53l148 92v-406h-57v318zM635 648l-457 -661l-33 23l457 660zM679 217c44 -15 70 -53 70 -101c0 -72 -56 -123 -134 -123c-77 0 -132 49 -132 119c0 50 26 89 71 105c-34 14 -55 45 -55 83c0 58 50 101 118 101s117 -42 117 -100c0 -38 -20 -69 -55 -84z
M617 352c-37 0 -63 -21 -63 -52s28 -56 63 -56c33 0 63 26 63 55s-29 53 -63 53zM617 189c-43 0 -77 -32 -77 -72c0 -41 34 -73 76 -73s76 32 76 73c0 39 -34 72 -75 72z" />
    <glyph glyph-name="threeeighths" unicode="&#x215c;" horiz-adv-x="780" 
d="M189 607h-140v50h248l-123 -147c69 -2 120 -54 120 -122c0 -76 -60 -132 -141 -132c-70 0 -117 36 -132 101l52 9c11 -38 38 -59 77 -59c49 0 87 34 87 78c0 45 -36 76 -88 76c-20 0 -32 -3 -51 -14l-25 21zM635 648l-458 -661l-33 23l458 660zM678 217
c44 -15 70 -53 70 -101c0 -72 -56 -123 -134 -123c-77 0 -132 49 -132 119c0 50 26 89 72 105c-34 14 -55 45 -55 83c0 58 50 101 118 101c67 0 116 -42 116 -100c0 -38 -20 -69 -55 -84zM617 352c-37 0 -63 -21 -63 -52s27 -56 62 -56c33 0 63 26 63 55s-29 53 -62 53z
M616 189c-43 0 -77 -32 -77 -72c0 -41 34 -73 76 -73s76 32 76 73c0 39 -34 72 -75 72z" />
    <glyph glyph-name="fiveeighths" unicode="&#x215d;" horiz-adv-x="780" 
d="M110 600v-95c19 7 36 10 56 10c75 0 131 -55 131 -130c0 -79 -59 -135 -142 -135c-63 0 -107 30 -130 87l53 19c19 -40 39 -54 76 -54c48 0 85 36 85 83c0 48 -35 80 -88 80c-33 0 -47 -6 -96 -44v230h188v-51h-133zM635 648l-457 -661l-33 23l457 660zM679 217
c44 -15 70 -53 70 -101c0 -72 -56 -123 -134 -123c-77 0 -132 49 -132 119c0 50 26 89 72 105c-35 13 -56 45 -56 83c0 58 50 101 118 101s117 -42 117 -100c0 -38 -20 -69 -55 -84zM617 352c-37 0 -63 -21 -63 -52s28 -56 63 -56c33 0 63 26 63 55s-29 53 -63 53zM617 189
c-43 0 -77 -32 -77 -72c0 -41 34 -73 76 -73s76 32 76 73c0 39 -34 72 -75 72z" />
    <glyph glyph-name="seveneighths" unicode="&#x215e;" horiz-adv-x="780" 
d="M214 606h-157v51h240l-168 -394h-62zM635 648l-457 -661l-33 23l457 660zM679 217c44 -15 70 -53 70 -101c0 -72 -56 -123 -134 -123c-77 0 -132 49 -132 119c0 50 26 89 71 105c-34 14 -55 45 -55 83c0 58 50 101 118 101s117 -42 117 -100c0 -38 -20 -69 -55 -84z
M617 352c-37 0 -63 -21 -63 -52s28 -56 63 -56c33 0 63 26 63 55s-29 53 -63 53zM617 189c-43 0 -77 -32 -77 -72c0 -41 34 -73 76 -73s76 32 76 73c0 39 -34 72 -75 72z" />
    <glyph glyph-name="onethird" unicode="&#x2153;" horiz-adv-x="780" 
d="M165 581l-91 -57v53l148 92v-406h-57v318zM635 648l-457 -661l-33 23l457 660zM642 344h-140v50h248l-123 -147c69 -2 120 -54 120 -121c0 -77 -60 -133 -141 -133c-70 0 -116 35 -132 101l52 10c11 -39 38 -60 77 -60c49 0 87 34 87 78c0 45 -36 76 -89 76
c-19 0 -30 -3 -50 -14l-25 22z" />
    <glyph glyph-name="twothirds" unicode="&#x2154;" horiz-adv-x="780" 
d="M129 313h142v-51h-244l148 202c42 57 51 74 51 96c0 32 -27 55 -66 55c-44 0 -62 -22 -63 -74h-55c3 81 45 124 122 124c70 0 119 -42 119 -101c0 -34 -13 -65 -48 -110zM635 648l-458 -661l-33 23l458 660zM641 344h-140v50h248l-123 -147c69 -2 120 -54 120 -121
c0 -77 -60 -133 -141 -133c-70 0 -116 35 -132 101l52 10c11 -39 38 -60 77 -60c49 0 87 34 87 78c0 45 -36 76 -89 76c-19 0 -30 -3 -50 -14l-25 22z" />
    <glyph glyph-name="zerosuperior" unicode="&#x2070;" horiz-adv-x="328" 
d="M291 541v-156c0 -45 -9 -73 -31 -95s-56 -34 -96 -34c-42 0 -76 12 -99 35c-22 23 -28 46 -28 107v129c0 53 6 78 26 99c21 25 56 38 99 38c39 0 71 -10 95 -30c25 -22 34 -46 34 -93zM94 526v-131c0 -45 2 -52 14 -66c13 -14 34 -22 56 -22c49 0 70 25 70 81v150
c0 48 -24 74 -70 74c-25 0 -46 -10 -58 -26c-9 -13 -12 -27 -12 -60z" />
    <glyph glyph-name="foursuperior" unicode="&#x2074;" horiz-adv-x="328" 
d="M195 351h-166v41l222 282v-273h48v-50h-48v-88h-56v88zM196 400v138l-106 -138h106z" />
    <glyph glyph-name="fivesuperior" unicode="&#x2075;" horiz-adv-x="328" 
d="M110 600v-95c19 7 36 10 56 10c75 0 131 -55 131 -130c0 -79 -59 -135 -142 -135c-63 0 -107 30 -130 87l53 19c19 -40 39 -54 76 -54c48 0 85 36 85 83c0 48 -35 80 -88 80c-33 0 -47 -6 -96 -44v230h188v-51h-133z" />
    <glyph glyph-name="sixsuperior" unicode="&#x2076;" horiz-adv-x="328" 
d="M247 657l-105 -154c12 3 18 4 31 4c73 0 127 -52 127 -121c0 -71 -62 -130 -138 -130s-135 57 -135 130c0 30 8 52 32 89l120 182h68zM165 460c-46 0 -81 -33 -81 -74c0 -44 35 -78 79 -78s80 34 80 76c0 43 -35 76 -78 76z" />
    <glyph glyph-name="sevensuperior" unicode="&#x2077;" horiz-adv-x="328" 
d="M214 606h-157v51h240l-168 -394h-62z" />
    <glyph glyph-name="eightsuperior" unicode="&#x2078;" horiz-adv-x="328" 
d="M227 480c44 -16 70 -53 70 -102c0 -71 -56 -122 -134 -122c-77 0 -132 49 -132 119c0 50 26 89 72 105c-35 13 -56 45 -56 83c0 58 50 101 118 101s117 -42 117 -101c0 -37 -21 -69 -55 -83zM165 615c-37 0 -63 -21 -63 -52c0 -32 27 -56 63 -56c33 0 63 26 63 55
c0 28 -29 53 -63 53zM165 452c-43 0 -77 -32 -77 -72c0 -41 34 -73 76 -73s76 32 76 73c0 39 -34 72 -75 72z" />
    <glyph glyph-name="ninesuperior" unicode="&#x2079;" horiz-adv-x="328" 
d="M84 263l103 154c-12 -4 -18 -5 -30 -5c-73 0 -129 53 -129 122c0 73 61 130 138 130s135 -55 135 -127c0 -31 -8 -54 -30 -88l-120 -186h-67zM166 613c-45 0 -81 -34 -81 -76c0 -43 35 -76 79 -76c46 0 80 32 80 75s-34 77 -78 77z" />
    <glyph glyph-name="zeroinferior" unicode="&#x2080;" horiz-adv-x="328" 
d="M291 278v-156c0 -45 -9 -73 -31 -94c-22 -22 -56 -34 -97 -34s-75 12 -98 35c-22 23 -28 46 -28 106v129c0 53 6 78 26 99c21 25 56 38 99 38c39 0 71 -10 95 -30c25 -22 34 -46 34 -93zM94 263v-131c0 -44 2 -52 14 -65c13 -14 34 -22 56 -22c49 0 70 25 70 80v150
c0 48 -24 74 -70 74c-25 0 -46 -10 -58 -26c-9 -13 -12 -27 -12 -60z" />
    <glyph glyph-name="oneinferior" unicode="&#x2081;" horiz-adv-x="328" 
d="M166 318l-92 -57v53l149 92v-406h-57v318z" />
    <glyph glyph-name="twoinferior" unicode="&#x2082;" horiz-adv-x="328" 
d="M129 51h142v-51h-244l148 201c43 58 51 73 51 96c0 32 -27 54 -65 54c-45 0 -63 -21 -64 -73h-55c3 80 45 123 122 123c70 0 119 -42 119 -101c0 -33 -13 -64 -48 -109z" />
    <glyph glyph-name="threeinferior" unicode="&#x2083;" horiz-adv-x="328" 
d="M189 344h-140v50h248l-123 -147c69 -2 120 -54 120 -121c0 -77 -60 -133 -141 -133c-70 0 -117 36 -132 101l52 10c11 -39 38 -60 77 -60c49 0 87 34 87 78c0 45 -36 76 -89 76c-19 0 -30 -3 -50 -14l-25 22z" />
    <glyph glyph-name="fourinferior" unicode="&#x2084;" horiz-adv-x="328" 
d="M195 88h-166v41l222 282v-273h48v-50h-48v-88h-56v88zM196 137v138l-106 -138h106z" />
    <glyph glyph-name="fiveinferior" unicode="&#x2085;" horiz-adv-x="328" 
d="M110 343v-94c19 6 36 9 56 9c75 0 131 -55 131 -130c0 -79 -59 -135 -142 -135c-63 0 -107 30 -130 87l53 19c19 -40 39 -54 76 -54c48 0 85 36 85 83c0 48 -35 81 -88 81c-33 0 -48 -7 -96 -44v229h188v-51h-133z" />
    <glyph glyph-name="sixinferior" unicode="&#x2086;" horiz-adv-x="328" 
d="M247 394l-105 -154c12 3 18 4 31 4c73 0 127 -52 127 -121c0 -71 -62 -130 -138 -130s-135 57 -135 130c0 30 8 52 32 89l120 182h68zM164 197c-45 0 -80 -33 -80 -74c0 -44 35 -78 79 -78s80 34 80 76c0 43 -35 76 -79 76z" />
    <glyph glyph-name="seveninferior" unicode="&#x2087;" horiz-adv-x="328" 
d="M214 343h-157v51h240l-168 -394h-62z" />
    <glyph glyph-name="eightinferior" unicode="&#x2088;" horiz-adv-x="328" 
d="M227 217c44 -15 70 -53 70 -101c0 -72 -56 -123 -134 -123c-77 0 -132 49 -132 119c0 50 26 89 72 105c-35 13 -56 45 -56 83c0 58 50 101 118 101s117 -42 117 -100c0 -38 -20 -69 -55 -84zM165 352c-37 0 -63 -21 -63 -52s28 -56 63 -56c33 0 63 26 63 55
s-29 53 -63 53zM165 189c-43 0 -77 -32 -77 -72c0 -41 34 -73 76 -73s76 32 76 73c0 39 -34 72 -75 72z" />
    <glyph glyph-name="nineinferior" unicode="&#x2089;" horiz-adv-x="328" 
d="M84 0l103 154c-13 -3 -19 -4 -30 -4c-73 0 -129 53 -129 122c0 72 61 129 139 129c76 0 134 -55 134 -127c0 -31 -8 -54 -30 -88l-120 -186h-67zM166 350c-45 0 -81 -34 -81 -76s35 -75 79 -75c46 0 80 32 80 75s-34 76 -78 76z" />
    <glyph glyph-name="IJ" unicode="&#x132;" horiz-adv-x="624" 
d="M167 667v-667h-84v667h84zM553 667v-461c0 -94 -35 -156 -106 -188c-32 -15 -79 -22 -138 -22c-7 0 -19 0 -33 1v73c20 -2 30 -2 41 -2c49 0 85 11 110 32c32 28 42 66 42 153v342h-193v72h277z" />
    <glyph glyph-name="uni01CD" unicode="&#x1cd;" horiz-adv-x="606" 
d="M452 154h-299l-61 -154h-87l251 667h100l245 -667h-94zM426 226l-122 335l-126 -335h248zM302 769l75 83h67l-109 -133h-69l-104 133h65z" />
    <glyph glyph-name="Abreve" unicode="&#x102;" horiz-adv-x="606" 
d="M452 154h-299l-61 -154h-87l251 667h100l245 -667h-94zM426 226l-122 335l-126 -335h248zM148 838h65c20 -38 45 -53 90 -53s70 15 90 53h65c-18 -68 -75 -108 -155 -108s-137 40 -155 108z" />
    <glyph glyph-name="Aogonek" unicode="&#x104;" horiz-adv-x="606" 
d="M601 0h-17c-52 -40 -69 -62 -69 -91c0 -24 25 -43 57 -43c12 0 20 2 38 7l9 -51c-24 -9 -37 -11 -58 -11c-62 0 -108 35 -108 83c0 39 25 77 71 106h-17l-55 154h-299l-61 -154h-87l251 667h100zM426 226l-122 335l-126 -335h248z" />
    <glyph glyph-name="Cacute" unicode="&#x106;" horiz-adv-x="630" 
d="M550 157l56 -56c-67 -79 -141 -113 -244 -113c-93 0 -172 34 -229 98c-56 63 -89 154 -89 247c0 200 135 346 319 346c60 0 119 -16 167 -45c27 -17 45 -33 78 -69l-58 -54c-65 67 -114 91 -185 91c-136 0 -235 -113 -235 -269c0 -155 101 -268 239 -268
c73 0 129 29 181 92zM414 850h92l-121 -131h-60z" />
    <glyph glyph-name="Ccaron" unicode="&#x10c;" horiz-adv-x="630" 
d="M550 157l56 -56c-67 -79 -141 -113 -244 -113c-93 0 -172 34 -229 98c-56 63 -89 154 -89 247c0 200 135 346 319 346c60 0 119 -16 167 -45c27 -17 45 -33 78 -69l-58 -54c-65 67 -114 91 -185 91c-136 0 -235 -113 -235 -269c0 -155 101 -268 239 -268
c73 0 129 29 181 92zM368 769l75 83h67l-109 -133h-70l-103 133h65z" />
    <glyph glyph-name="Cdotaccent" unicode="&#x10a;" horiz-adv-x="630" 
d="M550 157l56 -56c-67 -79 -141 -113 -244 -113c-93 0 -172 34 -229 98c-56 63 -89 154 -89 247c0 200 135 346 319 346c60 0 119 -16 167 -45c27 -17 45 -33 78 -69l-58 -54c-65 67 -114 91 -185 91c-136 0 -235 -113 -235 -269c0 -155 101 -268 239 -268
c73 0 129 29 181 92zM369 838c29 0 51 -23 51 -52c0 -28 -23 -50 -51 -50c-29 0 -51 22 -51 51s22 51 51 51z" />
    <glyph glyph-name="Dcaron" unicode="&#x10e;" horiz-adv-x="626" 
d="M83 0v667h177c201 0 322 -122 322 -323c0 -113 -37 -207 -105 -267c-58 -52 -135 -77 -232 -77h-162zM167 596v-524h30c113 0 161 12 209 50c60 48 90 122 90 221c0 161 -86 253 -239 253h-90zM312 769l75 83h67l-109 -133h-69l-104 133h65z" />
    <glyph glyph-name="Dcroat" unicode="&#x110;" horiz-adv-x="626" 
d="M83 372v295h177c201 0 322 -122 322 -324c0 -112 -37 -206 -105 -266c-58 -52 -135 -77 -232 -77h-162v304h-75v68h75zM167 372h163v-68h-163v-232h30c113 0 162 12 209 50c60 47 90 122 90 220c0 162 -86 254 -238 254h-91v-224z" />
    <glyph glyph-name="Ecaron" unicode="&#x11a;" horiz-adv-x="473" 
d="M159 595v-223h263v-72h-263v-228h263v-72h-347v667h347v-72h-263zM236 769l75 83h66l-108 -133h-70l-104 133h66z" />
    <glyph glyph-name="Edotaccent" unicode="&#x116;" horiz-adv-x="473" 
d="M159 595v-223h263v-72h-263v-228h263v-72h-347v667h347v-72h-263zM236 838c29 0 51 -23 51 -52c0 -28 -23 -50 -51 -50c-29 0 -51 22 -51 51s22 51 51 51z" />
    <glyph glyph-name="Eogonek" unicode="&#x118;" horiz-adv-x="473" 
d="M422 0h-4c-53 -39 -70 -62 -70 -91c0 -24 25 -43 57 -43c12 0 21 2 38 7l9 -51c-24 -9 -36 -11 -58 -11c-62 0 -108 35 -108 83c0 39 25 76 71 106h-282v667h347v-72h-263v-223h263v-72h-263v-228h263v-72z" />
    <glyph glyph-name="Gcaron" unicode="&#x1e6;" horiz-adv-x="732" 
d="M374 361h318c1 -14 1 -32 1 -38c0 -89 -20 -151 -69 -213c-64 -80 -150 -122 -251 -122c-190 0 -329 145 -329 344c0 202 138 347 329 347c101 0 188 -42 251 -121l-63 -51c-26 29 -38 41 -56 53c-37 27 -84 42 -132 42c-138 0 -243 -116 -243 -269
c0 -151 105 -268 241 -268c74 0 151 39 192 98c26 35 36 68 43 126h-232v72zM366 769l75 83h66l-108 -133h-70l-104 133h66z" />
    <glyph glyph-name="Gbreve" unicode="&#x11e;" horiz-adv-x="732" 
d="M374 361h318c1 -14 1 -32 1 -38c0 -89 -20 -151 -69 -213c-64 -80 -150 -122 -251 -122c-190 0 -329 145 -329 344c0 202 138 347 329 347c101 0 188 -42 251 -121l-63 -51c-26 29 -38 41 -56 53c-37 27 -84 42 -132 42c-138 0 -243 -116 -243 -269
c0 -151 105 -268 241 -268c74 0 151 39 192 98c26 35 36 68 43 126h-232v72zM212 838h64c20 -38 45 -53 90 -53c46 0 70 15 91 53h64c-18 -68 -75 -108 -155 -108s-137 40 -154 108z" />
    <glyph glyph-name="Gdotaccent" unicode="&#x120;" horiz-adv-x="732" 
d="M374 361h318c1 -14 1 -32 1 -38c0 -89 -20 -151 -69 -213c-64 -80 -150 -122 -251 -122c-190 0 -329 145 -329 344c0 202 138 347 329 347c101 0 188 -42 251 -121l-63 -51c-26 29 -38 41 -56 53c-37 27 -84 42 -132 42c-138 0 -243 -116 -243 -269
c0 -151 105 -268 241 -268c74 0 151 39 192 98c26 35 36 68 43 126h-232v72zM366 838c29 0 51 -23 51 -52c0 -28 -23 -50 -51 -50c-29 0 -51 22 -51 51s22 51 51 51z" />
    <glyph glyph-name="Idotaccent" unicode="&#x130;" horiz-adv-x="250" 
d="M167 667v-667h-84v667h84zM125 838c29 0 51 -23 51 -52c0 -28 -23 -50 -51 -50c-29 0 -51 22 -51 51s22 51 51 51z" />
    <glyph glyph-name="Lacute" unicode="&#x139;" horiz-adv-x="427" 
d="M167 76h235v-76h-319v667h84v-591zM205 850h92l-120 -131h-60z" />
    <glyph glyph-name="Lcaron" unicode="&#x13d;" horiz-adv-x="427" 
d="M167 76h235v-76h-319v667h84v-591zM419 656l-92 -204l-55 19l81 209z" />
    <glyph glyph-name="Nacute" unicode="&#x143;" horiz-adv-x="683" 
d="M167 510v-510h-84v667h77l356 -502v502h84v-667h-74zM387 850h91l-120 -131h-60z" />
    <glyph glyph-name="Ncaron" unicode="&#x147;" horiz-adv-x="683" 
d="M167 510v-510h-84v667h77l356 -502v502h84v-667h-74zM341 769l75 83h66l-108 -133h-70l-104 133h66z" />
    <glyph glyph-name="Ohungarumlaut" unicode="&#x150;" horiz-adv-x="742" 
d="M374 679c93 0 182 -42 246 -115c54 -63 78 -137 78 -237c0 -104 -40 -197 -113 -259c-60 -52 -136 -80 -213 -80c-99 0 -196 47 -258 125c-46 58 -70 133 -70 217c0 199 141 349 330 349zM372 601c-139 0 -242 -114 -242 -268c0 -155 102 -268 240 -268
c67 0 133 29 178 80c39 43 64 115 64 183c0 89 -24 154 -76 204c-44 43 -105 69 -164 69zM328 849h85l-101 -130h-55zM485 849h85l-102 -130h-54z" />
    <glyph glyph-name="Racute" unicode="&#x154;" horiz-adv-x="560" 
d="M167 280v-280h-84v667h182c142 0 228 -73 228 -194c0 -75 -34 -135 -96 -168c-32 -17 -62 -24 -123 -28l259 -277h-107zM167 337h84c101 0 156 46 156 130c0 83 -50 128 -142 128h-98v-258zM325 850h92l-121 -131h-59z" />
    <glyph glyph-name="Rcaron" unicode="&#x158;" horiz-adv-x="560" 
d="M167 280v-280h-84v667h182c142 0 228 -73 228 -194c0 -75 -34 -135 -96 -168c-32 -17 -62 -24 -123 -28l259 -277h-107zM167 337h84c101 0 156 46 156 130c0 83 -50 128 -142 128h-98v-258zM280 769l75 83h66l-108 -133h-70l-104 133h65z" />
    <glyph glyph-name="Sacute" unicode="&#x15a;" horiz-adv-x="490" 
d="M38 179h80c4 -76 45 -116 118 -116c75 0 128 46 128 113c0 58 -30 85 -135 120c-79 27 -105 40 -135 67c-34 31 -52 75 -52 126c0 113 81 190 199 190s195 -75 198 -191h-84c-1 34 -5 50 -16 69c-19 29 -56 47 -99 47c-66 0 -113 -45 -113 -109c0 -32 14 -60 38 -77
c21 -15 39 -23 107 -47c71 -25 105 -43 132 -72c29 -31 45 -73 45 -118c0 -115 -85 -193 -210 -193c-85 0 -143 30 -178 90c-16 27 -23 55 -23 87v14zM291 850h91l-120 -131h-60z" />
    <glyph glyph-name="Scedilla" unicode="&#x15e;" horiz-adv-x="490" 
d="M38 179h80c4 -76 45 -116 118 -116c75 0 128 46 128 113c0 58 -30 85 -135 120c-79 27 -105 40 -135 67c-34 31 -52 75 -52 126c0 113 81 190 199 190s195 -75 198 -191h-84c-1 34 -5 50 -16 69c-19 29 -56 47 -99 47c-66 0 -113 -45 -113 -109c0 -32 14 -60 38 -77
c21 -15 39 -23 107 -47c71 -25 105 -43 132 -72c29 -31 45 -73 45 -118c0 -115 -85 -193 -210 -193c-85 0 -143 30 -178 90c-16 27 -23 55 -23 87v14zM164 -209l-42 34c51 32 77 66 90 118l77 -27c-21 -50 -60 -90 -125 -125z" />
    <glyph glyph-name="Tcaron" unicode="&#x164;" horiz-adv-x="443" 
d="M264 595v-595h-84v595h-170v72h423v-72h-169zM221 769l75 83h67l-109 -133h-70l-103 133h65z" />
    <glyph glyph-name="Uring" unicode="&#x16e;" horiz-adv-x="636" 
d="M155 667v-397c0 -85 12 -128 44 -160c28 -27 76 -45 118 -45s89 19 118 49c36 35 45 69 45 158v395h86v-395c0 -100 -16 -157 -59 -205c-45 -51 -112 -79 -188 -79c-78 0 -149 30 -194 84c-41 47 -54 96 -54 200v395h84zM320 868c45 0 79 -35 79 -81
c0 -43 -36 -78 -80 -78c-45 0 -80 35 -80 80c0 44 35 79 81 79zM319 836c-27 0 -48 -20 -48 -48c0 -27 21 -47 48 -47s48 21 48 47c0 27 -20 48 -48 48z" />
    <glyph glyph-name="Uhungarumlaut" unicode="&#x170;" horiz-adv-x="636" 
d="M155 667v-397c0 -85 12 -128 44 -160c28 -27 76 -45 118 -45s89 19 118 49c36 35 45 69 45 158v395h86v-395c0 -100 -16 -157 -59 -205c-45 -51 -112 -79 -188 -79c-78 0 -149 30 -194 84c-41 47 -54 96 -54 200v395h84zM275 849h86l-102 -130h-55zM432 849h85l-101 -130
h-55z" />
    <glyph glyph-name="Zacute" unicode="&#x179;" horiz-adv-x="539" 
d="M152 72h338v-72h-477l378 595h-336v72h474zM314 850h92l-121 -131h-59z" />
    <glyph glyph-name="Zdotaccent" unicode="&#x17b;" horiz-adv-x="539" 
d="M152 72h338v-72h-477l378 595h-336v72h474zM269 838c29 0 51 -23 51 -52c0 -28 -23 -50 -51 -50c-29 0 -51 22 -51 51s22 51 51 51z" />
    <glyph glyph-name="Amacron" unicode="&#x100;" horiz-adv-x="606" 
d="M452 154h-299l-61 -154h-87l251 667h100l245 -667h-94zM426 226l-122 335l-126 -335h248zM443 812v-57h-281v57h281z" />
    <glyph glyph-name="Tcommaaccent" unicode="&#x162;" horiz-adv-x="443" 
d="M264 595v-595h-84v595h-170v72h423v-72h-169zM255 -42v-70c0 -66 -24 -100 -79 -112v33c32 11 44 29 44 65h-35v84h70z" />
    <glyph glyph-name="uni021A" unicode="&#x21a;" horiz-adv-x="443" 
d="M264 595v-595h-84v595h-170v72h423v-72h-169zM255 -42v-70c0 -66 -24 -100 -79 -112v33c32 11 44 29 44 65h-35v84h70z" />
    <glyph glyph-name="Ccircumflex" unicode="&#x108;" horiz-adv-x="630" 
d="M550 157l56 -56c-67 -79 -141 -113 -244 -113c-93 0 -172 34 -229 98c-56 63 -89 154 -89 247c0 200 135 346 319 346c60 0 119 -16 167 -45c27 -17 45 -33 78 -69l-58 -54c-65 67 -114 91 -185 91c-136 0 -235 -113 -235 -269c0 -155 101 -268 239 -268
c73 0 129 29 181 92zM356 802l-75 -83h-67l109 133h70l103 -133h-65z" />
    <glyph glyph-name="Wcircumflex" unicode="&#x174;" horiz-adv-x="861" 
d="M616 154l153 513h87l-204 -667h-74l-147 524l-148 -524h-74l-204 667h89l152 -511l148 511h79zM431 802l-75 -83h-67l109 133h70l103 -133h-65z" />
    <glyph glyph-name="Wdieresis" unicode="&#x1e84;" horiz-adv-x="861" 
d="M616 154l153 513h87l-204 -667h-74l-147 524l-148 -524h-74l-204 667h89l152 -511l148 511h79zM328 838c29 0 51 -23 51 -52c0 -28 -23 -50 -51 -50c-29 0 -51 22 -51 51s22 51 51 51zM532 838c29 0 51 -23 51 -52c0 -28 -23 -50 -51 -50c-29 0 -51 22 -51 51
s22 51 51 51z" />
    <glyph glyph-name="Ycircumflex" unicode="&#x176;" horiz-adv-x="529" 
d="M308 294v-294h-84v294l-230 373h99l172 -286l170 286h100zM265 802l-75 -83h-66l108 133h70l104 -133h-66z" />
    <glyph glyph-name="Hbar" unicode="&#x126;" horiz-adv-x="659" 
d="M83 483h-56v56h56v128h84v-128h325v128h84v-128h56v-56h-56v-483h-84v295h-325v-295h-84v483zM167 483v-116h325v116h-325z" />
    <glyph glyph-name="Dbreve" horiz-adv-x="626" 
d="M83 0v667h177c201 0 322 -122 322 -323c0 -113 -37 -207 -105 -267c-58 -52 -135 -77 -232 -77h-162zM167 596v-524h30c113 0 161 12 209 50c60 48 90 122 90 221c0 161 -86 253 -239 253h-90zM158 838h65c20 -38 45 -53 90 -53s70 15 90 53h65
c-18 -68 -75 -108 -155 -108s-137 40 -155 108z" />
    <glyph glyph-name="Emacron" unicode="&#x112;" horiz-adv-x="473" 
d="M159 595v-223h263v-72h-263v-228h263v-72h-347v667h347v-72h-263zM389 812v-57h-281v57h281z" />
    <glyph glyph-name="Gcircumflex" unicode="&#x11c;" horiz-adv-x="732" 
d="M374 361h318c1 -14 1 -32 1 -38c0 -89 -20 -151 -69 -213c-64 -80 -150 -122 -251 -122c-190 0 -329 145 -329 344c0 202 138 347 329 347c101 0 188 -42 251 -121l-63 -51c-26 29 -38 41 -56 53c-37 27 -84 42 -132 42c-138 0 -243 -116 -243 -269
c0 -151 105 -268 241 -268c74 0 151 39 192 98c26 35 36 68 43 126h-232v72zM367 802l-75 -83h-67l109 133h70l103 -133h-65z" />
    <glyph glyph-name="Hcircumflex" unicode="&#x124;" horiz-adv-x="659" 
d="M167 295v-295h-84v667h84v-300h325v300h84v-667h-84v295h-325zM330 802l-75 -83h-66l108 133h70l104 -133h-66z" />
    <glyph glyph-name="Imacron" unicode="&#x12a;" horiz-adv-x="250" 
d="M167 667v-667h-84v667h84zM266 812v-57h-281v57h281z" />
    <glyph glyph-name="Iogonek" unicode="&#x12e;" horiz-adv-x="250" 
d="M192 -127l9 -51c-24 -9 -36 -11 -58 -11c-62 0 -108 35 -108 83c0 40 24 75 71 106h-23v667h84v-667c-45 -30 -70 -62 -70 -91c0 -24 25 -43 57 -43c12 0 20 1 38 7z" />
    <glyph glyph-name="Kcommaaccent" unicode="&#x136;" horiz-adv-x="539" 
d="M167 308v-308h-84v667h84v-307l259 307h101l-278 -330l278 -337h-107zM304 -42v-70c0 -39 -8 -66 -25 -85c-10 -10 -36 -23 -55 -27v33c32 10 45 29 45 65h-35v84h70z" />
    <glyph glyph-name="Lcommaaccent" unicode="&#x13b;" horiz-adv-x="427" 
d="M167 76h235v-76h-319v667h84v-591zM247 -42v-70c0 -66 -24 -100 -79 -112v33c32 11 44 29 44 65h-35v84h70z" />
    <glyph glyph-name="Ncommaaccent" unicode="&#x145;" horiz-adv-x="683" 
d="M167 510v-510h-84v667h77l356 -502v502h84v-667h-74zM375 -42v-70c0 -39 -8 -66 -25 -85c-10 -10 -36 -23 -55 -27v33c32 10 45 29 45 65h-35v84h70z" />
    <glyph glyph-name="Omacron" unicode="&#x14c;" horiz-adv-x="742" 
d="M374 679c93 0 182 -42 246 -115c54 -63 78 -137 78 -237c0 -104 -40 -197 -113 -259c-60 -52 -136 -80 -213 -80c-99 0 -196 47 -258 125c-46 58 -70 133 -70 217c0 199 141 349 330 349zM372 601c-139 0 -242 -114 -242 -268c0 -155 102 -268 240 -268
c67 0 133 29 178 80c39 43 64 115 64 183c0 89 -24 154 -76 204c-44 43 -105 69 -164 69zM512 812v-57h-281v57h281z" />
    <glyph glyph-name="Rcommaaccent" unicode="&#x156;" horiz-adv-x="560" 
d="M167 280v-280h-84v667h182c142 0 228 -73 228 -194c0 -75 -34 -135 -96 -168c-32 -17 -62 -24 -123 -28l259 -277h-107zM167 337h84c101 0 156 46 156 130c0 83 -50 128 -142 128h-98v-258zM314 -42v-70c0 -39 -8 -66 -25 -85c-10 -10 -36 -23 -55 -27v33
c32 10 45 29 45 65h-35v84h70z" />
    <glyph glyph-name="Scircumflex" unicode="&#x15c;" horiz-adv-x="490" 
d="M38 179h80c4 -76 45 -116 118 -116c75 0 128 46 128 113c0 58 -30 85 -135 120c-79 27 -105 40 -135 67c-34 31 -52 75 -52 126c0 113 81 190 199 190s195 -75 198 -191h-84c-1 34 -5 50 -16 69c-19 29 -56 47 -99 47c-66 0 -113 -45 -113 -109c0 -32 14 -60 38 -77
c21 -15 39 -23 107 -47c71 -25 105 -43 132 -72c29 -31 45 -73 45 -118c0 -115 -85 -193 -210 -193c-85 0 -143 30 -178 90c-16 27 -23 55 -23 87v14zM246 802l-75 -83h-66l108 133h70l104 -133h-66z" />
    <glyph glyph-name="Gcommaaccent" unicode="&#x122;" horiz-adv-x="732" 
d="M374 361h318c1 -14 1 -32 1 -38c0 -89 -20 -151 -69 -213c-64 -80 -150 -122 -251 -122c-190 0 -329 145 -329 344c0 202 138 347 329 347c101 0 188 -42 251 -121l-63 -51c-26 29 -38 41 -56 53c-37 27 -84 42 -132 42c-138 0 -243 -116 -243 -269
c0 -151 105 -268 241 -268c74 0 151 39 192 98c26 35 36 68 43 126h-232v72zM400 -42v-70c0 -39 -8 -66 -25 -85c-10 -10 -36 -23 -55 -27v33c32 10 45 29 45 65h-35v84h70z" />
    <glyph glyph-name="uni01D3" unicode="&#x1d3;" horiz-adv-x="636" 
d="M155 667v-397c0 -85 12 -128 44 -160c28 -27 76 -45 118 -45s89 19 118 49c36 35 45 69 45 158v395h86v-395c0 -100 -16 -157 -59 -205c-45 -51 -112 -79 -188 -79c-78 0 -149 30 -194 84c-41 47 -54 96 -54 200v395h84zM318 769l75 83h67l-109 -133h-70l-103 133h65z
" />
    <glyph glyph-name="Umacron" unicode="&#x16a;" horiz-adv-x="636" 
d="M155 667v-397c0 -85 12 -128 44 -160c28 -27 76 -45 118 -45s89 19 118 49c36 35 45 69 45 158v395h86v-395c0 -100 -16 -157 -59 -205c-45 -51 -112 -79 -188 -79c-78 0 -149 30 -194 84c-41 47 -54 96 -54 200v395h84zM459 812v-57h-281v57h281z" />
    <glyph glyph-name="Uogonek" unicode="&#x172;" horiz-adv-x="636" 
d="M400 0l-5 -4l-5 -4c-40 -29 -59 -55 -59 -81s24 -44 57 -44c12 0 21 1 38 6l10 -51c-24 -8 -37 -10 -59 -10c-62 0 -108 35 -108 82c0 34 19 67 54 94c-65 0 -123 19 -167 54c-64 50 -85 108 -85 230v395h84v-396c0 -85 12 -128 44 -160c28 -27 76 -45 118 -45
s89 19 118 49c36 35 45 68 45 158v394h86v-395c0 -127 -30 -196 -105 -244c-19 -13 -37 -21 -61 -28z" />
    <glyph glyph-name="Adotaccent" horiz-adv-x="606" 
d="M452 154h-299l-61 -154h-87l251 667h100l245 -667h-94zM426 226l-122 335l-126 -335h248zM303 838c29 0 51 -23 51 -52c0 -28 -23 -50 -51 -50c-29 0 -51 22 -51 51s22 51 51 51z" />
    <glyph glyph-name="Ebreve" unicode="&#x114;" horiz-adv-x="473" 
d="M159 595v-223h263v-72h-263v-228h263v-72h-347v667h347v-72h-263zM82 838h64c20 -38 45 -53 90 -53c46 0 70 15 91 53h64c-18 -68 -75 -108 -155 -108s-137 40 -154 108z" />
    <glyph glyph-name="Fdotaccent" horiz-adv-x="456" 
d="M167 595v-223h260v-72h-260v-300h-84v667h344v-72h-260zM228 838c29 0 51 -23 51 -52c0 -28 -23 -50 -51 -50c-29 0 -51 22 -51 51s22 51 51 51z" />
    <glyph glyph-name="uni01F4" unicode="&#x1f4;" horiz-adv-x="732" 
d="M374 361h318c1 -14 1 -32 1 -38c0 -89 -20 -151 -69 -213c-64 -80 -150 -122 -251 -122c-190 0 -329 145 -329 344c0 202 138 347 329 347c101 0 188 -42 251 -121l-63 -51c-26 29 -38 41 -56 53c-37 27 -84 42 -132 42c-138 0 -243 -116 -243 -269
c0 -151 105 -268 241 -268c74 0 151 39 192 98c26 35 36 68 43 126h-232v72zM412 850h91l-120 -131h-60z" />
    <glyph glyph-name="dotlessj" unicode="&#xf6be;" horiz-adv-x="229" 
d="M152 461v-509c0 -63 -11 -101 -39 -131c-28 -31 -69 -48 -116 -48h-20v72h11c53 1 88 43 88 107v509h76z" />
    <glyph glyph-name="ij" unicode="&#x133;" horiz-adv-x="458" 
d="M152 461v-461h-76v461h76zM115 640c28 0 49 -22 49 -50c0 -27 -22 -48 -49 -48c-28 0 -49 21 -49 49s21 49 49 49zM382 461v-509c0 -63 -11 -101 -39 -131c-28 -31 -69 -48 -116 -48h-20v72h11c53 1 88 43 88 107v509h76zM344 640c28 0 49 -22 49 -50
c0 -27 -22 -48 -49 -48c-28 0 -49 21 -49 49s21 49 49 49z" />
    <glyph glyph-name="uni01CE" unicode="&#x1ce;" horiz-adv-x="577" 
d="M424 385v76h76v-461h-76v89c-46 -69 -98 -100 -168 -100c-127 0 -217 100 -217 240c0 141 92 243 219 243c70 0 121 -27 166 -87zM269 404c-50 0 -85 -17 -112 -55c-24 -33 -38 -77 -38 -122c0 -98 64 -172 148 -172c87 0 158 81 158 180c0 100 -64 169 -156 169z
M289 577l72 84h66l-104 -133h-72l-101 133h66z" />
    <glyph glyph-name="abreve" unicode="&#x103;" horiz-adv-x="577" 
d="M424 385v76h76v-461h-76v89c-46 -69 -98 -100 -168 -100c-127 0 -217 100 -217 240c0 141 92 243 219 243c70 0 121 -27 166 -87zM269 404c-50 0 -85 -17 -112 -55c-24 -33 -38 -77 -38 -122c0 -98 64 -172 148 -172c87 0 158 81 158 180c0 100 -64 169 -156 169z
M121 655h62c19 -37 43 -51 86 -51c44 0 68 14 87 51h62c-17 -65 -72 -103 -149 -103c-76 0 -131 38 -148 103z" />
    <glyph glyph-name="aogonek" unicode="&#x105;" horiz-adv-x="577" 
d="M500 0h-22c-3 -3 -7 -6 -11 -9c-37 -31 -50 -50 -50 -75c0 -26 22 -43 54 -43c11 0 20 1 36 6l9 -46c-22 -8 -33 -10 -54 -10c-59 0 -101 33 -101 79c0 37 22 70 64 98h-1v89c-46 -69 -98 -100 -168 -100c-127 0 -217 100 -217 240c0 141 92 243 219 243
c70 0 121 -27 166 -87v76h76v-461zM269 404c-50 0 -85 -17 -112 -55c-24 -33 -38 -77 -38 -122c0 -98 64 -172 148 -172c87 0 158 81 158 180c0 100 -64 169 -156 169z" />
    <glyph glyph-name="cacute" unicode="&#x107;" horiz-adv-x="457" 
d="M388 109l47 -52c-52 -47 -103 -68 -170 -68c-132 0 -226 100 -226 240c0 143 95 243 230 243c66 0 120 -22 168 -69l-49 -49c-35 32 -74 48 -117 48c-91 0 -154 -70 -154 -170c0 -102 63 -173 153 -173c45 0 81 15 118 50zM331 660h90l-118 -132h-54z" />
    <glyph glyph-name="ccaron" unicode="&#x10d;" horiz-adv-x="457" 
d="M388 109l47 -52c-52 -47 -103 -68 -170 -68c-132 0 -226 100 -226 240c0 143 95 243 230 243c66 0 120 -22 168 -69l-49 -49c-35 32 -74 48 -117 48c-91 0 -154 -70 -154 -170c0 -102 63 -173 153 -173c45 0 81 15 118 50zM282 577l73 84h65l-104 -133h-72l-101 133h66z
" />
    <glyph glyph-name="cdotaccent" unicode="&#x10b;" horiz-adv-x="457" 
d="M388 109l47 -52c-52 -47 -103 -68 -170 -68c-132 0 -226 100 -226 240c0 143 95 243 230 243c66 0 120 -22 168 -69l-49 -49c-35 32 -74 48 -117 48c-91 0 -154 -70 -154 -170c0 -102 63 -173 153 -173c45 0 81 15 118 50zM281 640c27 0 47 -20 47 -48
c0 -26 -20 -46 -47 -46s-47 20 -47 47s20 47 47 47z" />
    <glyph glyph-name="dcaron" unicode="&#x10f;" horiz-adv-x="728" 
d="M421 391v276h76v-667h-76v79c-46 -63 -95 -90 -165 -90c-127 0 -217 99 -217 239s92 244 217 244c68 0 120 -25 165 -81zM272 404c-91 0 -153 -72 -153 -177c0 -101 61 -172 148 -172c89 0 154 74 154 174c0 104 -61 175 -149 175zM689 656l-91 -204l-55 19l81 209z" />
    <glyph glyph-name="dcroat" unicode="&#x111;" horiz-adv-x="574" 
d="M421 585v82h76v-82h73v-61h-73v-524h-76v79c-47 -63 -95 -90 -165 -90c-127 0 -217 99 -217 239c0 141 92 244 216 244c69 0 120 -25 166 -81v133h-137v61h137zM272 404c-91 0 -153 -73 -153 -177c0 -101 61 -172 148 -172c89 0 154 74 154 174c0 104 -61 175 -149 175z
" />
    <glyph glyph-name="ecaron" unicode="&#x11b;" horiz-adv-x="539" 
d="M504 206h-384c4 -39 11 -59 30 -84c30 -41 74 -63 124 -63c57 0 111 31 138 79l67 -25c-38 -77 -117 -124 -205 -124c-137 0 -235 100 -235 240c0 142 97 243 232 243c134 0 234 -101 234 -236c0 -6 0 -19 -1 -30zM121 262h303c-3 36 -10 56 -26 79
c-29 39 -76 63 -127 63s-97 -24 -124 -64c-14 -22 -20 -41 -26 -78zM270 577l73 84h65l-104 -133h-72l-101 133h66z" />
    <glyph glyph-name="edotaccent" unicode="&#x117;" horiz-adv-x="539" 
d="M504 206h-384c4 -39 11 -59 30 -84c30 -41 74 -63 124 -63c57 0 111 31 138 79l67 -25c-38 -77 -117 -124 -205 -124c-137 0 -235 100 -235 240c0 142 97 243 232 243c134 0 234 -101 234 -236c0 -6 0 -19 -1 -30zM121 262h303c-3 36 -10 56 -26 79
c-29 39 -76 63 -127 63s-97 -24 -124 -64c-14 -22 -20 -41 -26 -78zM269 640c27 0 47 -20 47 -48c0 -26 -20 -46 -47 -46s-47 20 -47 47s20 47 47 47z" />
    <glyph glyph-name="eogonek" unicode="&#x119;" horiz-adv-x="539" 
d="M412 138l67 -25c-22 -50 -77 -96 -138 -115c-49 -39 -60 -55 -60 -82c0 -26 22 -43 55 -43c10 0 19 1 36 6l9 -46c-22 -8 -34 -10 -54 -10c-60 0 -102 33 -102 79c0 31 17 61 49 87c-141 3 -235 100 -235 240c0 142 97 243 232 243c134 0 234 -101 234 -236
c0 -6 0 -19 -1 -30h-384c4 -39 11 -59 30 -84c30 -41 74 -63 124 -63c57 0 111 31 138 79zM121 262h303c-3 36 -10 56 -26 79c-29 39 -76 63 -127 63s-97 -24 -124 -64c-14 -22 -20 -41 -26 -78z" />
    <glyph glyph-name="gcaron" unicode="&#x1e7;" horiz-adv-x="570" 
d="M417 382v79h76v-464c0 -77 -19 -129 -61 -169c-41 -40 -100 -61 -170 -61c-86 0 -154 28 -204 84l52 52c21 -22 31 -31 44 -40c26 -16 69 -27 108 -27c48 0 94 17 120 45c23 25 35 62 35 110v97c-45 -68 -98 -99 -170 -99c-122 0 -213 103 -213 240c0 74 27 145 73 189
c37 36 87 54 146 54c70 0 117 -26 164 -90zM267 402c-90 0 -153 -70 -153 -170c0 -99 64 -173 151 -173c44 0 87 21 117 56c20 23 33 68 33 114c0 60 -9 92 -36 122c-28 31 -71 51 -112 51zM285 577l73 84h65l-104 -133h-72l-101 133h66z" />
    <glyph glyph-name="gbreve" unicode="&#x11f;" horiz-adv-x="570" 
d="M417 382v79h76v-464c0 -77 -19 -129 -61 -169c-41 -40 -100 -61 -170 -61c-86 0 -154 28 -204 84l52 52c21 -22 31 -31 44 -40c26 -16 69 -27 108 -27c48 0 94 17 120 45c23 25 35 62 35 110v97c-45 -68 -98 -99 -170 -99c-122 0 -213 103 -213 240c0 74 27 145 73 189
c37 36 87 54 146 54c70 0 117 -26 164 -90zM267 402c-90 0 -153 -70 -153 -170c0 -99 64 -173 151 -173c44 0 87 21 117 56c20 23 33 68 33 114c0 60 -9 92 -36 122c-28 31 -71 51 -112 51zM115 655h62c19 -37 43 -51 86 -51c44 0 67 14 87 51h62
c-17 -65 -72 -103 -149 -103c-76 0 -131 38 -148 103z" />
    <glyph glyph-name="gdotaccent" unicode="&#x121;" horiz-adv-x="570" 
d="M417 382v79h76v-464c0 -77 -19 -129 -61 -169c-41 -40 -100 -61 -170 -61c-86 0 -154 28 -204 84l52 52c21 -22 31 -31 44 -40c26 -16 69 -27 108 -27c48 0 94 17 120 45c23 25 35 62 35 110v97c-45 -68 -98 -99 -170 -99c-122 0 -213 103 -213 240c0 74 27 145 73 189
c37 36 87 54 146 54c70 0 117 -26 164 -90zM267 402c-90 0 -153 -70 -153 -170c0 -99 64 -173 151 -173c44 0 87 21 117 56c20 23 33 68 33 114c0 60 -9 92 -36 122c-28 31 -71 51 -112 51zM264 640c27 0 47 -20 47 -48c0 -26 -20 -46 -47 -46s-47 20 -47 47s20 47 47 47z
" />
    <glyph glyph-name="lacute" unicode="&#x13a;" horiz-adv-x="229" 
d="M152 0h-76v667h76v-667zM160 850h91l-120 -131h-60z" />
    <glyph glyph-name="lcaron" unicode="&#x13e;" horiz-adv-x="384" 
d="M152 0h-76v667h76v-667zM345 656l-92 -204l-55 19l81 209z" />
    <glyph glyph-name="nacute" unicode="&#x144;" horiz-adv-x="509" 
d="M76 461h76v-65c40 54 80 76 137 76c42 0 80 -14 107 -38c29 -28 39 -60 39 -123v-311h-76v294c0 41 -5 63 -17 79c-13 19 -41 31 -72 31c-34 0 -65 -13 -88 -39c-22 -24 -30 -46 -30 -84v-281h-76v461zM297 660h90l-118 -132h-55z" />
    <glyph glyph-name="ncaron" unicode="&#x148;" horiz-adv-x="509" 
d="M76 461h76v-65c40 54 80 76 137 76c42 0 80 -14 107 -38c29 -28 39 -60 39 -123v-311h-76v294c0 41 -5 63 -17 79c-13 19 -41 31 -72 31c-34 0 -65 -13 -88 -39c-22 -24 -30 -46 -30 -84v-281h-76v461zM255 577l72 84h65l-103 -133h-72l-101 133h65z" />
    <glyph glyph-name="ohungarumlaut" unicode="&#x151;" horiz-adv-x="548" 
d="M275 472c136 0 233 -101 233 -243c0 -135 -104 -240 -236 -240c-137 0 -233 100 -233 242c0 143 96 241 236 241zM275 402c-95 0 -158 -69 -158 -172c0 -102 63 -171 157 -171c91 0 156 71 156 171c0 103 -62 172 -155 172zM234 659h83l-99 -131h-49zM381 659h83
l-98 -131h-50z" />
    <glyph glyph-name="racute" unicode="&#x155;" horiz-adv-x="318" 
d="M76 461h76v-78c14 33 24 47 42 61c23 18 55 28 88 28h18v-77c-8 1 -16 1 -21 1c-41 0 -77 -19 -100 -53c-20 -29 -27 -56 -27 -109v-234h-76v461zM202 660h89l-118 -132h-54z" />
    <glyph glyph-name="sacute" unicode="&#x15b;" horiz-adv-x="411" 
d="M365 335h-76v5c0 43 -35 70 -88 70c-51 0 -83 -26 -83 -66s20 -55 103 -78c59 -16 90 -31 112 -53c23 -23 37 -56 37 -90c0 -80 -66 -134 -164 -134c-105 0 -164 49 -172 142h75c5 -52 39 -80 97 -80c52 0 86 27 86 68c0 40 -26 60 -105 80c-100 27 -145 69 -145 139
c0 80 65 134 162 134c98 0 157 -50 161 -137zM249 660h89l-117 -132h-55z" />
    <glyph glyph-name="scircumflex" unicode="&#x15d;" horiz-adv-x="411" 
d="M365 335h-76v5c0 43 -35 70 -88 70c-51 0 -83 -26 -83 -66s20 -55 103 -78c59 -16 90 -31 112 -53c23 -23 37 -56 37 -90c0 -80 -66 -134 -164 -134c-105 0 -164 49 -172 142h75c5 -52 39 -80 97 -80c52 0 86 27 86 68c0 40 -26 60 -105 80c-100 27 -145 69 -145 139
c0 80 65 134 162 134c98 0 157 -50 161 -137zM205 612l-73 -84h-65l104 133h72l101 -133h-66z" />
    <glyph glyph-name="scommaaccent" unicode="&#x219;" horiz-adv-x="411" 
d="M365 335h-76v5c0 43 -35 70 -88 70c-51 0 -83 -26 -83 -66s20 -55 103 -78c59 -16 90 -31 112 -53c23 -23 37 -56 37 -90c0 -80 -66 -134 -164 -134c-105 0 -164 49 -172 142h75c5 -52 39 -80 97 -80c52 0 86 27 86 68c0 40 -26 60 -105 80c-100 27 -145 69 -145 139
c0 80 65 134 162 134c98 0 157 -50 161 -137zM238 -56v-56c0 -62 -16 -85 -81 -110v34c3 2 5 4 6 4l20 11c11 7 18 23 19 47h-33v70h69z" />
    <glyph glyph-name="tcaron" unicode="&#x165;" horiz-adv-x="480" 
d="M157 394v-300c0 -22 8 -28 35 -28h35v-66h-71c-53 0 -75 21 -75 72v322h-64v67h64v145h76v-145h70v-67h-70zM442 656l-92 -204l-55 19l81 209z" />
    <glyph glyph-name="uring" unicode="&#x16f;" horiz-adv-x="485" 
d="M344 461h77v-295c0 -63 -12 -98 -46 -129s-82 -48 -133 -48c-52 0 -100 18 -133 49c-31 30 -46 72 -46 128v295h76v-293c0 -65 42 -111 103 -111c32 0 63 13 81 35c15 18 21 38 21 74v295zM243 677c45 0 79 -35 79 -81c0 -43 -36 -78 -80 -78c-45 0 -80 35 -80 79
c0 45 35 80 81 80zM242 645c-27 0 -48 -20 -48 -48c0 -27 21 -47 48 -47s48 21 48 47c0 27 -20 48 -48 48z" />
    <glyph glyph-name="uhungarumlaut" unicode="&#x171;" horiz-adv-x="485" 
d="M344 461h77v-295c0 -63 -12 -98 -46 -129s-82 -48 -133 -48c-52 0 -100 18 -133 49c-31 30 -46 72 -46 128v295h76v-293c0 -65 42 -111 103 -111c32 0 63 13 81 35c15 18 21 38 21 74v295zM202 659h83l-98 -131h-50zM349 659h83l-98 -131h-50z" />
    <glyph glyph-name="zacute" unicode="&#x17a;" horiz-adv-x="401" 
d="M150 67h212v-67h-340l240 394h-214v67h339zM244 660h90l-118 -132h-55z" />
    <glyph glyph-name="zdotaccent" unicode="&#x17c;" horiz-adv-x="401" 
d="M150 67h212v-67h-340l240 394h-214v67h339zM201 640c27 0 47 -20 47 -48c0 -26 -20 -46 -47 -46s-47 20 -47 47s20 47 47 47z" />
    <glyph glyph-name="hbar" unicode="&#x127;" horiz-adv-x="508" 
d="M153 590h152v-49h-152v-144c42 52 84 75 138 75c41 0 84 -16 108 -42c25 -25 36 -61 36 -120v-310h-76v306c0 62 -31 98 -86 98c-35 0 -66 -14 -90 -41c-23 -26 -30 -49 -30 -93v-270h-76v541h-62v49h62v77h76v-77z" />
    <glyph glyph-name="tcommaaccent" unicode="&#x163;" horiz-adv-x="259" 
d="M157 394v-300c0 -22 8 -28 35 -28h35v-66h-71c-53 0 -75 21 -75 72v322h-64v67h64v145h76v-145h70v-67h-70zM163 -56v-56c0 -62 -16 -85 -81 -110v34c3 2 5 4 6 4l20 11c11 7 18 23 19 47h-33v70h69z" />
    <glyph glyph-name="uni021B" unicode="&#x21b;" horiz-adv-x="259" 
d="M157 394v-300c0 -22 8 -28 35 -28h35v-66h-71c-53 0 -75 21 -75 72v322h-64v67h64v145h76v-145h70v-67h-70zM163 -56v-56c0 -62 -16 -85 -81 -110v34c3 2 5 4 6 4l20 11c11 7 18 23 19 47h-33v70h69z" />
    <glyph glyph-name="amacron" unicode="&#x101;" horiz-adv-x="577" 
d="M424 385v76h76v-461h-76v89c-46 -69 -98 -100 -168 -100c-127 0 -217 100 -217 240c0 141 92 243 219 243c70 0 121 -27 166 -87zM269 404c-50 0 -85 -17 -112 -55c-24 -33 -38 -77 -38 -122c0 -98 64 -172 148 -172c87 0 158 81 158 180c0 100 -64 169 -156 169z
M405 624v-62h-271v62h271z" />
    <glyph glyph-name="ycircumflex" unicode="&#x177;" horiz-adv-x="438" 
d="M211 119l138 342h83l-275 -683h-83l96 236l-164 447h81zM218 612l-72 -84h-66l104 133h72l101 -133h-66z" />
    <glyph glyph-name="emacron" unicode="&#x113;" horiz-adv-x="539" 
d="M504 206h-384c4 -39 11 -59 30 -84c30 -41 74 -63 124 -63c57 0 111 31 138 79l67 -25c-38 -77 -117 -124 -205 -124c-137 0 -235 100 -235 240c0 142 97 243 232 243c134 0 234 -101 234 -236c0 -6 0 -19 -1 -30zM121 262h303c-3 36 -10 56 -26 79
c-29 39 -76 63 -127 63s-97 -24 -124 -64c-14 -22 -20 -41 -26 -78zM408 624v-62h-272v62h272z" />
    <glyph glyph-name="gcircumflex" unicode="&#x11d;" horiz-adv-x="570" 
d="M417 382v79h76v-464c0 -77 -19 -129 -61 -169c-41 -40 -100 -61 -170 -61c-86 0 -154 28 -204 84l52 52c21 -22 31 -31 44 -40c26 -16 69 -27 108 -27c48 0 94 17 120 45c23 25 35 62 35 110v97c-45 -68 -98 -99 -170 -99c-122 0 -213 103 -213 240c0 74 27 145 73 189
c37 36 87 54 146 54c70 0 117 -26 164 -90zM267 402c-90 0 -153 -70 -153 -170c0 -99 64 -173 151 -173c44 0 87 21 117 56c20 23 33 68 33 114c0 60 -9 92 -36 122c-28 31 -71 51 -112 51zM284 612l-73 -84h-65l104 133h72l101 -133h-66z" />
    <glyph glyph-name="ibreve" unicode="&#x12d;" horiz-adv-x="229" 
d="M152 461v-461h-76v461h76zM-34 655h62c19 -37 43 -51 87 -51c43 0 67 14 86 51h62c-17 -65 -71 -103 -148 -103s-132 38 -149 103z" />
    <glyph glyph-name="imacron" unicode="&#x12b;" horiz-adv-x="229" 
d="M153 461v-461h-76v461h76zM251 624v-62h-272v62h272z" />
    <glyph glyph-name="kcommaaccent" unicode="&#x137;" horiz-adv-x="444" 
d="M152 206v-206h-76v667h76v-408l184 202h96l-206 -225l205 -236h-95zM254 -56v-56c0 -62 -16 -85 -81 -110v34c3 2 5 4 6 4l20 11c11 7 18 23 19 47h-33v70h69z" />
    <glyph glyph-name="lcommaaccent" unicode="&#x13c;" horiz-adv-x="229" 
d="M152 0h-76v667h76v-667zM147 -56v-56c0 -62 -16 -85 -81 -110v34c3 2 5 4 6 4l20 11c11 7 18 23 19 47h-33v70h69z" />
    <glyph glyph-name="ncommaaccent" unicode="&#x146;" horiz-adv-x="509" 
d="M76 461h76v-65c40 54 80 76 137 76c42 0 80 -14 107 -38c29 -28 39 -60 39 -123v-311h-76v294c0 41 -5 63 -17 79c-13 19 -41 31 -72 31c-34 0 -65 -13 -88 -39c-22 -24 -30 -46 -30 -84v-281h-76v461zM287 -56v-56c0 -62 -16 -85 -81 -110v34c3 2 5 4 6 4l20 11
c11 7 18 23 19 47h-33v70h69z" />
    <glyph glyph-name="omacron" unicode="&#x14d;" horiz-adv-x="548" 
d="M275 472c136 0 233 -101 233 -243c0 -135 -104 -240 -236 -240c-137 0 -233 100 -233 242c0 143 96 241 236 241zM275 402c-95 0 -158 -69 -158 -172c0 -102 63 -171 157 -171c91 0 156 71 156 171c0 103 -62 172 -155 172zM410 624v-62h-272v62h272z" />
    <glyph glyph-name="rcommaaccent" unicode="&#x157;" horiz-adv-x="318" 
d="M76 461h76v-78c14 33 24 47 42 61c23 18 55 28 88 28h18v-77c-8 1 -16 1 -21 1c-41 0 -77 -19 -100 -53c-20 -29 -27 -56 -27 -109v-234h-76v461zM150 -56v-56c0 -62 -16 -85 -81 -110v34c3 2 5 4 6 4l20 11c11 7 18 23 19 47h-33v70h69z" />
    <glyph glyph-name="ubreve" unicode="&#x16d;" horiz-adv-x="485" 
d="M344 461h77v-295c0 -63 -12 -98 -46 -129s-82 -48 -133 -48c-52 0 -100 18 -133 49c-31 30 -46 72 -46 128v295h76v-293c0 -65 42 -111 103 -111c32 0 63 13 81 35c15 18 21 38 21 74v295zM94 655h61c20 -37 44 -51 87 -51c44 0 67 14 87 51h62
c-17 -65 -72 -103 -149 -103s-132 38 -148 103z" />
    <glyph glyph-name="umacron" unicode="&#x16b;" horiz-adv-x="485" 
d="M344 461h77v-295c0 -63 -12 -98 -46 -129s-82 -48 -133 -48c-52 0 -100 18 -133 49c-31 30 -46 72 -46 128v295h76v-293c0 -65 42 -111 103 -111c32 0 63 13 81 35c15 18 21 38 21 74v295zM378 624v-62h-272v62h272z" />
    <glyph glyph-name="uogonek" unicode="&#x173;" horiz-adv-x="485" 
d="M421 461v-295c0 -77 -21 -119 -77 -151c-16 -9 -32 -15 -54 -21c-42 -33 -55 -52 -55 -78s22 -43 55 -43c11 0 19 1 35 6l10 -46c-22 -8 -34 -10 -55 -10c-59 0 -101 33 -101 79c0 32 17 62 49 88c-106 8 -165 71 -165 176v295h76v-293c0 -65 42 -111 103 -111
c32 0 63 13 81 35c15 18 21 38 21 74v295h77z" />
    <glyph glyph-name="rcaron" unicode="&#x159;" horiz-adv-x="318" 
d="M76 461h76v-78c14 33 24 47 42 61c23 18 55 28 88 28h18v-77c-8 1 -16 1 -21 1c-41 0 -77 -19 -100 -53c-20 -29 -27 -56 -27 -109v-234h-76v461zM179 577l73 84h65l-104 -133h-72l-101 133h66z" />
    <glyph glyph-name="scedilla" unicode="&#x15f;" horiz-adv-x="411" 
d="M365 335h-76v5c0 43 -35 70 -88 70c-51 0 -83 -26 -83 -66s20 -55 103 -78c59 -16 90 -31 112 -53c23 -23 37 -56 37 -90c0 -80 -66 -134 -164 -134c-105 0 -164 49 -172 142h75c5 -52 39 -80 97 -80c52 0 86 27 86 68c0 40 -26 60 -105 80c-100 27 -145 69 -145 139
c0 80 65 134 162 134c98 0 157 -50 161 -137zM123 -213l-32 34c52 30 81 67 99 126l63 -24c-31 -64 -67 -102 -130 -136z" />
    <glyph glyph-name="gcommaaccent" unicode="&#x123;" horiz-adv-x="570" 
d="M417 382v79h76v-464c0 -77 -19 -129 -61 -169c-41 -40 -100 -61 -170 -61c-86 0 -154 28 -204 84l52 52c21 -22 31 -31 44 -40c26 -16 69 -27 108 -27c48 0 94 17 120 45c23 25 35 62 35 110v97c-45 -68 -98 -99 -170 -99c-122 0 -213 103 -213 240c0 74 27 145 73 189
c37 36 87 54 146 54c70 0 117 -26 164 -90zM267 402c-90 0 -153 -70 -153 -170c0 -99 64 -173 151 -173c44 0 87 21 117 56c20 23 33 68 33 114c0 60 -9 92 -36 122c-28 31 -71 51 -112 51zM199 576l91 203l56 -19l-81 -209z" />
    <glyph glyph-name="ahungarumlaut" horiz-adv-x="577" 
d="M424 385v76h76v-461h-76v89c-46 -69 -98 -100 -168 -100c-127 0 -217 100 -217 240c0 141 92 243 219 243c70 0 121 -27 166 -87zM269 404c-50 0 -85 -17 -112 -55c-24 -33 -38 -77 -38 -122c0 -98 64 -172 148 -172c87 0 158 81 158 180c0 100 -64 169 -156 169z
M248 659h83l-98 -131h-50zM395 659h83l-98 -131h-50z" />
    <glyph glyph-name="adotaccent" horiz-adv-x="577" 
d="M424 385v76h76v-461h-76v89c-46 -69 -98 -100 -168 -100c-127 0 -217 100 -217 240c0 141 92 243 219 243c70 0 121 -27 166 -87zM269 404c-50 0 -85 -17 -112 -55c-24 -33 -38 -77 -38 -122c0 -98 64 -172 148 -172c87 0 158 81 158 180c0 100 -64 169 -156 169z
M288 640c27 0 47 -20 47 -48c0 -26 -20 -46 -47 -46s-47 20 -47 47s20 47 47 47z" />
    <glyph glyph-name="Euro" unicode="&#x20ac;" 
d="M36 428h33c6 27 11 48 19 70c36 107 128 181 223 181c64 0 130 -33 178 -89l-36 -83c-35 60 -87 94 -143 94c-71 0 -130 -66 -154 -173h258l-29 -69h-237c-1 -7 -1 -10 -1 -19c0 -13 1 -25 2 -41h216l-29 -69h-176c21 -97 84 -164 152 -164c57 0 110 34 144 91v-110
c-39 -36 -97 -59 -146 -59c-112 0 -209 99 -239 242h-64l29 69h26c-1 14 -1 23 -1 36c0 7 0 15 1 24h-55z" />
    <glyph glyph-name="peseta" unicode="&#x20a7;" horiz-adv-x="881" 
d="M167 255v-255h-84v667h178c158 0 245 -72 245 -204c0 -66 -26 -125 -71 -162c-39 -31 -91 -46 -165 -46h-103zM167 327h87c36 0 60 3 83 12c51 18 84 65 84 122s-32 103 -85 121c-26 9 -53 13 -93 13h-76v-268zM541 233v-174c0 -11 3 -13 17 -13h26v-46h-48
c-35 0 -50 14 -50 46v187h-40v46h40v85h55v-85h43v-46h-43zM847 198h-55v7c-1 23 -19 37 -50 37c-30 0 -48 -13 -48 -36c0 -21 11 -29 61 -42c69 -18 96 -43 96 -88c0 -49 -43 -82 -106 -82c-69 0 -106 30 -111 90h55c2 -32 21 -47 57 -47c29 0 49 14 49 37
c0 22 -15 32 -62 44c-65 16 -94 42 -94 85c0 49 43 82 105 82c64 0 102 -32 103 -87z" />
    <glyph glyph-name="lira" unicode="&#x20a4;" horiz-adv-x="599" 
d="M353 369v-32h-115c22 -42 25 -50 32 -87h85v-32h-90c-3 -59 -26 -100 -84 -148c7 3 14 6 16 7c31 14 49 19 75 19c28 0 35 -2 119 -31c14 -5 29 -7 44 -7c40 0 88 26 121 65l32 -66c-48 -47 -103 -73 -154 -73c-28 0 -52 6 -101 24c-48 17 -70 23 -93 23
c-35 0 -66 -12 -107 -42l-44 64c60 39 99 104 100 165h-116v32h114c-11 40 -16 52 -39 87h-75v32h57c-29 53 -37 76 -37 110c0 54 28 107 75 140c40 30 96 45 163 45c95 0 164 -31 202 -92c21 -34 32 -78 34 -142h-76c-4 114 -53 167 -157 167c-92 0 -154 -48 -154 -120
c0 -32 6 -48 41 -108h132z" />
    <glyph glyph-name="franc" unicode="&#x20a3;" horiz-adv-x="674" 
d="M167 595v-223h260v-72h-260v-300h-84v667h344v-72h-260zM433 461h76v-78c14 33 24 47 42 61c23 18 55 28 87 28h18v-77c-8 1 -16 1 -21 1c-41 0 -76 -19 -99 -53c-20 -29 -27 -56 -27 -109v-234h-76v461z" />
    <glyph glyph-name="one.numerator" horiz-adv-x="230" 
d="M116 611l-64 -39v36l104 63v-278h-40v218z" />
    <glyph glyph-name="two.numerator" horiz-adv-x="230" 
d="M90 428h100v-35h-171l104 138c31 42 36 50 36 66c0 22 -19 37 -46 37c-31 0 -44 -14 -45 -50h-38c2 55 31 84 85 84c49 0 84 -28 84 -69c0 -23 -9 -43 -34 -75z" />
    <glyph glyph-name="three.numerator" horiz-adv-x="230" 
d="M133 629h-98v34h173l-85 -100c47 -1 83 -37 83 -83c0 -52 -42 -91 -99 -91c-48 0 -80 24 -92 69l37 7c8 -27 26 -41 53 -41c34 0 61 23 61 53c0 31 -25 52 -62 52c-13 0 -21 -2 -35 -9l-17 14z" />
    <glyph glyph-name="four.numerator" horiz-adv-x="230" 
d="M136 453h-116v29l155 193v-187h34v-35h-34v-60h-39v60zM137 487v95l-75 -95h75z" />
    <glyph glyph-name="five.numerator" horiz-adv-x="230" 
d="M76 628v-65c12 5 26 7 40 7c53 0 92 -38 92 -89c0 -54 -42 -92 -100 -92c-44 0 -75 20 -91 59l37 13c13 -26 27 -36 54 -36c34 0 60 25 60 56c0 33 -25 55 -62 55c-24 0 -34 -4 -68 -30v157h132v-35h-94z" />
    <glyph glyph-name="six.numerator" horiz-adv-x="230" 
d="M173 663l-73 -105c8 2 11 2 21 2c51 0 89 -35 89 -82c0 -49 -43 -89 -97 -89c-53 0 -94 39 -94 89c0 20 6 35 23 61l84 124h47zM115 528c-31 0 -56 -22 -56 -51s24 -53 55 -53s56 23 56 52s-24 52 -55 52z" />
    <glyph glyph-name="seven.numerator" horiz-adv-x="230" 
d="M150 628h-110v35h168l-117 -270h-44z" />
    <glyph glyph-name="eight.numerator" horiz-adv-x="230" 
d="M159 542c31 -11 49 -36 49 -69c0 -49 -39 -84 -94 -84c-54 0 -92 34 -92 81c0 35 18 61 50 72c-24 9 -39 31 -39 57c0 40 35 69 83 69s82 -29 82 -69c0 -26 -14 -47 -39 -57zM116 635c-27 0 -45 -15 -45 -36c0 -22 19 -39 44 -39c24 0 45 18 45 38s-20 37 -44 37z
M116 522c-30 0 -54 -22 -54 -49s24 -49 53 -49s53 22 53 49s-24 49 -52 49z" />
    <glyph glyph-name="nine.numerator" horiz-adv-x="230" 
d="M58 393l72 106c-8 -3 -13 -4 -21 -4c-51 0 -90 37 -90 84c0 50 43 89 97 89s94 -38 94 -88c0 -21 -5 -36 -21 -59l-84 -128h-47zM116 633c-32 0 -57 -23 -57 -53c0 -29 24 -52 55 -52c32 0 56 22 56 52s-24 53 -54 53z" />
    <glyph glyph-name="zero.numerator" horiz-adv-x="230" 
d="M204 583v-106c0 -58 -31 -88 -89 -88c-29 0 -53 9 -69 24c-16 16 -20 31 -20 73v88c0 36 5 53 18 68c15 17 40 26 70 26c27 0 50 -7 66 -21c18 -15 24 -31 24 -64zM66 574v-90c0 -30 1 -36 10 -45s24 -15 39 -15c34 0 49 17 49 55v103c0 33 -17 51 -49 51
c-35 0 -49 -17 -49 -59z" />
    <glyph glyph-name="one.denominator" horiz-adv-x="230" 
d="M116 217l-64 -39v37l104 62v-277h-40v217z" />
    <glyph glyph-name="two.denominator" horiz-adv-x="230" 
d="M90 35h100v-35h-171l104 138c31 41 36 49 36 65c0 22 -19 37 -46 37c-31 0 -44 -14 -45 -50h-38c2 55 31 84 85 84c49 0 84 -28 84 -69c0 -23 -9 -42 -34 -74z" />
    <glyph glyph-name="three.denominator" horiz-adv-x="230" 
d="M133 235h-98v34h173l-85 -100c47 -1 83 -37 83 -83c0 -52 -42 -90 -99 -90c-48 0 -80 24 -92 68l37 7c8 -26 26 -40 53 -40c34 0 61 23 61 53s-25 51 -62 51c-13 0 -21 -2 -35 -9l-17 14z" />
    <glyph glyph-name="four.denominator" horiz-adv-x="230" 
d="M136 60h-116v28l155 192v-186h34v-34h-34v-60h-39v60zM137 94v94l-75 -94h75z" />
    <glyph glyph-name="five.denominator" horiz-adv-x="230" 
d="M76 234v-64c13 4 26 6 40 6c53 0 92 -37 92 -88c0 -54 -42 -92 -100 -92c-44 0 -75 20 -91 59l37 12c13 -26 27 -36 54 -36c34 0 60 25 60 56c0 33 -25 55 -62 55c-24 0 -33 -4 -68 -30v157h132v-35h-94z" />
    <glyph glyph-name="six.denominator" horiz-adv-x="230" 
d="M173 269l-73 -105c8 2 12 3 21 3c51 0 89 -35 89 -83c0 -49 -43 -89 -97 -89c-53 0 -94 39 -94 89c0 20 6 36 23 61l84 124h47zM115 135c-31 0 -56 -22 -56 -51c0 -30 24 -54 55 -54s56 23 56 53c0 29 -24 52 -55 52z" />
    <glyph glyph-name="seven.denominator" horiz-adv-x="230" 
d="M150 234h-110v35h168l-117 -269h-44z" />
    <glyph glyph-name="eight.denominator" horiz-adv-x="230" 
d="M159 148c31 -10 49 -36 49 -69c0 -49 -39 -84 -94 -84c-54 0 -92 34 -92 81c0 35 18 61 50 72c-24 10 -39 31 -39 57c0 40 35 69 83 69s82 -29 82 -69c0 -25 -14 -47 -39 -57zM116 241c-27 0 -45 -15 -45 -36s19 -38 44 -38c24 0 45 18 45 38c0 19 -20 36 -44 36z
M116 129c-30 0 -54 -22 -54 -49c0 -28 24 -50 53 -50c30 0 53 22 53 50c0 27 -24 49 -52 49z" />
    <glyph glyph-name="nine.denominator" horiz-adv-x="230" 
d="M58 0l72 105c-9 -2 -13 -3 -21 -3c-51 0 -90 37 -90 84c0 49 43 88 97 88s94 -38 94 -87c0 -21 -5 -36 -21 -60l-84 -127h-47zM116 239c-32 0 -57 -23 -57 -52s24 -52 55 -52c32 0 56 22 56 52c0 29 -24 52 -54 52z" />
    <glyph glyph-name="zero.denominator" horiz-adv-x="230" 
d="M204 190v-107c0 -57 -31 -87 -89 -87c-29 0 -54 9 -69 24c-16 15 -20 31 -20 72v89c0 35 5 52 18 67c15 17 40 26 70 26c27 0 49 -7 66 -21c18 -14 24 -31 24 -63zM66 180v-90c0 -30 1 -35 10 -44s24 -15 39 -15c34 0 49 17 49 55v102c0 33 -17 51 -49 51
c-35 0 -49 -17 -49 -59z" />
    <glyph glyph-name="uni0387" unicode="&#x387;" horiz-adv-x="231" 
d="M115 295c30 0 52 -22 52 -53c0 -29 -23 -51 -52 -51c-30 0 -52 22 -52 52s22 52 52 52z" />
    <glyph glyph-name="dotmath" unicode="&#x22c5;" horiz-adv-x="231" 
d="M115 295c30 0 52 -22 52 -53c0 -29 -23 -51 -52 -51c-30 0 -52 22 -52 52s22 52 52 52z" />
    <glyph glyph-name="afii57929" unicode="&#x2bc;" horiz-adv-x="221" 
d="M183 656l-92 -204l-55 19l81 209z" />
    <glyph glyph-name="uni00AD" unicode="&#xad;" horiz-adv-x="207" 
d="M207 277v-69h-207v69h207z" />
    <glyph glyph-name="uni2011" unicode="&#x2011;" horiz-adv-x="207" 
d="M207 277v-69h-207v69h207z" />
    <glyph glyph-name="afii00208" unicode="&#x2015;" horiz-adv-x="622" 
d="M622 274v-64h-622v64h622z" />
    <glyph glyph-name="afii61248" unicode="&#x2105;" horiz-adv-x="337" 
d="M169 399c25 0 46 -21 46 -46c0 -26 -21 -47 -46 -47c-26 0 -47 21 -47 46c0 26 21 47 47 47z" />
    <glyph glyph-name="uni2101" unicode="&#x2101;" horiz-adv-x="900" 
d="M301 358h-180l-37 -91h-63l159 400h67l154 -400h-66zM282 407l-70 183l-73 -183h143zM759 648l-457 -661l-33 23l457 660zM606 112h57c2 -45 24 -68 69 -68c44 0 75 26 75 63c0 33 -17 48 -80 68c-50 16 -66 24 -85 40c-22 19 -34 46 -34 77c0 68 52 115 127 115
c77 0 126 -46 127 -119h-60c-1 46 -23 68 -67 68c-40 0 -67 -25 -67 -60c0 -18 8 -34 22 -43c12 -9 23 -13 65 -28c82 -27 113 -58 113 -115c0 -70 -55 -117 -135 -117c-76 0 -128 43 -128 108c0 2 0 6 1 11z" />
    <glyph glyph-name="uni2236" unicode="&#x2236;" horiz-adv-x="337" 
d="M169 543c21 0 39 -18 39 -40s-18 -40 -40 -40s-40 18 -40 40s18 40 41 40zM169 241c21 0 39 -18 39 -40s-18 -40 -40 -40s-40 18 -40 40s18 40 41 40z" />
    <glyph glyph-name="oneone" horiz-adv-x="780" 
d="M165 581l-91 -57v53l148 92v-406h-57v318zM635 648l-457 -661l-33 23l457 660zM617 318l-91 -57v53l148 92v-406h-57v318z" />
    <glyph glyph-name="onefifth" horiz-adv-x="780" 
d="M165 581l-91 -57v53l148 92v-406h-57v318zM635 648l-457 -661l-33 23l457 660zM561 343v-94c19 6 36 9 56 9c76 0 132 -55 132 -130c0 -79 -59 -135 -143 -135c-63 0 -107 29 -130 87l53 19c19 -40 39 -54 77 -54c48 0 85 36 85 83c0 48 -36 81 -88 81
c-34 0 -49 -7 -97 -44v229h189v-51h-134z" />
    <glyph glyph-name="twofifth" horiz-adv-x="780" 
d="M129 313h142v-51h-244l148 202c42 57 51 74 51 96c0 32 -27 55 -66 55c-44 0 -62 -22 -63 -74h-55c3 81 45 124 122 124c70 0 119 -42 119 -101c0 -34 -13 -65 -48 -110zM635 648l-458 -661l-33 23l458 660zM561 343v-94c19 6 36 9 56 9c75 0 131 -55 131 -130
c0 -79 -59 -135 -142 -135c-63 0 -107 29 -130 87l53 19c19 -40 39 -54 76 -54c48 0 85 36 85 83c0 48 -35 81 -88 81c-33 0 -48 -7 -96 -44v229h188v-51h-133z" />
    <glyph glyph-name="threefifth" horiz-adv-x="780" 
d="M189 607h-140v50h248l-123 -147c69 -2 120 -54 120 -122c0 -76 -60 -132 -141 -132c-70 0 -117 36 -132 101l52 9c11 -38 38 -59 77 -59c49 0 87 34 87 78c0 45 -36 76 -88 76c-20 0 -32 -3 -51 -14l-25 21zM635 648l-458 -661l-33 23l458 660zM561 343v-94
c19 6 36 9 56 9c75 0 131 -55 131 -130c0 -79 -59 -135 -142 -135c-63 0 -107 29 -130 87l53 19c19 -40 39 -54 76 -54c48 0 85 36 85 83c0 48 -35 81 -88 81c-33 0 -48 -7 -96 -44v229h188v-51h-133z" />
    <glyph glyph-name="fourfifth" horiz-adv-x="780" 
d="M195 351h-166v41l222 282v-273h48v-50h-48v-88h-56v88zM196 400v138l-106 -138h106zM635 648l-457 -661l-33 23l457 660zM562 343v-94c19 6 36 9 56 9c75 0 131 -55 131 -130c0 -79 -59 -135 -142 -135c-63 0 -107 29 -130 87l53 19c19 -40 39 -54 76 -54
c48 0 85 36 85 83c0 48 -35 81 -88 81c-33 0 -48 -7 -96 -44v229h188v-51h-133z" />
    <glyph glyph-name="onesixth" horiz-adv-x="780" 
d="M165 581l-91 -57v53l148 92v-406h-57v318zM635 648l-457 -661l-33 23l457 660zM699 394l-104 -154c12 3 18 4 30 4c73 0 128 -51 128 -121c0 -71 -62 -130 -138 -130c-77 0 -136 57 -136 130c0 30 8 51 33 89l120 182h67zM617 197c-45 0 -81 -33 -81 -74
c0 -44 35 -78 80 -78c44 0 80 34 80 76c0 43 -35 76 -79 76z" />
    <glyph glyph-name="fivesixth" horiz-adv-x="780" 
d="M110 600v-95c19 7 36 10 56 10c75 0 131 -55 131 -130c0 -79 -59 -135 -142 -135c-63 0 -107 30 -130 87l53 19c19 -40 39 -54 76 -54c48 0 85 36 85 83c0 48 -35 80 -88 80c-33 0 -47 -6 -96 -44v230h188v-51h-133zM635 648l-457 -661l-33 23l457 660zM700 394
l-105 -154c12 3 18 4 30 4c74 0 128 -51 128 -121c0 -71 -62 -130 -138 -130s-135 57 -135 130c0 30 8 53 32 89l120 182h68zM617 197c-45 0 -80 -33 -80 -74c0 -44 35 -78 79 -78s80 34 80 76c0 43 -35 76 -79 76z" />
    <glyph glyph-name="Dieresis" unicode="&#xf6cb;" 
d="M148 838c29 0 51 -23 51 -52c0 -28 -23 -50 -51 -50c-29 0 -51 22 -51 51s22 51 51 51zM352 838c29 0 51 -23 51 -52c0 -28 -23 -50 -51 -50c-29 0 -51 22 -51 51s22 51 51 51z" />
    <glyph glyph-name="Dotaccent" 
d="M250 838c29 0 51 -23 51 -52c0 -28 -23 -50 -51 -50c-29 0 -51 22 -51 51s22 51 51 51z" />
    <glyph glyph-name="Ring" 
d="M251 868c45 0 79 -35 79 -81c0 -43 -36 -78 -80 -78c-45 0 -80 35 -80 80c0 44 35 79 81 79zM250 836c-27 0 -48 -20 -48 -48c0 -27 21 -47 48 -47s48 21 48 47c0 27 -20 48 -48 48z" />
    <glyph glyph-name="Acute" unicode="&#xf6c9;" 
d="M296 850h91l-120 -131h-60z" />
    <glyph glyph-name="Grave" unicode="&#xf6ce;" 
d="M205 850l88 -131h-60l-120 131h92z" />
    <glyph glyph-name="Circumflex" 
d="M251 802l-76 -83h-66l109 133h69l104 -133h-65z" />
    <glyph glyph-name="Caron" unicode="&#xf6ca;" 
d="M250 769l75 83h66l-108 -133h-70l-104 133h65z" />
    <glyph glyph-name="Breve" 
d="M95 838h65c20 -38 45 -53 90 -53s70 15 90 53h65c-18 -68 -75 -108 -155 -108s-137 40 -155 108z" />
    <glyph glyph-name="Tilde" 
d="M362 834l54 -21c-32 -60 -60 -83 -98 -83c-20 0 -30 3 -71 24c-22 11 -39 17 -49 17c-20 0 -35 -13 -47 -42l-54 16c30 65 56 89 95 89c18 0 34 -5 77 -27c27 -13 36 -17 45 -17c19 0 35 15 48 44z" />
    <glyph glyph-name="Hungarumlaut" unicode="&#xf6cf;" 
d="M207 849h85l-101 -130h-55zM364 849h85l-101 -130h-55z" />
    <glyph glyph-name="Cedilla" 
d="M209 -209l-43 34c51 32 77 66 90 118l78 -27c-21 -50 -61 -90 -125 -125z" />
    <glyph glyph-name="Ogonek" 
d="M378 0h61c-53 -39 -70 -62 -70 -91c0 -24 25 -43 57 -43c12 0 21 2 38 7l9 -51c-24 -9 -36 -11 -58 -11c-62 0 -108 35 -108 83c0 39 25 77 71 106z" />
    <glyph glyph-name="Macron" unicode="&#xf6d0;" 
d="M391 812v-57h-281v57h281z" />
    <glyph glyph-name="commaaccent.sc" 
d="M284 -42v-70c0 -39 -8 -66 -25 -85c-10 -10 -36 -23 -55 -27v33c32 10 45 29 45 65h-35v84h70z" />
    <glyph glyph-name="Comma.high" horiz-adv-x="154" 
d="M116 656l-92 -204l-55 19l81 209z" />
    <glyph glyph-name="Dieresis.alt" 
d="M176 838c29 0 51 -23 51 -52c0 -28 -23 -50 -51 -50c-29 0 -51 22 -51 51s22 51 51 51zM324 838c29 0 51 -23 51 -52c0 -28 -23 -50 -51 -50c-29 0 -51 22 -51 51s22 51 51 51z" />
    <glyph glyph-name="uni02C9" unicode="&#x2c9;" 
d="M386 624v-62h-272v62h272z" />
    <glyph glyph-name="commaaccent" unicode="&#xf6c3;" 
d="M283 -56v-56c0 -62 -16 -85 -81 -110v34c3 2 5 4 6 4l20 11c11 7 18 23 19 47h-33v70h69z" />
    <glyph glyph-name="comma.high" horiz-adv-x="154" 
d="M116 656l-92 -204l-55 19l81 209z" />
    <glyph glyph-name="dieresis.alt" 
d="M180 640c27 0 47 -20 47 -48c0 -26 -20 -46 -47 -46s-47 20 -47 47s20 47 47 47zM319 640c27 0 47 -20 47 -48c0 -26 -20 -46 -47 -46s-47 20 -47 47s20 47 47 47z" />
    <glyph glyph-name="commareversed" horiz-adv-x="154" 
d="M13 477l91 203l56 -19l-81 -209z" />
    <glyph glyph-name="uni2117" unicode="&#x2117;" horiz-adv-x="159" 
d="M107 545v-278h-55v278h55zM79 653c19 0 33 -15 33 -34c0 -18 -15 -32 -33 -32c-19 0 -33 14 -33 33s14 33 33 33z" />
    <glyph glyph-name="zerozero.afrac" horiz-adv-x="278" 
d="M278 351v-38h-278v38h278zM228 583v-106c0 -58 -31 -88 -89 -88c-29 0 -53 9 -69 24c-16 16 -20 31 -20 73v88c0 36 5 53 18 68c15 17 40 26 70 26c27 0 50 -7 66 -21c18 -15 24 -31 24 -64zM90 574v-90c0 -30 1 -36 10 -45s24 -15 39 -15c34 0 49 17 49 55v103
c0 33 -17 51 -49 51c-35 0 -49 -17 -49 -59zM228 190v-107c0 -57 -31 -87 -89 -87c-29 0 -54 9 -69 24c-16 15 -20 31 -20 72v89c0 35 5 52 18 67c15 17 40 26 70 26c27 0 49 -7 66 -21c18 -14 24 -31 24 -63zM90 180v-90c0 -30 1 -35 10 -44s24 -15 39 -15
c34 0 49 17 49 55v102c0 33 -17 51 -49 51c-35 0 -49 -17 -49 -59z" />
    <glyph glyph-name="iogonek" unicode="&#x12f;" horiz-adv-x="229" 
d="M153 461v-461c-51 -42 -62 -56 -62 -84c0 -26 22 -43 55 -43c10 0 19 1 36 6l9 -46c-22 -8 -34 -10 -54 -10c-60 0 -102 33 -102 79c0 37 22 70 65 98h-23v461h76zM115 640c28 0 49 -22 49 -50c0 -27 -22 -48 -49 -48c-28 0 -49 21 -49 49s21 49 49 49z" />
    <glyph glyph-name="ldot" unicode="&#x140;" horiz-adv-x="341" 
d="M152 0h-76v667h76v-667zM285 397c32 0 56 -24 56 -57c0 -31 -24 -55 -56 -55s-56 24 -56 56s24 56 56 56z" />
    <glyph glyph-name="utilde" unicode="&#x169;" horiz-adv-x="485" 
d="M344 461h77v-295c0 -63 -12 -98 -46 -129s-82 -48 -133 -48c-52 0 -100 18 -133 49c-31 30 -46 72 -46 128v295h76v-293c0 -65 42 -111 103 -111c32 0 63 13 81 35c15 18 21 38 21 74v295zM354 640l50 -18c-30 -60 -57 -84 -94 -84c-21 0 -37 7 -86 36
c-15 10 -24 13 -33 13c-20 0 -34 -12 -47 -41l-51 23c28 54 58 78 95 78c25 0 47 -9 93 -39c12 -8 18 -10 27 -10c19 0 34 14 46 42z" />
    <glyph glyph-name="Ldot" unicode="&#x13f;" horiz-adv-x="427" 
d="M167 76h235v-76h-319v667h84v-591zM347 397c32 0 56 -24 56 -57c0 -31 -24 -55 -56 -55s-56 24 -56 56s24 56 56 56z" />
    <glyph glyph-name="Eng" unicode="&#x14a;" horiz-adv-x="649" 
d="M64 657h79v-144c17 44 29 66 51 90c41 45 102 70 171 70c70 0 133 -26 173 -73c35 -41 47 -83 47 -168v-518c0 -69 -23 -88 -109 -88h-65v49h7c72 0 84 15 84 110v429c0 70 -11 106 -41 138c-30 31 -75 49 -124 49c-68 0 -126 -33 -158 -89c-23 -40 -32 -86 -32 -161
v-351h-83v657z" />
    <glyph glyph-name="Tbar" unicode="&#x166;" horiz-adv-x="518" 
d="M300 409h184v-60h-184v-349h-83v349h-184v60h184v187h-223v71h529v-71h-223v-187z" />
    <glyph glyph-name="eng" unicode="&#x14b;" horiz-adv-x="544" 
d="M62 479h72v-102c34 79 90 117 173 117c56 0 105 -21 137 -57c28 -33 37 -67 37 -136v-383c0 -45 -11 -67 -38 -79c-14 -6 -27 -7 -68 -7h-58v39h6c63 0 81 14 81 65v351c0 44 -4 64 -16 86c-19 35 -59 56 -106 56c-51 0 -97 -25 -120 -66c-17 -29 -24 -62 -24 -114v-249
h-76v479z" />
    <glyph glyph-name="tbar" unicode="&#x167;" horiz-adv-x="286" 
d="M168 343h80v-49h-80v-151c0 -36 2 -52 8 -63c9 -17 27 -25 56 -25c12 0 23 1 39 4v-59c-26 -3 -40 -4 -59 -4c-52 0 -84 12 -103 39c-14 21 -18 41 -18 98v161h-67v49h67v86h-87v52h87v150h77v-150h103v-52h-103v-86z" />
    <glyph glyph-name="kgreenlandic" unicode="&#x138;" horiz-adv-x="493" 
d="M480 481l-209 -196l232 -285h-93l-190 235l-81 -73v-162h-77v481h77v-237l251 237h90z" />
    <glyph glyph-name="napostrophe" unicode="&#x149;" horiz-adv-x="730" 
d="M183 656l-92 -204l-55 19l81 209zM298 461h76v-65c40 54 80 76 137 76c42 0 80 -14 107 -38c29 -28 39 -60 39 -123v-311h-76v294c0 41 -5 63 -17 79c-13 19 -41 31 -72 31c-34 0 -65 -13 -88 -39c-22 -24 -30 -46 -30 -84v-281h-76v461z" />
    <glyph glyph-name="Wacute" unicode="&#x1e82;" horiz-adv-x="271" 
d="M239 277v-69h-207v69h207z" />
    <glyph glyph-name="uni2006" unicode="&#x2006;" horiz-adv-x="67" 
 />
    <glyph glyph-name="uni2007" unicode="&#x2007;" horiz-adv-x="556" 
 />
    <glyph glyph-name="uni00A0" unicode="&#xa0;" horiz-adv-x="300" 
 />
    <glyph glyph-name="smileface" unicode="&#x263a;" horiz-adv-x="667" 
d="M339 650c169 0 311 -144 311 -316c0 -175 -142 -317 -316 -317c-176 0 -317 142 -317 319c0 174 143 314 322 314zM338 608c-84 0 -153 -30 -208 -91c-45 -50 -71 -116 -71 -181c0 -154 122 -277 275 -277c152 0 275 123 275 275c0 149 -124 274 -271 274zM241 466
c23 0 43 -20 43 -44s-20 -44 -44 -44s-44 20 -44 44c0 25 20 44 45 44zM434 465c23 0 43 -20 43 -44s-20 -44 -44 -44s-44 20 -44 44c0 25 20 44 45 44zM540 372c-5 -81 -18 -120 -50 -161c-37 -46 -90 -70 -156 -70c-72 0 -128 28 -164 82c-27 39 -36 74 -42 149
c10 -44 19 -62 42 -89c41 -47 94 -70 164 -70s123 23 165 70c22 27 31 45 41 89z" />
    <glyph glyph-name="invsmileface" unicode="&#x263b;" horiz-adv-x="667" 
d="M339 650c169 0 311 -144 311 -316c0 -175 -142 -317 -316 -317c-176 0 -317 142 -317 319c0 174 143 314 322 314zM240 466c-24 0 -44 -19 -44 -44c0 -24 19 -44 44 -44c24 0 43 20 43 44s-20 44 -43 44zM434 465c-25 0 -45 -19 -45 -44c0 -24 20 -44 44 -44s44 20 44 44
s-20 44 -43 44zM540 372c-10 -43 -19 -62 -41 -88c-42 -48 -95 -71 -165 -71s-123 23 -164 71c-23 26 -32 45 -42 88c6 -81 18 -120 51 -161c37 -46 89 -70 155 -70c72 0 129 28 165 83c26 39 36 74 41 148z" />
    <glyph glyph-name="heart" unicode="&#x2665;" horiz-adv-x="667" 
d="M332 -11c-22 89 -56 147 -186 321c-72 98 -90 137 -90 195c0 75 57 134 129 134c48 0 92 -25 120 -68c11 -16 17 -31 27 -62c24 86 75 131 147 131c73 0 132 -59 132 -131c0 -67 -28 -125 -110 -229c-99 -124 -151 -213 -169 -291z" />
    <glyph glyph-name="diamond" unicode="&#x2666;" horiz-adv-x="667" 
d="M333 693c30 -63 183 -279 254 -359c-95 -113 -198 -259 -254 -360c-42 80 -143 224 -253 360c134 168 200 262 253 359z" />
    <glyph glyph-name="club" unicode="&#x2663;" horiz-adv-x="667" 
d="M561 0h-455v18c150 21 220 103 221 256c-17 -29 -24 -40 -34 -52c-36 -46 -92 -75 -146 -75c-79 0 -144 68 -144 152c0 82 58 147 132 147c23 0 38 -4 71 -21l15 -8c-25 38 -35 66 -35 100c0 79 66 143 148 143c81 0 147 -64 147 -143c0 -34 -10 -63 -35 -100
c54 27 60 29 86 29c74 0 132 -65 132 -147c0 -85 -65 -152 -146 -152c-49 0 -106 28 -140 69c-10 13 -18 24 -38 58c2 -86 17 -135 59 -182c42 -43 70 -56 162 -74v-18z" />
    <glyph glyph-name="spade" unicode="&#x2660;" horiz-adv-x="667" 
d="M108 0v18c93 18 124 32 165 78c37 43 53 91 56 159c-7 -15 -10 -21 -13 -28c-26 -44 -79 -74 -132 -74c-65 0 -120 57 -120 125c0 57 32 108 104 169c96 78 149 155 164 239c35 -106 52 -131 151 -222c98 -89 121 -125 121 -187c0 -69 -54 -123 -122 -123
c-58 0 -101 31 -140 101c8 -144 73 -212 226 -237v-18h-460z" />
    <glyph glyph-name="male" unicode="&#x2642;" horiz-adv-x="667" 
d="M570 499l-152 -151c24 -33 36 -69 36 -110c0 -100 -81 -182 -180 -182s-180 82 -180 183c0 100 81 182 180 182c42 0 78 -13 112 -39l151 151c-26 6 -77 25 -106 40c-15 8 -21 14 -21 23c0 7 6 12 13 12c5 0 9 -1 20 -3c32 -7 53 -9 83 -9c44 0 64 2 105 14l10 1
c6 0 10 -4 10 -10c0 -4 0 -4 -5 -23c-7 -28 -10 -51 -10 -87c0 -33 2 -52 9 -84c2 -11 3 -15 3 -20c0 -7 -5 -13 -12 -13c-9 0 -11 2 -23 21c-18 26 -36 70 -43 104zM276 374c-76 0 -135 -59 -135 -135c0 -74 60 -135 133 -135c74 0 133 60 133 135c0 74 -59 135 -131 135z
" />
    <glyph glyph-name="female" unicode="&#x2640;" horiz-adv-x="667" 
d="M308 209v105c-91 14 -155 90 -155 182c0 101 80 183 179 183c100 0 181 -82 181 -183c0 -93 -65 -168 -157 -182v-105h163v-43h-163v-166h-48v166h-161v43h161zM335 632c-76 0 -135 -60 -135 -136c0 -74 60 -135 133 -135c74 0 133 61 133 135s-59 136 -131 136z" />
    <glyph glyph-name="musicalnote" unicode="&#x266a;" horiz-adv-x="667" 
d="M306 156v511h46v-61c8 -10 13 -17 15 -18l52 -63c62 -73 91 -146 91 -225c0 -60 -20 -116 -57 -162h-28c24 56 33 97 33 149c0 86 -48 165 -106 173v-304c0 -96 -63 -165 -152 -165c-43 0 -69 23 -69 61c0 60 57 115 121 115c17 0 38 -4 54 -11z" />
    <glyph glyph-name="uni266C" unicode="&#x266c;" horiz-adv-x="667" 
d="M616 694v-502c0 -35 -5 -56 -17 -81c-25 -51 -78 -83 -135 -83c-43 0 -68 22 -68 60c0 61 57 115 120 115c18 0 38 -4 54 -11v270l-329 -90v-236c0 -95 -63 -163 -152 -163c-43 0 -69 22 -69 60c0 59 57 113 121 113c18 0 37 -4 54 -10v451zM241 448l329 90v70l-329 -90
v-70z" />
    <glyph glyph-name="sun" unicode="&#x263c;" horiz-adv-x="667" 
d="M159 472l-75 75l35 35l75 -75c33 27 73 43 114 48v105h50v-105c42 -5 83 -22 113 -47l75 74l35 -35l-74 -74c26 -33 41 -71 47 -114h105v-51h-105c-6 -43 -21 -80 -47 -114l74 -74l-35 -35l-75 74c-33 -26 -70 -42 -113 -47v-105h-50v105c-40 4 -77 19 -114 47l-75 -74
l-35 35l74 74c-25 32 -42 73 -46 114h-105v51h105c5 45 19 77 47 113zM336 493c-91 0 -163 -70 -163 -158c0 -89 71 -161 160 -161c88 0 159 72 159 160c0 86 -71 159 -156 159z" />
    <glyph glyph-name="uni2218" unicode="&#x2218;" 
d="M253 480c74 0 135 -63 135 -140s-61 -140 -137 -140s-138 63 -138 140c0 78 62 140 140 140zM252 432c-52 0 -92 -41 -92 -92s41 -92 91 -92s90 41 90 92c0 50 -40 92 -89 92z" />
    <glyph glyph-name="openbullet" unicode="&#x25e6;" 
d="M253 480c74 0 135 -63 135 -140s-61 -140 -137 -140s-138 63 -138 140c0 78 62 140 140 140zM252 432c-52 0 -92 -41 -92 -92s41 -92 91 -92s90 41 90 92c0 50 -40 92 -89 92z" />
    <glyph glyph-name="invbullet" unicode="&#x25d8;" horiz-adv-x="667" 
d="M0 0v667h667v-667h-667zM336 473c-79 0 -140 -61 -140 -140c0 -76 62 -139 138 -139s137 62 137 140c0 76 -61 139 -135 139z" />
    <glyph glyph-name="circle" unicode="&#x25cb;" horiz-adv-x="667" 
d="M334 589c143 0 260 -114 260 -255c0 -142 -117 -257 -260 -257c-146 0 -261 114 -261 260c0 138 118 252 261 252zM334 543c-117 0 -214 -94 -214 -207c0 -119 94 -213 214 -213c117 0 213 95 213 211c0 115 -96 209 -213 209z" />
    <glyph glyph-name="invcircle" unicode="&#x25d9;" horiz-adv-x="667" 
d="M667 0h-667v667h667v-667zM334 590c-143 0 -261 -114 -261 -252c0 -146 115 -261 261 -261c143 0 260 116 260 257s-117 256 -260 256zM334 543c117 0 213 -94 213 -209c0 -116 -96 -211 -213 -211c-120 0 -214 94 -214 213c0 113 97 207 214 207z" />
    <glyph glyph-name="filledrect" unicode="&#x25ac;" horiz-adv-x="667" 
d="M667 333v-333h-667v333h667z" />
    <glyph glyph-name="uni25AE" unicode="&#x25ae;" horiz-adv-x="667" 
d="M500 0h-333v667h333v-667z" />
    <glyph glyph-name="filledbox" unicode="&#x25a0;" horiz-adv-x="667" 
d="M667 0h-667v667h667v-667z" />
    <glyph glyph-name="uni25A1" unicode="&#x25a1;" horiz-adv-x="667" 
d="M667 0h-667v667h667v-667zM620 47v573h-573v-573h573z" />
    <glyph glyph-name="uni25AF" unicode="&#x25af;" horiz-adv-x="667" 
d="M334 589c143 0 260 -114 260 -255c0 -142 -117 -257 -260 -257c-146 0 -261 114 -261 260c0 138 118 252 261 252z" />
    <glyph glyph-name="triagup" unicode="&#x25b2;" horiz-adv-x="667" 
d="M633 67h-600l300 561z" />
    <glyph glyph-name="uni25B8" unicode="&#x25b8;" 
d="M71 119v433l405 -217z" />
    <glyph glyph-name="uni25C2" unicode="&#x25c2;" 
d="M428 552v-433l-405 216z" />
    <glyph glyph-name="uni25B4" unicode="&#x25b4;" 
d="M466 147h-433l217 405z" />
    <glyph glyph-name="uni25BE" unicode="&#x25be;" 
d="M33 520h433l-216 -405z" />
    <glyph glyph-name="arrowright" unicode="&#x2192;" horiz-adv-x="667" 
d="M13 310v51h500c-20 25 -52 89 -52 104c0 8 6 14 15 14c7 0 10 -2 22 -17c35 -40 69 -67 132 -104c18 -10 23 -14 23 -21s-2 -10 -16 -18c-82 -49 -103 -65 -145 -116c-6 -7 -10 -9 -16 -9c-9 0 -15 6 -15 15c0 16 24 62 52 101h-500z" />
    <glyph glyph-name="arrowleft" unicode="&#x2190;" horiz-adv-x="667" 
d="M653 363v-51h-500c20 -25 52 -89 52 -104c0 -8 -6 -14 -15 -14c-7 0 -10 2 -22 17c-34 39 -70 68 -132 103c-18 10 -23 15 -23 21c0 8 2 11 16 19c83 49 102 65 145 116c6 7 10 9 16 9c9 0 15 -6 15 -15c0 -16 -24 -62 -52 -101h500z" />
    <glyph glyph-name="arrowboth" unicode="&#x2194;" horiz-adv-x="667" 
d="M513 310h-361c29 -39 53 -85 53 -101c0 -9 -6 -15 -15 -15c-8 0 -8 1 -24 19c-37 42 -63 62 -143 110c-7 4 -10 9 -10 15s5 11 23 21c61 35 98 63 132 103c12 15 15 17 22 17c9 0 15 -6 15 -14c0 -15 -31 -77 -53 -104h361c-20 25 -52 89 -52 104c0 8 6 14 15 14
c7 0 10 -2 22 -17c34 -39 70 -68 132 -103c18 -10 23 -15 23 -21c0 -8 -2 -11 -16 -19c-82 -49 -103 -65 -145 -116c-7 -7 -10 -9 -16 -9c-9 0 -15 6 -15 15c0 16 24 62 52 101z" />
    <glyph glyph-name="arrowup" unicode="&#x2191;" horiz-adv-x="667" 
d="M360 13h-51v500c-24 -20 -89 -52 -104 -52c-8 0 -14 6 -14 15c0 7 2 10 17 23c40 33 68 70 103 132c10 18 15 23 21 23c8 0 11 -2 19 -17c49 -82 65 -102 116 -145c7 -6 9 -10 9 -16c0 -9 -6 -15 -15 -15c-16 0 -62 24 -101 52v-500z" />
    <glyph glyph-name="arrowdown" unicode="&#x2193;" horiz-adv-x="667" 
d="M307 653h51v-500c26 21 89 52 104 52c8 0 14 -6 14 -15c0 -7 -2 -10 -17 -22c-40 -34 -68 -70 -103 -132c-10 -18 -15 -23 -21 -23c-8 0 -11 2 -19 16c-50 84 -65 102 -116 145c-7 6 -9 10 -9 16c0 9 6 15 15 15c16 0 60 -23 101 -52v500z" />
    <glyph glyph-name="arrowupdn" unicode="&#x2195;" horiz-adv-x="667" 
d="M360 513v-361c41 31 85 54 101 54c9 0 15 -6 15 -15c0 -8 -1 -8 -19 -24c-43 -38 -62 -62 -110 -144c-4 -7 -9 -10 -15 -10s-11 5 -20 23c-35 61 -64 99 -104 132c-15 13 -17 16 -17 23c0 9 6 15 14 15c15 0 76 -31 104 -54v361c-25 -20 -89 -52 -104 -52
c-8 0 -14 6 -14 15c0 7 2 10 17 23c40 33 69 70 104 132c9 18 14 23 20 23c8 0 11 -2 19 -17c49 -82 65 -102 116 -145c7 -6 9 -10 9 -16c0 -9 -6 -15 -15 -15c-16 0 -62 24 -101 52z" />
    <glyph glyph-name="arrowupdnbse" unicode="&#x21a8;" horiz-adv-x="667" 
d="M360 513v-361c41 31 85 54 101 54c9 0 15 -6 15 -15c0 -8 -1 -8 -19 -24c-43 -38 -62 -62 -110 -144c-4 -7 -9 -10 -15 -10s-11 6 -21 23c-34 62 -63 99 -103 132c-15 13 -17 16 -17 23c0 9 6 15 14 15c15 0 76 -31 104 -54v361c-24 -20 -89 -52 -104 -52
c-8 0 -14 6 -14 15c0 7 2 10 17 23c40 33 69 70 104 132c9 18 14 23 20 23c8 0 11 -2 19 -17c49 -82 65 -102 116 -145c7 -6 9 -10 9 -16c0 -9 -6 -15 -15 -15c-16 0 -62 24 -101 52zM201 -68h264v-43h-264v43z" />
    <glyph glyph-name="lozenge" unicode="&#x25ca;" horiz-adv-x="667" 
d="M334 693l259 -359l-259 -360l-260 360zM334 604l-197 -270l197 -271l197 271z" />
    <glyph glyph-name="triagdn" unicode="&#x25bc;" horiz-adv-x="667" 
d="M33 600h600l-300 -561z" />
    <glyph glyph-name="Delta" unicode="&#x2206;" horiz-adv-x="623" 
d="M6 0l264 667h82l265 -667h-611zM108 69h405l-202 513z" />
    <glyph glyph-name="notequal" unicode="&#x2260;" 
d="M270 442l61 123l56 -24l-49 -99h129v-69h-158l-48 -98h205v-69h-232l-60 -123l-56 24l48 99h-133v69h160l48 98h-208v69h237z" />
    <glyph glyph-name="equivalence" unicode="&#x2261;" 
d="M33 536h433v-73h-433v73zM33 370h433v-73h-433v73zM33 204h433v-73h-433v73z" />
    <glyph glyph-name="radical" unicode="&#x221a;" horiz-adv-x="667" 
d="M667 827v-66h-192l-224 -761h-87l-84 293h-80v66h127l42 -138c5 -18 6 -22 15 -62c2 -10 6 -24 18 -74h3c3 11 5 19 6 21c5 23 11 45 17 68l27 103l48 163l114 387h250z" />
    <glyph glyph-name="integral" unicode="&#x222b;" 
d="M95 -239l17 74c16 -8 25 -10 39 -10c26 0 45 13 52 34c4 12 5 15 5 91v587c1 107 1 107 9 133c14 49 62 80 123 80c22 0 36 -2 65 -10l-16 -74c-17 7 -26 9 -40 9c-26 0 -45 -12 -52 -34c-4 -10 -5 -29 -5 -68v-608c0 -114 -3 -133 -23 -162c-22 -32 -69 -51 -127 -51
c-20 0 -29 2 -47 9z" />
    <glyph glyph-name="integraltp" unicode="&#x2320;" 
d="M292 -250h-84v787c1 107 1 107 9 133c14 49 62 80 123 80c22 0 36 -2 65 -10l-16 -74c-17 7 -27 9 -40 9c-26 0 -45 -12 -52 -34c-4 -10 -5 -29 -5 -68v-823z" />
    <glyph glyph-name="integralbt" unicode="&#x2321;" 
d="M208 750h84v-787c-1 -106 -1 -106 -8 -133c-15 -49 -63 -80 -124 -80c-22 0 -36 2 -65 11l17 74c16 -8 25 -10 39 -10c26 0 45 12 52 34c4 11 5 26 5 68v823z" />
    <glyph glyph-name="similar" unicode="&#x223c;" 
d="M54 259l-44 35c35 75 81 114 137 114c27 0 58 -11 115 -39c55 -28 70 -33 92 -33c36 0 62 21 91 74l44 -35c-33 -75 -82 -114 -140 -114c-29 0 -45 6 -124 46c-37 18 -62 26 -82 26c-34 0 -60 -21 -89 -74z" />
    <glyph glyph-name="approxequal" unicode="&#x2248;" 
d="M54 348l-44 30c35 75 81 114 137 114c27 0 58 -10 115 -39c56 -28 70 -33 92 -33c37 0 57 16 91 70l44 -31c-34 -76 -81 -113 -144 -113c-27 0 -44 6 -120 45c-37 18 -62 26 -82 26c-34 0 -56 -18 -89 -69zM54 174l-44 31c35 75 81 113 137 113c26 0 57 -10 115 -39
c56 -27 70 -32 92 -32c37 0 57 16 91 69l44 -30c-34 -76 -81 -113 -144 -113c-26 0 -44 6 -120 44c-37 18 -62 26 -82 26c-34 0 -56 -18 -89 -69z" />
    <glyph glyph-name="lessequal" unicode="&#x2264;" 
d="M466 598v-79l-342 -133l342 -132v-79l-433 176v71zM466 147v-73h-433v73h433z" />
    <glyph glyph-name="greaterequal" unicode="&#x2265;" 
d="M33 175v79l342 132l-342 133v79l433 -176v-71zM33 74v73h433v-73h-433z" />
    <glyph glyph-name="uni2319" unicode="&#x2319;" 
d="M114 278v-205h352v-73h-433v278h81z" />
    <glyph glyph-name="revlogicalnot" unicode="&#x2310;" 
d="M114 0h-81v278h433v-73h-352v-205z" />
    <glyph glyph-name="union" unicode="&#x222a;" horiz-adv-x="558" 
d="M34 667h79v-317c0 -126 6 -170 28 -205c28 -45 82 -74 137 -74c60 0 117 34 143 83c17 34 23 82 23 196v317h79v-315c0 -166 -6 -202 -43 -254c-46 -63 -117 -98 -201 -98c-92 0 -170 43 -213 116c-26 45 -32 86 -32 236v315z" />
    <glyph glyph-name="intersection" unicode="&#x2229;" horiz-adv-x="558" 
d="M523 0h-79v317c0 127 -6 170 -28 205c-29 45 -82 74 -137 74c-60 0 -117 -34 -143 -83c-17 -34 -23 -82 -23 -196v-317h-79v315c0 165 6 203 43 254c46 63 117 98 201 98c92 0 170 -42 213 -116c26 -45 32 -86 32 -236v-315z" />
    <glyph glyph-name="infinity" unicode="&#x221e;" horiz-adv-x="667" 
d="M335 301c-53 -78 -104 -112 -168 -112c-87 0 -148 62 -148 152c0 88 62 150 149 150c62 0 115 -36 164 -111c53 78 103 111 168 111c87 0 148 -62 148 -152c0 -88 -61 -150 -147 -150c-65 0 -116 34 -166 112zM363 340c46 -71 83 -99 131 -99c55 0 94 41 94 99
c0 57 -40 99 -94 99c-49 0 -83 -26 -131 -99zM304 340c-45 71 -83 99 -131 99c-55 0 -94 -42 -94 -99s40 -99 94 -99c49 0 84 27 131 99z" />
    <glyph glyph-name="uni222E" unicode="&#x222e;" 
d="M93 -239l16 74c20 -8 29 -10 44 -10c26 0 45 13 52 34c3 10 5 37 5 70v158c-78 11 -140 87 -140 171c0 86 56 154 140 171v151c0 60 5 90 19 114c22 37 57 56 107 56c22 0 36 -2 67 -10l-16 -74c-19 7 -29 9 -44 9c-26 0 -44 -12 -51 -34c-4 -11 -5 -26 -5 -63v-149
c87 -16 143 -82 143 -170c0 -87 -61 -160 -143 -172v-161c0 -74 -3 -92 -17 -119c-22 -38 -60 -57 -114 -57c-28 0 -41 2 -63 11zM287 388v-259c63 14 102 64 102 130c0 65 -43 119 -102 129zM210 129v259c-57 -10 -99 -65 -99 -129s42 -119 99 -130z" />
    <glyph glyph-name="product" unicode="&#x220f;" horiz-adv-x="667" 
d="M27 750h614v-65h-74v-870h74v-65h-221v65h75v870h-323v-870h75v-65h-220v65h74v870h-74v65z" />
    <glyph glyph-name="summation" unicode="&#x2211;" horiz-adv-x="667" 
d="M598 750v-230h-72l-8 157h-396l249 -408l-249 -446h406l4 158h75v-231h-573v85l243 434l-243 399v82h564z" />
    <glyph glyph-name="afii61289" unicode="&#x2113;" 
d="M246 265c-13 -68 -29 -180 -29 -205c0 -17 6 -25 18 -25c17 0 29 14 48 54c7 13 12 18 20 18c9 0 14 -6 14 -15c0 -13 -7 -32 -20 -52c-24 -39 -50 -58 -82 -58c-45 0 -71 33 -71 92c0 24 2 48 9 120c-21 -22 -47 -44 -54 -44c-6 0 -13 9 -13 18c0 7 5 15 19 27
c14 13 28 28 56 60c53 288 116 420 197 420c40 0 66 -32 66 -83c0 -53 -24 -124 -63 -188c-24 -38 -57 -79 -115 -139zM255 321c51 56 81 103 104 161c14 39 25 85 25 112c0 22 -10 37 -25 37c-39 0 -64 -73 -104 -310z" />
    <glyph glyph-name="partialdiff" unicode="&#x2202;" 
d="M84 607l10 64c113 -16 182 -46 246 -106c82 -78 128 -194 128 -325c0 -65 -12 -112 -39 -154c-40 -61 -106 -97 -178 -97c-122 0 -219 99 -219 224c0 124 91 222 206 222c39 0 81 -12 105 -30c11 -8 20 -17 43 -44l-8 16l-25 60c-45 91 -146 155 -269 170zM257 375
c-87 0 -154 -71 -154 -163c0 -87 67 -160 147 -160c83 0 146 71 146 165c0 91 -59 158 -139 158z" />
    <glyph glyph-name="underscoredbl" unicode="&#x2017;" 
d="M0 -59h500v-39h-500v39zM0 -176h500v-39h-500v39z" />
    <glyph glyph-name="uni203E" unicode="&#x203e;" 
d="M0 854h500v-52h-500v52z" />
    <glyph glyph-name="emptyset" unicode="&#x2205;" horiz-adv-x="618" 
d="M439 667l48 -25l-48 -88c75 -53 113 -122 113 -204c0 -136 -109 -243 -248 -243c-33 0 -56 5 -79 16l-63 -123l-48 25l61 122c-72 53 -108 120 -108 202c0 136 108 243 244 243c29 0 51 -4 81 -14zM416 502l-165 -330c24 -6 39 -8 58 -8c103 0 187 83 187 185
c0 63 -31 123 -80 153zM200 198l166 329c-21 6 -34 8 -54 8c-104 0 -189 -83 -189 -185c0 -60 26 -111 77 -152z" />
    <glyph glyph-name="exclamdbl" unicode="&#x203c;" horiz-adv-x="400" 
d="M138 667v-177l-19 -301h-43l-19 300v178h81zM140 121v-121h-84v121h84zM342 667v-177l-19 -301h-43l-19 300v178h81zM344 121v-121h-84v121h84z" />
    <glyph glyph-name="H18551" unicode="&#x25ab;" horiz-adv-x="342" 
d="M21 481h120v118h59v-118h121v-55h-121v-117h-59v117h-120v55z" />
    <glyph glyph-name="orthogonal" unicode="&#x221f;" horiz-adv-x="342" 
d="M21 481h300v-55h-300v55z" />
    <glyph glyph-name="house" unicode="&#x2302;" horiz-adv-x="751" 
d="M84 0v401l291 328l292 -328v-401h-583zM135 51h481v328l-241 270l-240 -270v-328z" />
    <glyph glyph-name="uni2126" unicode="&#x2126;" horiz-adv-x="666" 
d="M27 0v69h181c-122 71 -183 169 -183 295c0 178 135 319 307 319s307 -141 307 -320c0 -125 -61 -223 -182 -294h181v-69h-261v64c119 66 182 165 182 287c0 146 -100 262 -226 262c-128 0 -228 -115 -228 -262c0 -125 61 -220 183 -287v-64h-261z" />
    </font>
</defs>
</svg>
